<?xml version="1.0" encoding="utf-8"?>
<!-- Generator: Adobe Illustrator 24.0.0, SVG Export Plug-In . SVG Version: 6.00 Build 0)  -->
<svg version="1.1" id="Layer_1" xmlns="http://www.w3.org/2000/svg" xmlns:xlink="http://www.w3.org/1999/xlink" x="0px" y="0px"
	 viewBox="0 0 109 109" style="enable-background:new 0 0 109 109;" xml:space="preserve">
<style type="text/css">
	.st0{fill:#231F20;stroke:#231F20;stroke-width:2.5;}
</style>
<g transform="translate(21.023 -39.433) rotate(45)">
	<g transform="translate(56.825 0)">
		<path class="st0" d="M78.1,18c-3.9-5.3-9.8-8.8-16.4-9.5c-7.9-0.9-15.9-1.3-23.9-1.4c0-3.6-0.6-7.3-1.6-10.8
			c-2.5-8.5-7.8-13.6-15.2-14.8c-1.2-0.2-2.3,0.6-2.5,1.8c-0.2,1.2,0.6,2.3,1.8,2.5c0,0,0.1,0,0.1,0c5.7,0.9,9.6,4.8,11.7,11.7
			c0.9,3.1,1.4,6.4,1.4,9.6c-8,0.1-16.1,0.5-24,1.4C-3.4,9.9-12.6,21.4-11.3,34.2c0.1,0.8,0.2,1.5,0.4,2.2c0.2,1,1.1,1.7,2.1,1.7
			c0.1,0,0.3,0,0.4,0c0.8-0.2,1.6-0.3,2.4-0.5c-1.4,3.9-2.1,8.1-2,12.3c-0.3,16.8,7.8,32.6,21.6,42.1c6.5,4.7,13.8,8.1,21.5,10.2
			c0.3,0.1,0.7,0.1,1,0c7.7-2.1,15-5.5,21.5-10.2c13.8-9.6,21.9-25.4,21.6-42.1c0-4.2-0.6-8.3-2-12.3c0.8,0.2,1.6,0.3,2.4,0.5
			c1.2,0.2,2.3-0.5,2.6-1.7c0,0,0,0,0,0C83.5,30,82,23.3,78.1,18z M68.7,73.8c-3.4,5.8-8.1,10.8-13.5,14.7
			c-5.9,4.2-12.5,7.4-19.5,9.4c-7-2-13.6-5.2-19.5-9.4C10.6,84.5,6,79.5,2.5,73.8c-4.1-7.3-6.3-15.5-6.1-23.8
			c-0.1-4.6,0.9-9.1,2.8-13.2c24.1-4.1,48.8-4.1,72.9,0c1.9,4.1,2.9,8.6,2.8,13.2C75,58.3,72.8,66.5,68.7,73.8z M78.2,33.4
			c-28.1-5.6-57-5.6-85.1,0C-7.9,23.1-0.4,13.9,9.9,12.8C27,11,44.2,11,61.3,12.8C71.6,13.9,79.1,23.1,78.2,33.4L78.2,33.4z"/>
	</g>
</g>
</svg>
