<svg xmlns="http://www.w3.org/2000/svg" width="21.916" height="21.598" viewBox="0 0 21.916 21.598">
  <defs>
    <style>
      .cls-1 {
        fill: #4d4d4d;
      }
    </style>
  </defs>
  <path id="calendar-blank-line" class="cls-1" d="M15.547.827A.942.942,0,0,1,16.577,0a.947.947,0,0,1,1.03.827V4.465a.942.942,0,0,1-1.03.827.947.947,0,0,1-1.03-.827Zm-9.278,0A.942.942,0,0,1,7.3,0a.947.947,0,0,1,1.03.827V4.465a.942.942,0,0,1-1.03.827.947.947,0,0,1-1.03-.827ZM2.133,7.962H21.767V3.77a.484.484,0,0,0-.151-.359.513.513,0,0,0-.364-.148H19.374a.562.562,0,1,1,0-1.124h1.878a1.665,1.665,0,0,1,1.173.484,1.63,1.63,0,0,1,.491,1.155V19.959a1.616,1.616,0,0,1-.491,1.155,1.68,1.68,0,0,1-1.173.484H2.664a1.665,1.665,0,0,1-1.173-.484A1.63,1.63,0,0,1,1,19.959V3.778a1.616,1.616,0,0,1,.491-1.155,1.68,1.68,0,0,1,1.173-.484H4.676a.562.562,0,1,1,0,1.124H2.664a.531.531,0,0,0-.372.148.5.5,0,0,0-.151.367V7.97ZM21.767,9.086H2.133V19.951a.51.51,0,0,0,.523.515H21.244a.531.531,0,0,0,.372-.148.5.5,0,0,0,.151-.367ZM9.985,3.255a.562.562,0,1,1,0-1.124H13.82a.562.562,0,1,1,0,1.124Z" transform="translate(-1)"/>
</svg>
