<svg xmlns="http://www.w3.org/2000/svg" width="15.861" height="15.244" viewBox="0 0 15.861 15.244"><path d="M9.207,23.429H3.933L3.3,24.884A3.21,3.21,0,0,0,3,26.083a.991.991,0,0,0,.508.925,4.173,4.173,0,0,0,1.462.267v.406H0v-.406a2.219,2.219,0,0,0,1.32-.669A8.672,8.672,0,0,0,2.6,24.354L7.94,12.437h.21l5.383,12.248A7.443,7.443,0,0,0,14.8,26.876a1.74,1.74,0,0,0,1.06.4v.406H8.635v-.406h.3a2.25,2.25,0,0,0,1.222-.244.588.588,0,0,0,.245-.508,1.323,1.323,0,0,0-.068-.406c-.015-.068-.124-.342-.331-.827l-.793-1.861Zm-.376-.816L6.609,17.471,4.316,22.613Z" transform="translate(0 -12.437)"/></svg>