<svg xmlns="http://www.w3.org/2000/svg" width="20.13" height="24" viewBox="0 0 20.13 24"><path d="M3.638,4.562a.562.562,0,1,1-1.124,0V1.3A1.3,1.3,0,0,1,3.818,0H19.827a1.313,1.313,0,0,1,.921.382,1.294,1.294,0,0,1,.382.921V22.7a1.313,1.313,0,0,1-.382.921,1.294,1.294,0,0,1-.921.382H3.818a1.3,1.3,0,0,1-1.3-1.3V19.591a.557.557,0,1,1,1.115,0V22.7a.2.2,0,0,0,.054.13.191.191,0,0,0,.13.054H16.294V1.119H3.813a.2.2,0,0,0-.13.054.191.191,0,0,0-.054.13V4.562ZM1.413,17.524c-.229,0-.413-.252-.413-.562s.184-.562.413-.562H4.425c.229,0,.413.252.413.562s-.184.562-.413.562Zm0-9.924C1.184,7.6,1,7.348,1,7.038s.184-.562.413-.562H4.425c.229,0,.413.252.413.562s-.184.562-.413.562Zm0,3.308c-.229,0-.413-.252-.413-.562s.184-.562.413-.562H4.425c.229,0,.413.252.413.562s-.184.562-.413.562Zm0,3.308c-.229,0-.413-.252-.413-.562s.184-.562.413-.562H4.425c.229,0,.413.252.413.562s-.184.562-.413.562Zm16.013,8.665h2.4a.2.2,0,0,0,.13-.054.18.18,0,0,0,.054-.13V1.3a.2.2,0,0,0-.054-.13.191.191,0,0,0-.13-.054h-2.4Z" transform="translate(-1)"/></svg>