<svg xmlns="http://www.w3.org/2000/svg" width="22.073" height="23" viewBox="0 0 22.073 23">
  <defs>
    <style>
      .cls-1 {
        fill: #FF9CAB;
        fill-rule: evenodd;
      }
    </style>
  </defs>
  <path id="leaf" class="cls-1" d="M32.432,18.306a14.426,14.426,0,0,1,2.194,3.5c.428,1.171.6,1.7-.37.492a21.585,21.585,0,0,0-2.99-3.273c-.087.02-.18.04-.279.06-11.2,2.226-19.36-2.812-17.927-19.1,8.628,2.988,20.847,1.774,19.583,17.08A4.254,4.254,0,0,1,32.432,18.306Zm-3.006-2.447C26.611,9.795,19.378,7.715,15.791,3.568c3.9,7.6,6.021,7.26,13.635,12.291Z" transform="translate(-12.896 0.011)"/>
</svg>
