<svg xmlns="http://www.w3.org/2000/svg" width="23.032" height="24" viewBox="0 0 23.032 24"><defs><style>.a{fill:#d1d1d1;fill-rule:evenodd;}</style></defs><path class="a" d="M33.281,19.1a15.053,15.053,0,0,1,2.289,3.656c.447,1.222.628,1.779-.386.513a22.522,22.522,0,0,0-3.12-3.415c-.091.021-.188.042-.291.062C20.085,22.241,11.57,16.984,13.066-.011c9,3.118,21.753,1.851,20.435,17.823A4.439,4.439,0,0,1,33.281,19.1Zm-3.137-2.553C27.208,10.221,19.66,8.05,15.917,3.723,19.982,11.649,22.2,11.3,30.145,16.549Z" transform="translate(-12.896 0.011)"/></svg>