<svg xmlns="http://www.w3.org/2000/svg" width="20" height="20.84" viewBox="0 0 20 20.84">
  <defs>
    <style>
      .cls-1 {
        fill: #83e300;
        fill-rule: evenodd;
      }
    </style>
  </defs>
  <path id="leaf_icon" data-name="leaf icon" class="cls-1" d="M30.6,16.586a13.071,13.071,0,0,1,1.988,3.174c.388,1.061.545,1.545-.335.445A19.558,19.558,0,0,0,29.54,17.24c-.079.018-.163.036-.253.054C19.138,19.311,11.745,14.746,13.044-.011,20.862,2.7,31.933,1.6,30.788,15.465a3.854,3.854,0,0,1-.19,1.12Zm-2.724-2.217c-2.55-5.494-9.1-7.379-12.355-11.137,3.53,6.882,5.455,6.579,12.355,11.137Z" transform="translate(-12.896 0.011)"/>
</svg>
