<svg xmlns="http://www.w3.org/2000/svg" width="23.201" height="22.863" viewBox="0 0 23.201 22.863">
  <defs>
    <style>
      .cls-1 {
        fill: #4d4d4d;
      }
    </style>
  </defs>
  <path id="link-line" class="cls-1" d="M9.072,9.993a.607.607,0,0,1,.851,0,.586.586,0,0,1,0,.839L3.238,17.418,7.52,21.637l6.7-6.6a.607.607,0,0,1,.851,0,.586.586,0,0,1,0,.839L8.3,22.546a1.1,1.1,0,0,1-.773.316,1.067,1.067,0,0,1-.727-.277.152.152,0,0,1-.046-.045L2.321,18.173a1.079,1.079,0,0,1,0-1.535L9.085,9.973Zm7.485-2.316a.607.607,0,0,1,.851,0,.586.586,0,0,1,0,.839L11.475,14.36a.607.607,0,0,1-.851,0,.586.586,0,0,1,0-.839Zm1.6,5.161a.607.607,0,0,1-.851,0,.586.586,0,0,1,0-.839L23.95,5.451,19.667,1.232,13.034,7.767a.607.607,0,0,1-.851,0,.586.586,0,0,1,0-.839L18.888.316a1.119,1.119,0,0,1,1.559,0L24.88,4.683a1.071,1.071,0,0,1,0,1.529l-6.719,6.619Z" transform="translate(-2)"/>
</svg>
