<svg xmlns="http://www.w3.org/2000/svg" width="18.532" height="19.06" viewBox="0 0 18.532 19.06"><defs><style>.a{fill:#aaa;stroke:#aaa;stroke-width:0.5px;}</style></defs><path class="a" d="M13.874,2.046l5.543-2.56A.431.431,0,0,1,19.99-.3a.445.445,0,0,1,.042.183V14.112a.431.431,0,0,1-.229.381l-5.7,3.442a.227.227,0,0,1-.037.021l-.005.005h-.016a.4.4,0,0,1-.334,0H13.7l-.005-.005a.131.131,0,0,1-.037-.021l-5.5-3.317-5.5,3.322A.433.433,0,0,1,2,17.57V2.526a.43.43,0,0,1,.282-.407l5.7-2.628h.01L8-.515h.005a.363.363,0,0,1,.13-.026H8.19a.578.578,0,0,1,.13.026h.005l.01.005h.01l5.543,2.56ZM7.715,13.867V.56L2.86,2.8v14ZM13.441,16.8V2.8L8.586.56V13.867ZM19.166.56,14.312,2.8v14l4.855-2.931Z" transform="translate(-1.75 0.806)"/></svg>