<svg xmlns="http://www.w3.org/2000/svg" width="20" height="20" viewBox="0 0 20 20"><path d="M9.2.79a.763.763,0,0,1,.061-.3A.743.743,0,0,1,9.438.234.786.786,0,0,1,10,0a.763.763,0,0,1,.3.061h.006a.857.857,0,0,1,.25.167A.786.786,0,0,1,10.79.79V9.21h8.42a.763.763,0,0,1,.3.061h.006a.857.857,0,0,1,.25.167A.786.786,0,0,1,20,10a.763.763,0,0,1-.061.3.743.743,0,0,1-.173.256.8.8,0,0,1-.256.173.784.784,0,0,1-.3.061H10.79v8.42a.763.763,0,0,1-.061.3v.006a.857.857,0,0,1-.167.25A.786.786,0,0,1,10,20a.763.763,0,0,1-.3-.061.743.743,0,0,1-.256-.173.8.8,0,0,1-.173-.256.784.784,0,0,1-.061-.3V10.79H.79a.763.763,0,0,1-.3-.061.743.743,0,0,1-.256-.173A.8.8,0,0,1,.061,10.3.784.784,0,0,1,0,10a.763.763,0,0,1,.061-.3.743.743,0,0,1,.173-.256A.786.786,0,0,1,.8,9.21h8.42V.79Z"/></svg>