<svg xmlns="http://www.w3.org/2000/svg" width="64" height="64" viewBox="0 0 640 640" shape-rendering="geometricPrecision" text-rendering="geometricPrecision" image-rendering="optimizeQuality" fill-rule="evenodd" clip-rule="evenodd"><path d="M320 0v.083c-88.418 0-168.415 35.8-226.267 93.65C35.882 151.585.083 231.581.083 319.988H0V320h.082c0 88.419 35.8 168.415 93.651 226.267 57.851 57.851 137.848 93.651 226.255 93.651v.083H320v-.083c88.418 0 168.415-35.8 226.267-93.65 57.85-57.852 93.65-137.849 93.65-226.256H640V320h-.082c0-88.418-35.8-168.415-93.651-226.267C488.416 35.883 408.419.083 320.012.083V0H320zm-53.434 221.247c-9.945-10.229-9.708-26.563.508-36.508 10.217-9.945 26.563-9.72 36.508.508l113.742 117.285-18.508 18 18.591-18.012c9.945 10.264 9.697 26.646-.567 36.603-.295.295-.602.567-.91.838L303.584 454.836c-9.945 10.229-26.292 10.453-36.509.508-10.216-9.933-10.452-26.28-.507-36.508l96.213-98.375-96.213-99.214z" fill-rule="nonzero"/></svg>