<svg xmlns="http://www.w3.org/2000/svg" width="14" height="12.563" viewBox="0 0 14 12.563"><defs><style>.a{fill:#717171;opacity:0.999;}</style></defs><path class="a" d="M.332,12.563a.282.282,0,1,1,0-.554H2.037A7.088,7.088,0,0,1,3.453,7.792,4.934,4.934,0,0,1,5.364,6.275,4.934,4.934,0,0,1,3.453,4.759,7.068,7.068,0,0,1,2.037.554H.332A.306.306,0,0,1,0,.277.309.309,0,0,1,.332,0H13.668A.306.306,0,0,1,14,.277a.309.309,0,0,1-.332.277H11.9a7.077,7.077,0,0,1-1.416,4.2A4.934,4.934,0,0,1,8.573,6.275a4.934,4.934,0,0,1,1.911,1.516A7.06,7.06,0,0,1,11.9,12.009h1.768a.282.282,0,1,1,0,.554ZM9.955,4.347A6.392,6.392,0,0,0,11.224.668H2.705a6.392,6.392,0,0,0,1.269,3.68A3.828,3.828,0,0,0,6.964,5.939,3.835,3.835,0,0,0,9.955,4.347Zm1.269,7.536A6.392,6.392,0,0,0,9.955,8.2,3.828,3.828,0,0,0,6.964,6.611,3.835,3.835,0,0,0,3.974,8.2a6.392,6.392,0,0,0-1.269,3.68Z"/></svg>