<?xml version="1.0" encoding="utf-8"?>
<!-- Generator: Adobe Illustrator 24.0.1, SVG Export Plug-In . SVG Version: 6.00 Build 0)  -->
<svg version="1.1" id="Layer_1" xmlns="http://www.w3.org/2000/svg" xmlns:xlink="http://www.w3.org/1999/xlink" x="0px" y="0px"
	 viewBox="0 0 16 16" style="enable-background:new 0 0 16 16;" xml:space="preserve">
<style type="text/css">
	.st0{fill:none;}
	.st1{fill:#FFFFFF;}
</style>
<g transform="translate(0)">
	<path class="st0" d="M8.1,0.5c4.2,0,7.6,3.4,7.6,7.6s-3.4,7.6-7.6,7.6s-7.6-3.4-7.6-7.6S3.9,0.5,8.1,0.5C8.1,0.5,8.1,0.5,8.1,0.5z"
		/>
	<path class="st1" d="M0,8c0-4.4,3.6-8,8-8s8,3.6,8,8c0,4.4-3.6,8-8,8c-2.1,0-4.2-0.8-5.7-2.3C0.8,12.2,0,10.1,0,8z M5.5,6.7
		c-0.2-0.2-0.6-0.2-0.8,0c-0.2,0.2-0.2,0.6,0,0.8c0,0,0,0,0,0l2.9,2.8L8,10l-0.4,0.4c0.2,0.2,0.6,0.2,0.8,0l0,0l2.9-2.8
		c0.2-0.2,0.3-0.6,0-0.8c-0.2-0.2-0.6-0.3-0.8,0c0,0,0,0,0,0L8,9.2L5.5,6.7z M3.2,3.2c-2.7,2.7-2.7,7,0,9.7s7,2.7,9.7,0s2.7-7,0-9.7
		c-1.3-1.3-3-2-4.8-2C6.2,1.2,4.5,1.9,3.2,3.2L3.2,3.2z"/>
</g>
</svg>
