<svg xmlns="http://www.w3.org/2000/svg" xmlns:xlink="http://www.w3.org/1999/xlink" width="200" height="200" viewBox="0 0 200 200">
  <defs>
    <style>
      .cls-1 {
        fill: url(#linear-gradient);
      }

      .cls-2 {
        fill: #fff;
        stroke: #fff;
        stroke-width: 3px;
      }

      .cls-3 {
        filter: url(#Path_35);
      }
    </style>
    <linearGradient id="linear-gradient" x1="0.083" y1="0.938" x2="0.897" y2="0.055" gradientUnits="objectBoundingBox">
      <stop offset="0" stop-color="#22bfc6"/>
      <stop offset="1" stop-color="#9ddbcd"/>
    </linearGradient>
    <filter id="Path_35" x="8.337" y="8.313" width="183.561" height="183.561" filterUnits="userSpaceOnUse">
      <feOffset input="SourceAlpha"/>
      <feGaussianBlur stdDeviation="4" result="blur"/>
      <feFlood flood-opacity="0.133"/>
      <feComposite operator="in" in2="blur"/>
      <feComposite in="SourceGraphic"/>
    </filter>
  </defs>
  <g id="Group_17" data-name="Group 17" transform="translate(-216 -472)">
    <g id="Group_10" data-name="Group 10" transform="translate(-1120 -478)">
      <rect id="Rectangle_6" data-name="Rectangle 6" class="cls-1" width="200" height="200" rx="50" transform="translate(1336 950)"/>
      <g class="cls-3" transform="matrix(1, 0, 0, 1, 1336, 950)">
        <path id="Path_35-2" data-name="Path 35" class="cls-2" d="M91.481,37.313a23.949,23.949,0,0,0-16.756-9.69C66.637,26.75,58.5,26.279,50.35,26.2a41.89,41.89,0,0,0-1.615-11.009C46.154,6.493,40.79,1.249,33.223.029a2.229,2.229,0,1,0-.71,4.4c5.81.937,9.82,4.952,11.919,11.932A37.6,37.6,0,0,1,45.89,26.2c-8.209.07-16.414.541-24.566,1.421A23.87,23.87,0,0,0,.493,56.189a2.229,2.229,0,0,0,2.18,1.777,2.254,2.254,0,0,0,.454-.047q1.223-.253,2.446-.491a36.772,36.772,0,0,0-2.058,12.53c0,22.448,12,35.8,22.067,43.052A66.885,66.885,0,0,0,47.53,123.4a2.22,2.22,0,0,0,.991,0A66.878,66.878,0,0,0,70.468,113.01c10.067-7.25,22.067-20.6,22.067-43.052a36.77,36.77,0,0,0-2.058-12.53q1.222.239,2.444.49a2.229,2.229,0,0,0,2.634-1.73A23.89,23.89,0,0,0,91.481,37.313ZM81.824,94.325A49.2,49.2,0,0,1,67.988,109.3a64.445,64.445,0,0,1-19.962,9.62,64.439,64.439,0,0,1-19.962-9.62A49.2,49.2,0,0,1,14.227,94.325,47.638,47.638,0,0,1,7.973,69.959,30.822,30.822,0,0,1,10.8,56.471a219.724,219.724,0,0,1,74.449,0,30.818,30.818,0,0,1,2.828,13.487A47.636,47.636,0,0,1,81.824,94.325Zm9.692-41.237a224.431,224.431,0,0,0-86.982,0A19.414,19.414,0,0,1,21.8,32.055a244.53,244.53,0,0,1,52.444,0A19.414,19.414,0,0,1,91.516,53.088Z" transform="translate(109.79 22.5) rotate(45)"/>
      </g>
    </g>
  </g>
</svg>
