<svg xmlns="http://www.w3.org/2000/svg" width="512.036" height="786.322" viewBox="0 0 512.036 786.322">
  <defs>
    <style>
      .cls-1 {
        stroke: #222;
        stroke-width: 3px;
      }
    </style>
  </defs>
  <g id="acorn-logo" transform="translate(-55.723 7.575)">
    <g id="Group_1057" data-name="Group 1057" transform="translate(57.265 -6.096)">
      <path id="Path_96" data-name="Path 96" class="cls-1" d="M599.941,378.653a255.09,255.09,0,0,0-82.8-162.158c-13.857-12.526-45.84-30.089-76.282-41.378a459.476,459.476,0,0,0-46.807-14.811c-11.3-2.8-20.467-3.931-28.433-6.429,12.361-14.437,107.4-61.789,82.866-127.9C439.057.552,435.707.1,412.942,14.186,380.7,34.141,321.474,68.865,304.421,153.877A255.751,255.751,0,0,0,91.54,378.656a48.387,48.387,0,0,0,48.071,53.532H141.9V542.635A203.8,203.8,0,0,0,248.415,721.727a349.194,349.194,0,0,1,78.9,58.858,25.986,25.986,0,0,0,36.836.015,344.219,344.219,0,0,1,78.914-58.875,203.8,203.8,0,0,0,106.52-179.091V432.187h2.285a48.352,48.352,0,0,0,48.071-53.533ZM418.225,676.079a397.479,397.479,0,0,0-72.485,50.585,397.613,397.613,0,0,0-72.486-50.585,151.868,151.868,0,0,1-79.393-133.447V432.185H497.616V542.634h0A151.864,151.864,0,0,1,418.225,676.079ZM143.674,380.22A203.211,203.211,0,0,1,352.21,202.611c.482.015.962.031,1.444.051A203.14,203.14,0,0,1,547.808,380.22Z" transform="translate(-91.265 -4.904)"/>
    </g>
  </g>
</svg>
