<!-- Generator: Adobe Illustrator 24.1.0, SVG Export Plug-In . SVG Version: 6.00 Build 0)  -->
<svg version="1.1" id="Layer_1" xmlns="http://www.w3.org/2000/svg" xmlns:xlink="http://www.w3.org/1999/xlink" x="0px" y="0px"
	 viewBox="0 0 104.6 111.2" style="enable-background:new 0 0 104.6 111.2;" xml:space="preserve">
<style type="text/css">
	.st0{fill:#231F20;stroke:#231F20;stroke-width:9;stroke-linecap:round;stroke-linejoin:round;}
</style>
<path class="st0" d="M100.9,69.6c1-6.4-0.8-12.9-4.8-18c-4.9-6.1-10.1-12-15.7-17.6c2.5-2.6,4.7-5.5,6.4-8.6
	c4.2-7.7,4.1-14.9-0.2-20.9c-0.7-1-2-1.2-3-0.5c-1,0.7-1.2,2-0.5,3V7c3.3,4.6,3.3,10.1,0,16.3c-1.6,2.8-3.5,5.4-5.7,7.7
	c-5.6-5.6-11.5-10.8-17.7-15.8c-9.9-8-24.4-6.4-32.3,3.4c0,0,0,0,0,0c-0.5,0.6-0.9,1.2-1.3,1.8c-0.6,0.9-0.4,2,0.3,2.7
	c0.1,0.1,0.2,0.2,0.3,0.3l2,1.3c-3.7,1.8-7.1,4.2-10,7.1C6.7,43.3,1.4,60,4.3,76.3c1.3,7.8,3.9,15.2,7.9,22c0.2,0.3,0.4,0.5,0.7,0.7
	c6.8,3.9,14.2,6.6,22,7.9c16.3,3,33-2.4,44.5-14.3c2.9-2.9,5.4-6.3,7.1-10c0.4,0.7,0.9,1.3,1.3,2c0.7,1,2,1.3,3,0.6c0,0,0,0,0,0l0,0
	C96.2,81.6,99.8,75.9,100.9,69.6z M55.4,101.9c-6.4,1.6-13.1,1.9-19.7,0.8c-7.1-1.2-13.9-3.5-20.2-7c-3.5-6.3-5.8-13.1-7-20.2
	c-1.1-6.5-0.9-13.3,0.7-19.7c2.2-7.9,6.4-15.1,12.4-20.9c3.1-3.2,6.9-5.7,11.1-7.3c19.7,13.9,36.9,31.1,50.8,50.8
	c-1.5,4.2-4,8-7.3,11.1C70.6,95.4,63.3,99.7,55.4,101.9z M90.1,80.3C74.4,56.9,54.3,36.8,30.8,21c6.5-7.8,18.2-9,26.1-2.6
	c13.2,10.6,25.2,22.6,35.8,35.8C99.1,62.2,98,73.8,90.1,80.3L90.1,80.3z"/>
</svg>
