<?xml version="1.0" encoding="UTF-8" standalone="no"?>
<svg
   width="509.96411"
   height="784.33972"
   viewBox="0 0 509.9641 784.3397"
   version="1.1"
   id="svg9"
   xmlns="http://www.w3.org/2000/svg"
   xmlns:svg="http://www.w3.org/2000/svg">
  <defs
     id="defs4">
    <style
       id="style2">
      .cls-1 {
        stroke: #222;
        stroke-width: 3px;
      }
    </style>
  </defs>
  <g
     id="acorn-logo"
     transform="translate(-56.760529,6.5960934)">
    <g
       id="Group_1057"
       data-name="Group 1057"
       transform="translate(57.265,-6.096)"
       style="fill:#ffffff;stroke:#ffffff;stroke-width:1;stroke-dasharray:none;stroke-opacity:1">
      <path
         id="Path_96"
         data-name="Path 96"
         class="cls-1"
         d="m 599.941,378.653 a 255.09,255.09 0 0 0 -82.8,-162.158 c -13.857,-12.526 -45.84,-30.089 -76.282,-41.378 a 459.476,459.476 0 0 0 -46.807,-14.811 c -11.3,-2.8 -20.467,-3.931 -28.433,-6.429 12.361,-14.437 107.4,-61.789 82.866,-127.9 C 439.057,0.552 435.707,0.1 412.942,14.186 380.7,34.141 321.474,68.865 304.421,153.877 A 255.751,255.751 0 0 0 91.54,378.656 a 48.387,48.387 0 0 0 48.071,53.532 h 2.289 v 110.447 a 203.8,203.8 0 0 0 106.515,179.092 349.194,349.194 0 0 1 78.9,58.858 25.986,25.986 0 0 0 36.836,0.015 344.219,344.219 0 0 1 78.914,-58.875 203.8,203.8 0 0 0 106.52,-179.091 V 432.187 h 2.285 a 48.352,48.352 0 0 0 48.071,-53.533 z M 418.225,676.079 A 397.479,397.479 0 0 0 345.74,726.664 397.613,397.613 0 0 0 273.254,676.079 151.868,151.868 0 0 1 193.861,542.632 V 432.185 h 303.755 v 110.449 0 A 151.864,151.864 0 0 1 418.225,676.079 Z M 143.674,380.22 A 203.211,203.211 0 0 1 352.21,202.611 c 0.482,0.015 0.962,0.031 1.444,0.051 A 203.14,203.14 0 0 1 547.808,380.22 Z"
         transform="translate(-91.265,-4.904)"
         style="fill:#ffffff;stroke:#ffffff;stroke-width:1;stroke-dasharray:none;stroke-opacity:1" />
    </g>
  </g>
</svg>
