<svg xmlns="http://www.w3.org/2000/svg" width="16.698" height="16.445" viewBox="0 0 16.698 16.445">
  <g id="circle-dashed" transform="translate(1.002 1.002)">
    <path id="Path_73" data-name="Path 73" d="M8.024,3.69A7.357,7.357,0,0,0,5.64,5.254" transform="translate(-3.485 -3.136)" fill="none" stroke="#4b4b4b" stroke-linecap="round" stroke-linejoin="round" stroke-width="2.25"/>
    <path id="Path_74" data-name="Path 74" d="M3.563,8.56A7.113,7.113,0,0,0,3,11.32" transform="translate(-3 -4.099)" fill="none" stroke="#4b4b4b" stroke-linecap="round" stroke-linejoin="round" stroke-width="2.25"/>
    <path id="Path_75" data-name="Path 75" d="M3.69,15.44a7.212,7.212,0,0,0,1.592,2.343" transform="translate(-3.127 -5.459)" fill="none" stroke="#4b4b4b" stroke-linecap="round" stroke-linejoin="round" stroke-width="2.25"/>
    <path id="Path_76" data-name="Path 76" d="M8.56,20.31a7.459,7.459,0,0,0,2.808.554" transform="translate(-4.021 -6.422)" fill="none" stroke="#4b4b4b" stroke-linecap="round" stroke-linejoin="round" stroke-width="2.25"/>
    <path id="Path_77" data-name="Path 77" d="M15.44,19.924a7.357,7.357,0,0,0,2.384-1.564" transform="translate(-5.285 -6.037)" fill="none" stroke="#4b4b4b" stroke-linecap="round" stroke-linejoin="round" stroke-width="2.25"/>
    <path id="Path_78" data-name="Path 78" d="M20.31,14.76A7.113,7.113,0,0,0,20.873,12" transform="translate(-6.179 -4.779)" fill="none" stroke="#4b4b4b" stroke-linecap="round" stroke-linejoin="round" stroke-width="2.25"/>
    <path id="Path_79" data-name="Path 79" d="M19.952,7.983A7.214,7.214,0,0,0,18.36,5.64" transform="translate(-5.821 -3.522)" fill="none" stroke="#4b4b4b" stroke-linecap="round" stroke-linejoin="round" stroke-width="2.25"/>
    <path id="Path_80" data-name="Path 80" d="M14.808,3.554A7.459,7.459,0,0,0,12,3" transform="translate(-4.653 -3)" fill="none" stroke="#4b4b4b" stroke-linecap="round" stroke-linejoin="round" stroke-width="2.25"/>
  </g>
</svg>
