<svg xmlns="http://www.w3.org/2000/svg" width="13.74" height="16.784" viewBox="0 0 13.74 16.784"><path d="M10.858,18.324,13.352,15.7H10.858ZM12.169,4.249a.419.419,0,1,1-.838,0V3.827H1.83V16.434h.411a.419.419,0,0,1,0,.838h-.5A.746.746,0,0,1,1,16.525V3.747A.746.746,0,0,1,1.747,3h9.676a.746.746,0,0,1,.747.747v.5ZM14.74,15.367a.415.415,0,0,1-.3.4l-3.674,3.864a.411.411,0,0,1-.32.153H4.317a.746.746,0,0,1-.747-.747V6.259a.746.746,0,0,1,.747-.747h9.676a.746.746,0,0,1,.747.747Zm-.834-.5V6.347H4.4V18.954h5.619V15.287a.419.419,0,0,1,.419-.419Z" transform="translate(-1 -3)"/></svg>