<!-- Generator: Adobe Illustrator 25.3.1, SVG Export Plug-In . SVG Version: 6.00 Build 0)  -->
<svg version="1.1" id="Layer_1" xmlns="http://www.w3.org/2000/svg" xmlns:xlink="http://www.w3.org/1999/xlink" x="0px" y="0px"
	 viewBox="0 0 27.2 27.2" style="enable-background:new 0 0 27.2 27.2;" xml:space="preserve">
<style type="text/css">
	.st0{fill:#959595;stroke:#959595;}
</style>
<path id="expand" class="st0" d="M23.6,18.8c0-0.4,0.4-0.7,0.8-0.7c0.4,0,0.7,0.3,0.7,0.7v5.3c0,0.4-0.3,0.7-0.7,0.7h-5.4
	c-0.4,0-0.8-0.3-0.8-0.7c0-0.4,0.3-0.8,0.7-0.8c0,0,0.1,0,0.1,0h3.5l-6.3-6c-0.3-0.3-0.3-0.7-0.1-1c0.3-0.3,0.7-0.3,1-0.1
	c0,0,0,0,0,0l6.4,6.1L23.6,18.8L23.6,18.8z M19,3.8c-0.4,0-0.7-0.3-0.7-0.7c0-0.4,0.3-0.7,0.7-0.7h5.3C24.6,2.3,25,2.6,25,3v5.4
	c0,0.4-0.4,0.7-0.8,0.7c-0.4,0-0.7-0.3-0.7-0.7V4.9l-6,6.3c-0.3,0.3-0.7,0.3-1,0.1s-0.3-0.7-0.1-1c0,0,0,0,0,0l6.1-6.4L19,3.8
	L19,3.8z M3.9,8.3c0,0.4-0.3,0.7-0.7,0.7c-0.4,0-0.7-0.3-0.7-0.7V3c0-0.4,0.3-0.7,0.7-0.7h5.4C9,2.3,9.3,2.6,9.3,3
	c0,0.4-0.3,0.7-0.7,0.7H5l6.3,6c0.3,0.3,0.3,0.7,0.1,1s-0.7,0.3-1,0.1c0,0,0,0,0,0L3.9,4.7L3.9,8.3L3.9,8.3z M8.5,23.4
	c0.4,0,0.7,0.4,0.7,0.8c0,0.4-0.3,0.7-0.7,0.7H3.2c-0.4,0-0.7-0.3-0.7-0.7v-5.4c0-0.4,0.3-0.7,0.7-0.7C3.6,18,4,18.3,4,18.7v3.5
	l6-6.3c0.3-0.3,0.7-0.3,1-0.1c0.3,0.3,0.3,0.7,0.1,1c0,0,0,0,0,0l-6.1,6.4L8.5,23.4L8.5,23.4z"/>
</svg>
