<svg xmlns="http://www.w3.org/2000/svg" width="33.377" height="23.265" viewBox="0 0 33.377 23.265">
  <defs>
    <style>
      .cls-1 {
        fill: #4d4d4d;
        stroke: #fff;
        stroke-linecap: round;
        stroke-linejoin: round;
        stroke-width: 1.6px;
      }
    </style>
  </defs>
  <path id="eye_4D4D4D" class="cls-1" d="M24.755,104.621a22.045,22.045,0,0,1,6.849,7.722l.173.314-.173.314a22.045,22.045,0,0,1-6.849,7.722,15.774,15.774,0,0,1-8.867,2.8,15.772,15.772,0,0,1-8.866-2.8A22.034,22.034,0,0,1,.173,112.97L0,112.657l.173-.314a22.034,22.034,0,0,1,6.849-7.722,15.772,15.772,0,0,1,8.866-2.8A15.774,15.774,0,0,1,24.755,104.621Zm-9.034,2.937a5.5,5.5,0,0,1,4.468,2.286,5.512,5.512,0,0,0-3.413-2.185,3.569,3.569,0,0,0-.6,1.985,3.446,3.446,0,0,0,3.387,3.5,3.29,3.29,0,0,0,1.653-.444c.008.121.012.244.012.368a5.511,5.511,0,1,1-5.511-5.511Zm4.472,2.29.06.085ZM20.257,109.942ZM20.657,110.619ZM20.707,110.721Zm.216.527.031.09C20.943,111.307,20.933,111.277,20.922,111.247ZM20.958,111.352ZM21.132,112.027Zm7.055.629a17.7,17.7,0,0,0-5.378-5.976,12.327,12.327,0,0,0-6.922-2.193,12.324,12.324,0,0,0-6.921,2.193,17.7,17.7,0,0,0-5.378,5.976,17.682,17.682,0,0,0,5.378,5.975,12.32,12.32,0,0,0,6.921,2.193,12.322,12.322,0,0,0,6.922-2.193A17.681,17.681,0,0,0,28.188,112.657Z" transform="translate(0.8 -101.024)"/>
</svg>
