<svg xmlns="http://www.w3.org/2000/svg" width="12.523" height="12.523" viewBox="0 0 12.523 12.523">
  <path id="four-corners-arrows-line" d="M8.281,6.475a.29.29,0,0,1,.579,0V8.548a.29.29,0,0,1-.29.29H6.465a.29.29,0,1,1,0-.579H7.848L5.372,5.919a.288.288,0,0,1,.394-.42L8.284,7.878V6.472ZM6.475.579a.29.29,0,1,1,0-.579H8.548a.29.29,0,0,1,.29.29V2.395a.29.29,0,1,1-.579,0V1.012L5.919,3.488a.288.288,0,0,1-.42-.394L7.878.576H6.472ZM.579,2.362a.29.29,0,1,1-.579,0V.29A.29.29,0,0,1,.29,0H2.395a.29.29,0,1,1,0,.579H1.012l2.476,2.34a.288.288,0,1,1-.394.42L.576.96V2.366Zm1.8,5.909a.29.29,0,1,1,0,.579H.306a.29.29,0,0,1-.29-.29V6.456a.29.29,0,1,1,.579,0V7.839l2.34-2.476a.288.288,0,0,1,.42.394L.976,8.275H2.382Z" transform="translate(6.258) rotate(45)"/>
</svg>
