<svg xmlns="http://www.w3.org/2000/svg" width="207.998" height="257.314" viewBox="0 0 207.998 257.314">
  <defs>
    <style>
      .cls-1 {
        fill: #9ddbcd;
      }

      .cls-2, .cls-3 {
        fill: none;
        stroke: #fff;
        stroke-linecap: round;
        stroke-width: 5px;
      }

      .cls-3 {
        stroke-linejoin: round;
      }
    </style>
  </defs>
  <g id="intro-screen-image-4" transform="translate(-856 -183)">
    <g id="_42" data-name="42" transform="translate(856 183)">
      <path id="Fill_227" data-name="Fill 227" class="cls-1" d="M58.347,257.314a2.662,2.662,0,0,1-1.239-.258,1.054,1.054,0,0,0-.492-.1c-.145,0-.3.015-.451.03s-.314.03-.467.03a1.8,1.8,0,0,1-.185-.009,13.626,13.626,0,0,1-5.548-1.48c-.237-.135-.472-.286-.7-.432a6.209,6.209,0,0,0-1.7-.862,7.244,7.244,0,0,1-1.335-.547,7.39,7.39,0,0,0-1.311-.541,4.439,4.439,0,0,1-1.479-.89c-.2-.154-.4-.313-.6-.453l-.271-.187a9.521,9.521,0,0,0-3.355-1.706,2.106,2.106,0,0,1-.6-.3,8.631,8.631,0,0,0-1.226-.64,9.336,9.336,0,0,1-1.067-.542c-.233-.145-.48-.278-.719-.408a6.264,6.264,0,0,1-1.492-1,6.429,6.429,0,0,0-.951-.738,3.877,3.877,0,0,1-1.5-1.506,2.974,2.974,0,0,0-.735-.857,4.189,4.189,0,0,1-.616-.645c-.067-.094-.131-.189-.2-.284a4.031,4.031,0,0,0-.983-1.119,1.727,1.727,0,0,1-.441-.577c-.062-.108-.125-.22-.2-.321a8.1,8.1,0,0,0-1.305-1.344,10.221,10.221,0,0,1-1.06-1.029c-.161-.19-.338-.369-.508-.542a7.792,7.792,0,0,1-.654-.722,3.4,3.4,0,0,0-.608-.566,4.016,4.016,0,0,1-.6-.542c-.372-.445-.76-.89-1.135-1.32a22.706,22.706,0,0,1-3.788-5.3.914.914,0,0,0-.492-.394c-.162-.076-.3-.142-.34-.259a1.5,1.5,0,0,0-.347-.533,2.282,2.282,0,0,1-.214-.267q-.283-.433-.569-.864c-.711-1.077-1.445-2.189-2.1-3.318-.03-.05-.063-.1-.1-.157a1.086,1.086,0,0,1-.241-1.02c.109-.269-.072-.465-.217-.623-.039-.042-.074-.08-.1-.116a5.485,5.485,0,0,1-.866-2.735,4.838,4.838,0,0,0-.242-.9c-.045-.133-.091-.27-.132-.408l.047-1.331a1.961,1.961,0,0,0-.5-1.911l-.1-.14a15.515,15.515,0,0,1-.854-1.459c-.166-.308-.335-.624-.516-.927-.492-.827-.975-1.714-1.434-2.636-.54-1.082-1.05-2.2-1.516-3.332a49.833,49.833,0,0,1-2.168-6.152c-.26-.98-.6-1.955-.936-2.9l-.162-.461c-.1-.282-.2-.566-.307-.841a13.185,13.185,0,0,1-.867-3.076c-.356-.236-.333-.558-.308-.9a1.186,1.186,0,0,0-.089-.7,4.395,4.395,0,0,1-.385-1.067c-.031-.114-.062-.232-.1-.345-.19-.649-.32-1.324-.446-1.976-.106-.546-.215-1.111-.358-1.658-.043-.165.017-.209.075-.253a.238.238,0,0,0,.064-.062.692.692,0,0,0,.037-.684,1.126,1.126,0,0,0-.208-.242c-.123-.119-.24-.231-.241-.378a.525.525,0,0,1,.194-.354,2.367,2.367,0,0,1-.222-.744,3.713,3.713,0,0,0-.1-.447,7.708,7.708,0,0,1-.262-1.956A5.528,5.528,0,0,0,.631,178.4a.205.205,0,0,1,0-.12l0-.026a11.981,11.981,0,0,0-.148-2.9,12.931,12.931,0,0,1-.169-2.7.858.858,0,0,1,.147-.358c.082-.137.154-.256.07-.349a.944.944,0,0,1-.192-.766c0-.065.007-.129.007-.193a1.02,1.02,0,0,0-.292-.769c-.114-.12-.023-.221.074-.329s.2-.223.07-.359a.729.729,0,0,1-.159-.632c0-.062.01-.126.009-.188,0-.461,0-.927,0-1.379.007-.849.013-1.725-.033-2.585a1.406,1.406,0,0,1,.107-.522.854.854,0,0,0,0-.817.984.984,0,0,0,.227-.948,2.19,2.19,0,0,1-.022-.433,3.972,3.972,0,0,0-.018-.627,2.064,2.064,0,0,1,.066-.97,3.4,3.4,0,0,0,.237-1.8,1.855,1.855,0,0,1,.167-.859,1.646,1.646,0,0,0,.148-.931.634.634,0,0,1,.112-.437,1.164,1.164,0,0,0,.094-.207,19.225,19.225,0,0,0,.655-2.81,22.136,22.136,0,0,1,1.24-4.4l.116-.325a18.2,18.2,0,0,1,1.32-2.974,45.418,45.418,0,0,1,3.418-5.347c.73-.939,1.507-1.955,2.236-3.022a16.836,16.836,0,0,1,1.794-2.088c.285-.3.577-.6.853-.909.24-.267.505-.52.761-.764a6.831,6.831,0,0,0,1.433-1.7,1.216,1.216,0,0,1,.948-.618l-.306-.366a2.175,2.175,0,0,0,.477-.437,1.607,1.607,0,0,1,.831-.59c.284-.068.391-.315.5-.576a1.317,1.317,0,0,1,.331-.523,9.1,9.1,0,0,0,1.056-1.082,5.554,5.554,0,0,1,1.915-1.614,2.262,2.262,0,0,1,1.341-1.31c.007-.419.277-.487.538-.554.21-.053.427-.108.507-.344.049-.027.073-.048.075-.067s-.015-.034-.037-.053a.172.172,0,0,1-.065-.2,2.2,2.2,0,0,0,.765-.594,3.468,3.468,0,0,1,.6-.531,4.192,4.192,0,0,0,.539-.434,2.744,2.744,0,0,1,1.035-.672,2.566,2.566,0,0,0,1.048-.9c.153-.183.309-.371.478-.539h.943c.028-.255.051-.471.074-.675l.006-.055V119.1a3.961,3.961,0,0,1,.753-.325,2.449,2.449,0,0,0,1.2-.707,2.248,2.248,0,0,1,.85-.561,2.585,2.585,0,0,0,.886-.572,3.852,3.852,0,0,1,1.353-.813l.05-.021a.754.754,0,0,1,.3-.052c.09,0,.182.008.28.017s.2.018.3.018A6.048,6.048,0,0,1,38.062,114a6.836,6.836,0,0,1,1.918-1.053,6.722,6.722,0,0,0,1.9-1.043,1.413,1.413,0,0,1,.662-.291,1.754,1.754,0,0,0,.488-.168c.741-.425,1.505-.838,2.244-1.238l.006,0c.992-.536,2.014-1.089,3-1.679a42.18,42.18,0,0,1,3.8-1.941l.033-.016.411-.193a11.054,11.054,0,0,0,2.429-1.594c1.141-.965,2.283-1.965,3.388-2.932q.632-.554,1.26-1.1c.588-.511,1.181-1.037,1.755-1.546l.014-.012c.967-.858,1.968-1.745,2.974-2.591,1.6-1.348,3.091-2.856,4.53-4.314.738-.748,1.5-1.52,2.27-2.264.925-.893,1.795-1.867,2.636-2.81.551-.617,1.12-1.255,1.7-1.865.9-.943,1.754-1.955,2.584-2.934.413-.487.841-.991,1.269-1.482,1.706-1.956,3.308-4.011,4.785-5.94,1.794-2.345,3.416-4.784,4.9-7.07.84-1.294,1.638-2.646,2.409-3.953.576-.976,1.171-1.985,1.779-2.963,1.281-2.058,2.627-4.116,3.891-6.033.471-.716.931-1.455,1.375-2.17.46-.74.936-1.506,1.425-2.246,1.371-2.074,2.549-3.8,3.842-5.461.264-.341.51-.7.749-1.054.278-.409.563-.829.879-1.22.089-.11.174-.232.257-.349a3.149,3.149,0,0,1,.628-.724,1.466,1.466,0,0,0,.422-.6,1.9,1.9,0,0,1,.274-.458c.482-.547.943-1.125,1.389-1.684.513-.644,1.042-1.307,1.606-1.928.523-.575,1.032-1.182,1.524-1.768.62-.74,1.26-1.5,1.937-2.214a3.942,3.942,0,0,1,.566-.463,3.563,3.563,0,0,0,.509-.413,3.515,3.515,0,0,0,.286-.361,1.783,1.783,0,0,1,.749-.689.708.708,0,0,0,.322-.395c.116-.238.236-.484.612-.518.127-.012.245-.226.369-.453a2.774,2.774,0,0,1,.252-.407,6.444,6.444,0,0,1,1.227-1.073,7.533,7.533,0,0,0,1.06-.882q.186-.2.372-.4a15.579,15.579,0,0,1,1.817-1.766c.608-.472,1.2-.988,1.763-1.487.624-.549,1.268-1.115,1.941-1.623.372-.281.733-.592,1.082-.894a9.258,9.258,0,0,1,2.64-1.794.44.44,0,0,0,.25-.366c.035-.146.066-.273.239-.273a.518.518,0,0,1,.11.013q.865-.6,1.728-1.2c1.449-1.008,2.948-2.051,4.437-3.06a16.2,16.2,0,0,1,1.8-1.01c.315-.159.641-.324.955-.5.37-.2.737-.427,1.093-.644a13.334,13.334,0,0,1,2.5-1.29,12.873,12.873,0,0,0,1.857-.878,9,9,0,0,1,2.749-1.111A1.875,1.875,0,0,1,147.8,8.5a2.359,2.359,0,0,0,.929-.446.3.3,0,0,1,.2-.088c.155,0,.293.156.384.26a15.221,15.221,0,0,1,3.638-1.793c.839-.273,1.671-.611,2.476-.937.763-.31,1.551-.629,2.342-.893l.065-.022a70.424,70.424,0,0,1,7.536-2.208L165.7,2.3c.909-.2,1.848-.4,2.8-.527a13.266,13.266,0,0,0,1.4-.3,12.379,12.379,0,0,1,1.562-.321.385.385,0,0,0,.177-.108c.057-.049.11-.095.159-.095h.012a2.569,2.569,0,0,0,.431.035A5.783,5.783,0,0,0,173.5.8a5.82,5.82,0,0,1,1.254-.186,2.5,2.5,0,0,1,.455.04,1.825,1.825,0,0,0,.329.029A3.9,3.9,0,0,0,176.548.51a3.88,3.88,0,0,1,1.009-.177c.061,0,.122,0,.181.008L178,.366h.011c.39.038.794.077,1.187.077A3.707,3.707,0,0,0,180.221.32a9.318,9.318,0,0,1,2.6-.32c.645,0,1.3.041,1.93.081.263.017.525.033.785.047l.636.031a27.167,27.167,0,0,1,2.765.226l.186.028a23.651,23.651,0,0,1,5.046,1.149,25.252,25.252,0,0,1,6.461,3.578,16.667,16.667,0,0,1,3.587,4.244,16.128,16.128,0,0,1,1.591,3.451,14.118,14.118,0,0,1,.455,1.743c.076.351.154.711.245,1.056.172.65.286,1.321.4,1.97a21.046,21.046,0,0,0,.427,2.086,9.77,9.77,0,0,1,.253,1.972c.008.133.016.265.025.4l0,.022a100.241,100.241,0,0,1,.358,10.129,2.618,2.618,0,0,1-.175.757A2.021,2.021,0,0,0,207.639,34a3.6,3.6,0,0,1-.015,1.745,4.032,4.032,0,0,0-.178,1.23,4.3,4.3,0,0,1-.116,1,6.475,6.475,0,0,0-.182,1.32,8.806,8.806,0,0,1-.094.914c-.1.544-.231,1.09-.362,1.618a12.882,12.882,0,0,0-.5,3.012,26.622,26.622,0,0,0-1.3,3.895,28.358,28.358,0,0,1-1.224,3.721c-.739,1.7-1.574,3.616-2.31,5.5-.29.741-.646,1.46-.991,2.156-.326.659-.663,1.34-.943,2.036a3.131,3.131,0,0,1-.577.835,3.646,3.646,0,0,0-.479.642,3.434,3.434,0,0,0-.266.812,4.085,4.085,0,0,1-.28.867,1.588,1.588,0,0,1-.944.943,1.334,1.334,0,0,1-.38,1.32,1.808,1.808,0,0,0-.44.864,4.29,4.29,0,0,1-.682,1.6c-.117.2-.238.4-.342.6-.154.3-.321.594-.482.881-.233.414-.473.843-.681,1.281-.322.682-.681,1.394-1.163,2.309a12.181,12.181,0,0,0-.653,1.589c-.08.224-.162.454-.248.678a6.576,6.576,0,0,1-.7,1.247,9.318,9.318,0,0,0-.537.876,8.635,8.635,0,0,0-.411.99,6.7,6.7,0,0,1-.563,1.257,12.623,12.623,0,0,0-.756,1.5c-.1.218-.2.442-.3.657a.34.34,0,0,0,.2.09.215.215,0,0,0,.159-.1c.043-.052.083-.1.144-.1h.008a.436.436,0,0,1,.147.338c-.02.175-.2.3-.352.4l-.006,0-.062.043a.527.527,0,0,0-.192.5.592.592,0,0,1-.1.415,1.705,1.705,0,0,0-.46.825,2.111,2.111,0,0,1-.2.649c-.036.084-.074.172-.106.262a.9.9,0,0,0-.038.26c-.01.209-.02.405-.332.405a.971.971,0,0,1-.112-.007.736.736,0,0,0-.127.614,1.275,1.275,0,0,1,0,.363,1.076,1.076,0,0,0-.723.873c-.114-.3-.178-.464-.239-.624l-.014-.037a.959.959,0,0,0-.543.637.8.8,0,0,0,.134.671.834.834,0,0,1,.013,1.069,1.837,1.837,0,0,0-.119.24c.043.185.195.239.341.291.188.067.366.131.254.479l-.023.005c-.721.163-1.467.331-1.427,1.342a2.015,2.015,0,0,0-.7,1.357,3.053,3.053,0,0,1-.351,1.008,4.087,4.087,0,0,0-.435,1.12,4.075,4.075,0,0,1-.518,1.269.955.955,0,0,0-.1.647,1.2,1.2,0,0,1-.1.737,2.955,2.955,0,0,0-.291.891,3.435,3.435,0,0,1-.294.926,2.365,2.365,0,0,0-.19.725,3.308,3.308,0,0,1-.189.776,2.1,2.1,0,0,0-.093.865c0,.138.007.28,0,.416l-.1.023-.075.016-.294.064a1.758,1.758,0,0,1-.071,1.505c-.057.157-.115.32-.156.481a7.136,7.136,0,0,1-.833,1.995,1.057,1.057,0,0,0-.08,1.186.431.431,0,0,1,.008.425c-.055.163-.106.318.128.428-.268.168-.265.45-.262.724,0,.3.006.619-.356.788-.158.073-.2.227-.249.39a.584.584,0,0,1-.264.415.529.529,0,0,1,.275.414.555.555,0,0,0,.243.4c-.4,1-.4,1-.869,1.253.313.528.56,1.1-.135,1.7-.181.157-.165.414-.149.686a1.03,1.03,0,0,1-.209.872l.007.005c.116.111.274.263.271.378a.108.108,0,0,1-.042.082.85.85,0,0,0-.248.752.814.814,0,0,1-.125.565,1.042,1.042,0,0,0-.2.854,2,2,0,0,1,.006.393,1.677,1.677,0,0,0,.048.535,1.331,1.331,0,0,1-.027.849,1.393,1.393,0,0,0-.071.591,1.135,1.135,0,0,1-.246.9c-.1.1-.019.189.067.278.1.108.221.229.067.417-.081.1-.024.214.036.335a.425.425,0,0,1-.062.6c-.215.2-.176.516-.138.824a2.486,2.486,0,0,1,.028.435c-.016.272-.013.55-.009.818v.007c0,.115,0,.231,0,.346.318-.048.318-.048.427-.145.13.065.144.174.161.3l.006.045a.891.891,0,0,1-.161.565.936.936,0,0,0-.165.638l.006.032a1.267,1.267,0,0,1-.137,1.078c-.11.146-.029.276.058.415a.522.522,0,0,1,.118.436.856.856,0,0,1-.155.273.616.616,0,0,0-.17.482,8.8,8.8,0,0,1-.137,2.479,8.527,8.527,0,0,0-.129,2.5.293.293,0,0,1-.173.081c-.072,0-.116-.058-.159-.114s-.079-.1-.139-.106a.317.317,0,0,1-.033.028c-.028.022-.059.046-.058.068a11.376,11.376,0,0,1-.173,2.319,10.392,10.392,0,0,0-.155,2.535,1.062,1.062,0,0,1-.086.449.711.711,0,0,0,.064.788c.114.136.034.286-.051.445-.1.195-.211.4.014.6a.945.945,0,0,0-.251.942,2.149,2.149,0,0,1,.017.427,7.913,7.913,0,0,0-.014.913c0,.134.006.272.006.408s-.01.3-.019.453a2.973,2.973,0,0,0,.047,1.007.726.726,0,0,1-.163.559.9.9,0,0,0-.168.41c0,.154.092.284.3.41a.887.887,0,0,0-.3.957,2.269,2.269,0,0,1,.018.391c-.029.373-.022.755-.015,1.124,0,.161.006.327.006.489s0,.3.009.452a6.854,6.854,0,0,1-.021,1.016c-.031.262-.088.526-.144.781a4.159,4.159,0,0,0-.135,1.594,2.007,2.007,0,0,1-.164,1.013,1.646,1.646,0,0,0-.114,1.136h-.445c.034-.973.124-1.964.21-2.921A30.17,30.17,0,0,0,175,150.3c-.069.089-.12.15-.154.19-.05.059-.068.08-.067.1a30.612,30.612,0,0,1-.2,4.781c-.062.667-.126,1.357-.171,2.043-.029.051-.08.061-.159.061h-.124a.845.845,0,0,0-.155.013,1.158,1.158,0,0,0-.091.578,1,1,0,0,1-.265.844c-.1.091-.009.4.136.654a.952.952,0,0,1-.289,1.386c-.167-.01-.165-.124-.163-.244s0-.233-.15-.258c-.352.3-.183.547-.019.789a.8.8,0,0,1,.175.374c-.017.24-.163.25-.3.259-.107.007-.207.013-.253.115.04.177.16.182.277.187a.448.448,0,0,1,.162.027,3.675,3.675,0,0,1-.126,2.589c-.091.246-.205.552-.337.965.11.417.423.473.754.534a1.932,1.932,0,0,1,.516.145c-.523.174-.439.473-.351.788.078.276.158.562-.179.776a1.341,1.341,0,0,1-.425-.355,1.657,1.657,0,0,0-.6-.472,2.052,2.052,0,0,1-.016.412.843.843,0,0,0,.215.826,1.034,1.034,0,0,1,.133,1.513.793.793,0,0,0-.064.45,1.934,1.934,0,0,1,0,.207l.48.173.01,0,.085.031c-.022.025-.043.052-.062.079-.04.054-.078.106-.119.11a1.364,1.364,0,0,1-.139.006c-.059,0-.118,0-.178-.005h-.009c-.056,0-.108,0-.159,0a.712.712,0,0,0-.364.073l-.033.019c-.163.1-.41.243-.427.439a.386.386,0,0,0,.17.313c.142.121.066.251-.007.377-.052.089-.1.173-.073.251.021.059.084.108.192.149,0,0,.007,0,.007.007s-.089.05-.225.1c-.073.026-.149.052-.2.076-.108.131-.013.25.08.364a.393.393,0,0,1,.128.266.273.273,0,0,1-.127.175.422.422,0,0,0-.186.505c.449,1.08-.029,1.832-.884,2.627-.013.013-.01.041-.006.07a.182.182,0,0,1,0,.073,1.826,1.826,0,0,1-.077.2l-.045.107c-.17-.329-.327-.629-.465-.894l0-.008c.06-.353.3-.455.564-.564a.929.929,0,0,0,.522-.384c-.019-.051-.038-.1-.056-.154a1.863,1.863,0,0,0-.546-.91c-.407.062-.388.31-.368.572a.727.727,0,0,1-.052.435l-.069.111a1.391,1.391,0,0,0-.3,1.061,4.12,4.12,0,0,1,.037,1.025c-.008.173-.016.351-.016.54a1.535,1.535,0,0,0-.2-.013,1.46,1.46,0,0,0-1.269.869c0,.394.27.5.528.609a1.321,1.321,0,0,1,.342.18.377.377,0,0,1-.349.192,1.82,1.82,0,0,1-1.232-.889c-.667.331-.488.748-.315,1.151a1.122,1.122,0,0,1,.144.7.31.31,0,0,1-.321.191c-.042,0-.088,0-.125-.006s-.089-.007-.132-.007a.309.309,0,0,0-.294.144c-.064.457.233.584.5.7a1.02,1.02,0,0,1,.29.16,1.687,1.687,0,0,0-.061.514.949.949,0,0,1-.154.632c.036.145.179.182.318.217.118.031.23.06.28.15a.36.36,0,0,1-.005.283.4.4,0,0,1-.287.163c-.156,0-.294-.15-.415-.282a1.113,1.113,0,0,0-.513.619,1.049,1.049,0,0,1-.541.624,1.137,1.137,0,0,1,1,1.509c.182.441.37.9-.272,1.324-.088-.047-.115-.156-.145-.272-.039-.154-.079-.313-.273-.313a.728.728,0,0,0-.264.064c-.143.244-.022.447.106.663a.907.907,0,0,1,.187.6,3.491,3.491,0,0,1-.285.873c-.058.135-.118.275-.169.419a.569.569,0,0,1-.21-.155.418.418,0,0,0-.262-.161.35.35,0,0,0-.242.142.394.394,0,0,0,.1.505.645.645,0,0,1,.189.469.417.417,0,0,1-.133.306,2.73,2.73,0,0,0-.71,1.217,4.694,4.694,0,0,1-.311.72,3.112,3.112,0,0,0-.2.466c-.158.427-.321.867-.923.959-.052.007-.118.16-.112.235a1.322,1.322,0,0,1-.26.776,1.756,1.756,0,0,0-.228.489,1.25,1.25,0,0,1-.364.574,1.176,1.176,0,0,0-.318.469,1.337,1.337,0,0,1-.48.6c-.2.167-.366.31-.358.5.012.293-.2.378-.389.452s-.381.151-.277.445a1.76,1.76,0,0,0-.909.613c-.074.076-.15.155-.228.228v1.141a1.043,1.043,0,0,1-.743.346,1.193,1.193,0,0,1-.558-.156.64.64,0,0,0-.184.626,1.011,1.011,0,0,1-.041.468l-.254.093-.282.1v.944c-.237.1-.4.161-.576.235a.633.633,0,0,0,.15.528c.148.236.3.479-.006.787a.105.105,0,0,1-.046.012c-.04,0-.067-.032-.1-.07l-.018-.021a.23.23,0,0,0-.181-.091h-.019a.922.922,0,0,1-.119.451.784.784,0,0,0,0,.866,1.331,1.331,0,0,1-.5.071c-.36.006-.732.011-.929.563v1.308a6.958,6.958,0,0,0-1.138.8,5.291,5.291,0,0,1-1.5.959c.053.157.163.173.291.191a.647.647,0,0,1,.229.063c0,.179-.141.289-.275.4-.15.12-.305.243-.256.462.078.347-.11.434-.31.525a1.033,1.033,0,0,0-.22.123c-.061.049-.119.1-.178.15a1.711,1.711,0,0,1-.758.453v.571a.347.347,0,0,1-.341.19h-.07c-.085,0-.17.007-.252.014l-.11.009a.829.829,0,0,0-.127.551,1.431,1.431,0,0,1-.094.6.86.86,0,0,1-.294.217.824.824,0,0,0-.554.845c.006.065-.105.106-.245.158a1.107,1.107,0,0,0-.44.245,10.606,10.606,0,0,1-.842.813,7.922,7.922,0,0,0-1.113,1.143,2.888,2.888,0,0,1-1.1.861,1.311,1.311,0,0,0-.533.662,2.579,2.579,0,0,1-.277.464,1.109,1.109,0,0,1-.43.279c-.264.119-.513.23-.54.609-.009.123-.123.133-.243.145a.331.331,0,0,0-.227.074,1.361,1.361,0,0,1-.351.274,1.166,1.166,0,0,0-.514.51,2.051,2.051,0,0,1-.882.8,2.81,2.81,0,0,0-.827.665,3.494,3.494,0,0,1-1.555,1.193,1.013,1.013,0,0,0-.467.482c-.155.254-.3.494-.652.494l-.068,0a4.706,4.706,0,0,1-1.1.976,5.562,5.562,0,0,0-.952.79,1.889,1.889,0,0,1-.919.621c-.083.022-.145.116-.2.207s-.14.213-.243.213c-.08,0-.171-.065-.279-.2a3.286,3.286,0,0,0-.2.293,1.14,1.14,0,0,1-.82.669c-.047.007-.062.064-.081.137a.444.444,0,0,1-.272.356,3.844,3.844,0,0,0-.9.563,3.842,3.842,0,0,1-.965.592,1.9,1.9,0,0,0-.588.308,7.03,7.03,0,0,1-2.245,1.62,10.491,10.491,0,0,0-1.553.952.969.969,0,0,0-.129.134.64.64,0,0,1-.187.17c-.324.162-.669.3-1,.428a6.4,6.4,0,0,0-1.8.938,9.179,9.179,0,0,1-2.651,1.4,2.522,2.522,0,0,0-.614.378,1.807,1.807,0,0,1-.795.417,2.738,2.738,0,0,0-1.483.972l-.284-.2-.231-.161c-.241.807-.935,1.084-1.607,1.351l-.134.054a6.934,6.934,0,0,0-.733.352,24.715,24.715,0,0,1-4.737,2.041,1.007,1.007,0,0,0-.283.163,1.636,1.636,0,0,1-.185.122,4.586,4.586,0,0,1-2.191.621c-.118,0-.238-.006-.355-.017-.035,0-.075-.005-.117-.005a11.836,11.836,0,0,0-3.571,1.008q-.687.347-1.372.7l-.007,0c-1.177.6-2.392,1.224-3.608,1.792-.947.443-1.94.823-2.9,1.191l-.744.286-.43.166a22.789,22.789,0,0,0-3.439,1.551.811.811,0,0,0-.6-.275,1.99,1.99,0,0,0-.661.164,2.9,2.9,0,0,1-.5.152c-.349.06-.491.333-.629.6s-.275.527-.613.575a.443.443,0,0,1-.225.067.678.678,0,0,1-.39-.181.671.671,0,0,0-.382-.18.342.342,0,0,0-.051,0c-.22.11-.209.279-.2.458a.575.575,0,0,1-.046.339.366.366,0,0,1-.241.108c-.121,0-.243-.084-.375-.258-.019-.032-.041-.048-.064-.048s-.076.037-.121.109a2,2,0,0,1-1.16.733c-.065.021-.13.04-.193.058a1.361,1.361,0,0,0-.674.345.7.7,0,0,1-.5.25.87.87,0,0,1-.6-.316l-.093.1a1.97,1.97,0,0,1-1.482.826c-.039,0-.079,0-.12,0h-.017a.723.723,0,0,0-.41.237l-.051.045a.9.9,0,0,1-.577.282.615.615,0,0,1-.167-.024.658.658,0,0,1-.593.327,1.109,1.109,0,0,1-.309-.047.565.565,0,0,0-.154-.025c-.184,0-.23.144-.278.3s-.1.334-.328.36a15.006,15.006,0,0,0-2.249.5c-.533.148-1.083.3-1.636.406a5.977,5.977,0,0,1-.619.072,2.6,2.6,0,0,0-1.508.448.186.186,0,0,1-.118.046.473.473,0,0,1-.268-.156.79.79,0,0,0-.194-.141l-.539.537-.016.016a1.086,1.086,0,0,0-.163-.011c-.1,0-.2.01-.295.019s-.205.02-.306.02a.808.808,0,0,1-.584-.205.22.22,0,0,0-.135-.071c-.051,0-.084.042-.116.083a.294.294,0,0,1-.066.069,6.091,6.091,0,0,1-2.093.717,11.131,11.131,0,0,0-1.162.289,4.188,4.188,0,0,1-1.184.149,3.321,3.321,0,0,0-1.177.171,3.228,3.228,0,0,1-1.261.2c-.114,0-.229,0-.343,0s-.231,0-.347,0a2.677,2.677,0,0,0-1.5.346,3.4,3.4,0,0,0-.518-.035c-.18,0-.362.01-.537.019S58.526,257.314,58.347,257.314Zm83.228-43.72h0a1.013,1.013,0,0,1,.291,1.039c-.012.093-.024.189-.027.281-.123.129-.249.254-.382.387-.275.274-.585.584-.972,1.023a5.355,5.355,0,0,0,2.821-2.355,8.3,8.3,0,0,1,1.078-1.3l.036.04a.55.55,0,0,0,.438.246.789.789,0,0,0,.146-.015,2.134,2.134,0,0,1,1.007-1.471,5.144,5.144,0,0,0,.641-.6l-.229-.26-.12-.136a7.771,7.771,0,0,1,.645-.691,4.873,4.873,0,0,0,1-1.239c.1-.189.444-.809.938-.843.789-.052,1.147-.591,1.474-1.187a.561.561,0,0,1,.391-.3c.038-.012.078-.025.119-.042.067-.028.1-.061.106-.1s-.031-.073-.094-.107a.373.373,0,0,0-.216-.055c-.044,0-.091,0-.128.007s-.091.008-.133.008a.309.309,0,0,1-.3-.154,1.051,1.051,0,0,0-.008-.111.3.3,0,0,1,.014-.189,2.167,2.167,0,0,1,.681-.565,2.123,2.123,0,0,0,.615-.493,2.083,2.083,0,0,0,.29-.69,1.776,1.776,0,0,1,.458-.895c.026-.023.05-.048.074-.073l.03-.03c.135.007.235.121.342.242s.238.271.414.271a.687.687,0,0,0,.433-.221c-.281-.3-.543-.576-.79-.837l-.326-.345a3.815,3.815,0,0,0-.6.543,1.911,1.911,0,0,1-1.053.7,1.035,1.035,0,0,0,.14.181.418.418,0,0,1,.143.484,2.6,2.6,0,0,0-.417.4,1.718,1.718,0,0,1-.759.583c-.159.049-.3.105-.273.25a.78.78,0,0,1-.3.714.9.9,0,0,0-.253.374,1.451,1.451,0,0,1-.527.759,3.266,3.266,0,0,0-.247.24,2.3,2.3,0,0,1-.883.68c-.191.076-.294.38-.394.675a3.871,3.871,0,0,1-.143.379.6.6,0,0,1-.409.287.635.635,0,0,0-.369.227.585.585,0,0,0-.007.3.41.41,0,0,1-.031.318.307.307,0,0,1-.235.083c-.317.01-.346.2-.374.382a.577.577,0,0,1-.068.232.618.618,0,0,1-.388.215c-.181.049-.352.1-.361.317a1.9,1.9,0,0,1-.532,1.129,2.909,2.909,0,0,0-.451.705l-.077-.072c-.216-.2-.4-.368-.578-.536-.273.307-.132.593-.007.844a2.078,2.078,0,0,1,.094.206.931.931,0,0,1-.677.269,3.055,3.055,0,0,1-.648-.1ZM55.188,186.97h0a2.408,2.408,0,0,1-.308.4,1.163,1.163,0,0,0-.23.315,19.413,19.413,0,0,0-.867,2.636c-.091.33-.185.667-.283,1a26.233,26.233,0,0,0-.868,3.6,11.1,11.1,0,0,1-.532,1.94,13.283,13.283,0,0,0-.477,1.622c-.077.377-.162.757-.245,1.124a19.2,19.2,0,0,0-.563,3.531,4.043,4.043,0,0,0,.178,1.146,3.237,3.237,0,0,1,.147,1.375,1.079,1.079,0,0,0,0,.293l0,.031c.009.085.019.182.125.182a.414.414,0,0,0,.156-.041c.058-1.137.136-2.14.237-3.064l.039-.359c.151-1.391.308-2.83.568-4.241a13.069,13.069,0,0,1,.462-1.875,6.211,6.211,0,0,0,.234-1.05,6.785,6.785,0,0,1,.206-.966l.025-.08c.518-1.636,1.053-3.328,1.492-5.021a6.362,6.362,0,0,1,.2-.614,3.509,3.509,0,0,0,.295-1.877ZM1.726,158.976a1.539,1.539,0,0,1-.231.359c-.219.282-.445.572-.036.972-.121.065-.185.128-.2.2-.014.084.057.163.126.239a.384.384,0,0,1,.131.224.555.555,0,0,1-.158.346.576.576,0,0,0-.167.415,1.217,1.217,0,0,1-.124.517.791.791,0,0,0,.126,1.019c.107.1.009.216-.105.347-.131.151-.279.322-.106.505.324.34.2.519-.021.842a.688.688,0,0,0-.082.34.584.584,0,0,1-.254.54,2.2,2.2,0,0,1,.3,1.7,3.866,3.866,0,0,0-.014.969,2.42,2.42,0,0,1,.019.365,1.023,1.023,0,0,0,.247.818,1.207,1.207,0,0,0-.357.871.806.806,0,0,0,.193.571.708.708,0,0,1,.149.839.868.868,0,0,0-.012.653,2.918,2.918,0,0,1,.2.945,4.558,4.558,0,0,0,.135.818,2.635,2.635,0,0,1,.042.9c-.009.136-.018.276-.018.412s.007.3.013.443a4.282,4.282,0,0,1-.036,1.02.67.67,0,0,0,.114.426c.115.224.224.435-.091.656l.045.109a2.33,2.33,0,0,1,.259,1.239,6.742,6.742,0,0,0-.014,1.165l.007.154a8.158,8.158,0,0,0,.229,1.8c.042.159.092.317.146.483a3.118,3.118,0,0,1,.21,1.728.43.43,0,0,0,.1.346.783.783,0,0,1,.087.162c.024.068.048.137.073.207a3.4,3.4,0,0,1,.291,1.386,2.623,2.623,0,0,0,.385,1.605,1.734,1.734,0,0,1,.238.982,1.973,1.973,0,0,0,.135.787,8.728,8.728,0,0,1,.7,2.337,9.422,9.422,0,0,0,.6,2.021,6.98,6.98,0,0,1,.639,2.771c-.006.137.115.235.244.34a.737.737,0,0,1,.325.443,16.938,16.938,0,0,0,1.215,3.916l.007.017.162.4a2.658,2.658,0,0,1,.041-.495c.062-.427.127-.869-.377-1.2-.195-.128-.184-.317-.174-.5,0-.054.006-.11,0-.163a3.028,3.028,0,0,1,.011-.347,1.193,1.193,0,0,0-.067-.655,10.9,10.9,0,0,1-.993-2.7c-.138-.512-.281-1.041-.465-1.547a2.92,2.92,0,0,1-.137-.8,2.2,2.2,0,0,0-.167-.828,18.4,18.4,0,0,1-1.112-3.192l-.081-.287c-.27-.957-.522-2.011-.729-3.047-.042-.213-.093-.434-.141-.647a6.508,6.508,0,0,1-.234-2.591l0-.019c.025-.142.059-.338-.01-.41a1.537,1.537,0,0,1-.287-1.375c.01-.091.021-.184.028-.273a2.079,2.079,0,0,0-.167-.856,2.207,2.207,0,0,1-.169-.785,10.218,10.218,0,0,0-.213-2.238,9.774,9.774,0,0,1-.134-1.677,8.613,8.613,0,0,0-.2-2.01,2.893,2.893,0,0,1-.035-.9c.009-.138.018-.28.018-.418,0-.119-.006-.242-.013-.361a2.935,2.935,0,0,1,.031-.809.931.931,0,0,0-.1-.56c-.08-.2-.155-.389-.041-.569a.76.76,0,0,0-.043-.883,2.1,2.1,0,0,1-.127-.271c-.051-.143.046-.232.14-.317l.046-.043a.584.584,0,0,0,.155-.431.364.364,0,0,0-.069-.237.956.956,0,0,1-.276-.894c0-.06.006-.121.007-.181,0-.1,0-.2-.009-.294a1.245,1.245,0,0,1,.263-1.038.981.981,0,0,1-.26-.965,1.778,1.778,0,0,0,0-.541,1.663,1.663,0,0,1,.052-.7,1.244,1.244,0,0,0-.051-.964,3.972,3.972,0,0,0,.263-2.375A7.388,7.388,0,0,1,1.726,158.976Zm9.7-6.445a9.245,9.245,0,0,0-.521,3.916c0,.249.006.5.005.748,0,.734.005,1.48.013,2.2.015,1.444.031,2.936-.034,4.4a45.547,45.547,0,0,0,.145,4.962c.087,1.316.176,2.675.168,4.016,0,.029,0,.057,0,.086a.789.789,0,0,0,.006.206c.033.159.075.318.116.472a3.836,3.836,0,0,1,.179,1.072c-.006.245,0,.5.01.738a7.162,7.162,0,0,1-.037,1.313,1.926,1.926,0,0,0,.159.955,2.067,2.067,0,0,1,.168.835,11.568,11.568,0,0,0,0,2.053,3.265,3.265,0,0,1-.028.68,1.583,1.583,0,0,0,.3,1.407.241.241,0,0,1,.031.156.185.185,0,0,1-.039.12c-.451.353-.289.7-.132,1.03a2.1,2.1,0,0,1,.141.353c.037.14.082.281.125.417a2.68,2.68,0,0,1,.183,1.37c-.007.037.043.086.1.137a.9.9,0,0,1,.067.069H12.6a.38.38,0,0,0,.39-.217c.092-.157-.01-.262-.129-.384a.571.571,0,0,1-.219-.416,26.747,26.747,0,0,0-.125-3.049c-.028-.356-.057-.724-.081-1.088-.041-.627-.119-1.264-.195-1.879a16.209,16.209,0,0,1-.163-3.866c0-.018,0-.037.007-.057.012-.085.026-.181-.013-.231a2.191,2.191,0,0,1-.285-1.717c.008-.074.016-.147.023-.219a3.038,3.038,0,0,0-.156-1.1,3.7,3.7,0,0,1-.159-.832c-.035-.95-.039-1.914-.044-2.848a50.641,50.641,0,0,0-.2-5.107,39.861,39.861,0,0,1-.094-5.183c.019-.753.039-1.531.039-2.3a2.221,2.221,0,0,0-.019-.245.78.78,0,0,1,.034-.479,2.414,2.414,0,0,0,.244-1.679A4.862,4.862,0,0,1,11.425,152.532Zm-5.63,5.311a4.245,4.245,0,0,1-.027,2.233,5.354,5.354,0,0,0-.156,1.31c.045,1.038.028,2.094,0,3.08a7.936,7.936,0,0,0,.165,1.558,8.2,8.2,0,0,1,.168,1.548c-.005.3-.018.6-.03.9a10.739,10.739,0,0,0,.253,3.537,3.988,3.988,0,0,1,.064,1.361,6.153,6.153,0,0,0-.012.974,6.147,6.147,0,0,1,.008.8,3.435,3.435,0,0,0,.211,1.6,3.3,3.3,0,0,1,.1,1.579c-.022.247-.044.5-.044.742,0,.167-.017.344-.033.516a2.1,2.1,0,0,0,.073,1.078,2.585,2.585,0,0,1,.194,1.2,2.847,2.847,0,0,0,.091.891,6.151,6.151,0,0,1,.252,2.236,1.559,1.559,0,0,0,.258.837,2.744,2.744,0,0,1,.2.426c.307-.339.162-.611.007-.9a1.05,1.05,0,0,1-.176-.548,20.411,20.411,0,0,0-.149-3.339,19.127,19.127,0,0,1-.131-3.58c0-.052.012-.106.019-.162a.88.88,0,0,0-.033-.56A2.541,2.541,0,0,1,6.8,175.4c.005-.062.011-.123.016-.185a3.326,3.326,0,0,0-.149-1.086,3.893,3.893,0,0,1-.149-.848l0-.181c-.044-1.626-.089-3.307.012-4.951a14.027,14.027,0,0,0-.164-2.615,14.333,14.333,0,0,1-.167-2.546c.055-1.036.039-2.091.024-3.112-.006-.373-.011-.758-.013-1.141,0-.031,0-.063,0-.1.011-.21.024-.448-.413-.794Zm10.284-6.922h0a2.629,2.629,0,0,1-.194.19c-.124.113-.229.209-.228.3a4.233,4.233,0,0,1-.185,1.135,4.126,4.126,0,0,0-.186,1.225c.058,1.32.046,2.664.035,3.965,0,.53-.009,1.076-.009,1.613,0,.432,0,.864,0,1.3-.005.972-.01,1.976.012,2.961.007.323.008.651.008.969v.007a14.971,14.971,0,0,0,.233,3.17,9.32,9.32,0,0,1,.148,1.747,9.78,9.78,0,0,0,.152,1.8,8.3,8.3,0,0,1,.116,1.715A7.765,7.765,0,0,0,16.146,175a8.314,8.314,0,0,1,.023,2.922,4.745,4.745,0,0,0,.163,1.54,5.1,5.1,0,0,1,.174,1.425,11.231,11.231,0,0,0,.856,4.327q.079.236.158.474a1.224,1.224,0,0,0,0-1.21,1.739,1.739,0,0,1-.159-.632,11.639,11.639,0,0,0-.229-2.385,11.052,11.052,0,0,1-.159-1.784,11.966,11.966,0,0,0-.149-1.76,9.864,9.864,0,0,1-.107-1.795,8.573,8.573,0,0,0-.189-2.2A5.573,5.573,0,0,1,16.4,172.6a5.6,5.6,0,0,0-.163-1.5,5.941,5.941,0,0,1-.02-2.334,3.172,3.172,0,0,0-.155-1.239,3.807,3.807,0,0,1-.17-.99c.022-4.535.021-8.98,0-13.213a3,3,0,0,1,.15-.821,2.357,2.357,0,0,0,.041-1.589Zm130.366-4.649h0c-.175.381-.36.759-.539,1.123a19.462,19.462,0,0,0-1.064,2.435c-.606,1.829-1.357,3.622-2.079,5.286-.083.191-.175.383-.264.569a6.358,6.358,0,0,0-.585,1.558,9.716,9.716,0,0,1-.611,1.9c-.056.141-.112.281-.167.422-.042.108-.09.218-.136.324a2.065,2.065,0,0,0-.214,1.672,4.267,4.267,0,0,0,1.1-1.543c.232-.585.452-1.182.664-1.76.323-.877.657-1.783,1.034-2.658l.072-.166c.8-1.86,1.634-3.784,2.273-5.736.068-.208.15-.422.23-.629a3.715,3.715,0,0,0,.287-2.8ZM113.9,34.409a1.831,1.831,0,0,0-.273.028l-.1.014c-.075.13-.148.264-.218.395a4.255,4.255,0,0,1-1.157,1.532,7.7,7.7,0,0,0-1.74,1.94,6.966,6.966,0,0,1-1.965,2.083,2.954,2.954,0,0,1-.973,1.628,6.382,6.382,0,0,0-.567.656c-.3.418-.589.853-.87,1.273-.428.641-.869,1.3-1.348,1.913-.508.65-.959,1.344-1.4,2.016-.181.279-.369.567-.558.848l-.2.3c-.567.847-1.154,1.722-1.785,2.533a16.078,16.078,0,0,0-1.183,1.847,16.859,16.859,0,0,1-1.118,1.763c-.084.111-.17.221-.256.332a5.705,5.705,0,0,0-1.258,2.26c-.015.069-.083.123-.155.18a.683.683,0,0,0-.142.135c-.2.287-.405.577-.605.856a24.594,24.594,0,0,0-1.411,2.122c-1.229,2.163-2.286,3.971-3.449,5.763a1.632,1.632,0,0,1-.109.143.737.737,0,0,0-.153.95c.074-.074.155-.143.234-.21a1.543,1.543,0,0,0,.418-.46,26.6,26.6,0,0,1,1.7-2.881c.334-.515.677-1.043.994-1.574.736-1.236,1.394-2.353,2.01-3.414.479-.825,1.043-1.619,1.588-2.387.506-.713,1.029-1.45,1.485-2.212.28-.468.6-.924.907-1.364a19,19,0,0,0,1.063-1.637,34.649,34.649,0,0,1,1.893-2.929c.532-.765,1.081-1.555,1.569-2.369a30.251,30.251,0,0,1,1.938-2.745c.327-.429.665-.871.983-1.313a26.9,26.9,0,0,1,3.16-3.839,2.361,2.361,0,0,0,.624-.917c.06-.163.227-.228.388-.291.223-.086.453-.176.419-.522a5.089,5.089,0,0,0,1-1.133,5.71,5.71,0,0,1,.867-1.024c.061-.052.1-.091.095-.131s-.023-.061-.069-.1A.565.565,0,0,0,113.9,34.409Zm7.569-2.036h0a.531.531,0,0,1-.158.369c-.145.193-.3.392.031.663-.138.136-.273.282-.4.423a5.047,5.047,0,0,1-.967.882,3.241,3.241,0,0,0-.775.762,5.021,5.021,0,0,1-.432.49c-.124.119-.258.235-.387.348a3.956,3.956,0,0,0-.926,1.015,4.514,4.514,0,0,1-.652.859,6.193,6.193,0,0,0-.473.573,10.437,10.437,0,0,1-1.072,1.286,8.206,8.206,0,0,0-.927,1.23l-.159.24a5.848,5.848,0,0,1-.405.515,6.655,6.655,0,0,0-.8,1.112,8.858,8.858,0,0,0,2.352-1.87,6.613,6.613,0,0,1,2.138-1.649,1.162,1.162,0,0,0,.047-.522.693.693,0,0,1,.067-.459l.631-.213.612-.207-.359-.359a1.94,1.94,0,0,0,.377-.372A1.029,1.029,0,0,1,119.6,37a.992.992,0,0,1,.257.037c0-.122,0-.234.007-.343a3.309,3.309,0,0,0-.015-.609.691.691,0,0,1,.341-.67l.054-.047a.28.28,0,0,1,.183-.081.459.459,0,0,1,.258.126.475.475,0,0,0,.26.129l.209-.723.283-.979c.127.034.155.142.184.257.04.154.081.313.366.313a1.016,1.016,0,0,0,.13-.009c-.1-.315.091-.481.3-.657a.846.846,0,0,0,.395-.653c-.057-.043-.112-.088-.168-.134a3.044,3.044,0,0,0-.4-.288.175.175,0,0,0-.088-.027c-.077,0-.136.067-.194.132s-.12.133-.2.133a.176.176,0,0,1-.071-.016.51.51,0,0,1-.071-.234c-.015-.114-.029-.221-.154-.28Z" transform="translate(0 0)"/>
    </g>
    <g id="priority_icon" transform="translate(914.093 311.231)">
      <path id="Path_40" class="cls-2" d="M39.839,12.1H12.8" transform="translate(20.52 22.061)"/>
      <line id="Line_5" class="cls-3" x1="32.745" y2="0.248" transform="translate(33.32 17.23)"/>
      <line id="Line_6" class="cls-3" x1="19.349" transform="translate(33.321 50.817)"/>
      <path id="Path_34" class="cls-2" d="M4.8,67.756V0" transform="translate(6.367)"/>
      <line id="Line_12" class="cls-3" x1="10.171" y1="11.163" transform="translate(10.919)"/>
      <path id="Path_33" class="cls-2" d="M.5,11.163,10.919,0" transform="translate(0)"/>
      <line id="Line_16" class="cls-3" x1="13.892" transform="translate(33.32 67.756)"/>
      <line id="Line_5-2" class="cls-3" x1="39.194" transform="translate(33.32)"/>
    </g>
    <g id="_3" data-name="3" transform="translate(879 183)">
      <path id="Fill_534" data-name="Fill 534" class="cls-1" d="M14.033,28.1a16.59,16.59,0,0,1-5.982-1,8.389,8.389,0,0,1-3.967-3.511c-.235-.36-.479-.724-.715-1.076-1.622-2.42-3.3-4.92-3.362-8.048C-.1,9.4,1.139,5.4,3.794,2.23A5.219,5.219,0,0,1,7.877,0a5.306,5.306,0,0,1,.814.065A3.254,3.254,0,0,1,11,1.858a5.926,5.926,0,0,1,.686,2.715,1.7,1.7,0,0,1-.675,1.207c-.106.1-.205.2-.292.306a12.617,12.617,0,0,0-2.2,4.889c-.162.568-.33,1.156-.522,1.724a.479.479,0,0,0,0,.4.744.744,0,0,0,.515.271,9.407,9.407,0,0,0,2,.241A4.685,4.685,0,0,0,14.5,11.615c.144-.193.293-.388.436-.576a13.652,13.652,0,0,0,1.849-2.9,2.393,2.393,0,0,0,.045-1.845c-.03-.085-.062-.169-.1-.259A1.761,1.761,0,0,1,16.568,4.7a1.239,1.239,0,0,1,.811-.573.267.267,0,0,0,.185-.148.5.5,0,0,0-.093-.406,1.734,1.734,0,0,1-.215-1.39,1.9,1.9,0,0,1,1.056-1.112,3.111,3.111,0,0,1,1.372-.3A4.858,4.858,0,0,1,22.6,1.84a3.788,3.788,0,0,1,1.533,2.55l0,.056a1.5,1.5,0,0,0,.17.7,9.465,9.465,0,0,1,1.351,5.083c.027.474.053.922.109,1.3A22.707,22.707,0,0,1,22.2,24.136a7.992,7.992,0,0,1-6.832,3.925C14.909,28.085,14.46,28.1,14.033,28.1Zm2.955-1.844a11.546,11.546,0,0,0-2.795.463c-.352.089-.716.18-1.076.257a6.365,6.365,0,0,0,1.453.173,6.109,6.109,0,0,0,3.074-.855A5.486,5.486,0,0,0,16.988,26.252Z" transform="translate(11.281 36.504)"/>
      <path id="Fill_536" data-name="Fill 536" class="cls-1" d="M11.95,27.574a8.034,8.034,0,0,1-5.366-1.726,5.017,5.017,0,0,1-.919-1.084c-.066-.094-.13-.188-.2-.279-.356-.493-.73-.989-1.092-1.469C2.534,20.571.629,18.044.2,14.822A19.354,19.354,0,0,1,2.584,2.2C3.463.7,4.483,0,5.794,0a3.847,3.847,0,0,1,.428.025A2.451,2.451,0,0,1,8.105.983a1.74,1.74,0,0,1-.735.331,1.084,1.084,0,0,0-.831.549.521.521,0,0,0,.325.114,1.152,1.152,0,0,0,.372-.085l.007,0a1.086,1.086,0,0,1,.348-.082.433.433,0,0,1,.091.009,2.8,2.8,0,0,0,.325.041c.288.026.586.053.666.235.066.15-.025.387-.28.723a.559.559,0,0,1-.043.048c-.037.038-.074.077-.067.116s.031.053.08.077a1.2,1.2,0,0,1,.681.648,1.515,1.515,0,0,1-.289,1.114,3.126,3.126,0,0,0-.26.569c-.062.214-.135.428-.2.636A5.878,5.878,0,0,0,7.9,7.762c-.028,1.307-.035,2.45-.022,3.495.016,1.174.153,1.515,1.036,1.515.162,0,.36-.012.622-.036a4.606,4.606,0,0,0,2.989-1.39,4.211,4.211,0,0,0,1.111-3.053,22.964,22.964,0,0,1,.8-5.846A2.392,2.392,0,0,1,16.386.478a2.722,2.722,0,0,1,.46-.037A3.691,3.691,0,0,1,20.034,2.2a24.484,24.484,0,0,1,1.827,6,29.075,29.075,0,0,1-.7,12.19,13.708,13.708,0,0,1-2.006,4.387,7.005,7.005,0,0,1-5.2,2.684A19.429,19.429,0,0,1,11.95,27.574Zm1.9-1.717a5.745,5.745,0,0,0-2.457.529,12.365,12.365,0,0,0,1.522.125,3.749,3.749,0,0,0,2.11-.559A7.642,7.642,0,0,0,13.852,25.857Z" transform="translate(52.224 22.646)"/>
      <path id="Fill_538" data-name="Fill 538" class="cls-1" d="M13.174,26.2a12.5,12.5,0,0,1-5.481-1.274,10.374,10.374,0,0,1-3.618-3.435A24.111,24.111,0,0,1,.418,13.005a13.629,13.629,0,0,1,1.3-9.869c.083-.168.163-.337.24-.5A4.7,4.7,0,0,1,3.753.3,2.1,2.1,0,0,1,4.837,0a4.189,4.189,0,0,1,1.4.313c.194.07.5.3.486.428a4.994,4.994,0,0,0,.435,2.336,4.455,4.455,0,0,1,.372,2.655c-.148.586-.241,1.2-.331,1.786q-.025.161-.049.322a3.17,3.17,0,0,0,.526,2.477,3.159,3.159,0,0,0,2.247,1.147,6.95,6.95,0,0,0,.748.042,4.934,4.934,0,0,0,4.141-2.031,11.818,11.818,0,0,0,2.093-4.442,2.291,2.291,0,0,1,2.309-1.908,3.075,3.075,0,0,1,.453.035c2.28.341,2.86.966,3.105,3.343,0,.029,0,.06.007.091a.61.61,0,0,0,.085.342,5.509,5.509,0,0,1,.964,3.68c.015.507.031,1.032.089,1.577A17.144,17.144,0,0,1,20.372,23.2a7.085,7.085,0,0,1-4.214,2.654A13.737,13.737,0,0,1,13.174,26.2Zm-.083-1.622a11.269,11.269,0,0,0-2.074.174,4.559,4.559,0,0,0,2.014.417,4.121,4.121,0,0,0,2.136-.507l-.277-.016C14.275,24.608,13.693,24.575,13.092,24.575Z" transform="translate(40.109 59.484)"/>
      <path id="Fill_540" data-name="Fill 540" class="cls-1" d="M10.041,26.079a7.343,7.343,0,0,1-5.7-2.691,8.3,8.3,0,0,1-2.077-4.252,1.84,1.84,0,0,0-.331-.734L1.9,18.34A11.785,11.785,0,0,1,0,12.084,15.067,15.067,0,0,1,1.493,5.75c.692-1.519,1.712-2.322,2.949-2.322a4.224,4.224,0,0,1,2.473.947l.051.038c.22.162.494.364.445.67-.042.256-.213.278-.384.278H6.865a.634.634,0,0,0-.2.025c-.045.015-.093.028-.141.041-.215.058-.437.117-.4.4.03.257.214.279.4.279h.125a.972.972,0,0,1,.112.005l.048,0c.435.044.885.09,1.053.6.121.371-.112.505-.358.647a1.172,1.172,0,0,0-.373.287,1.194,1.194,0,0,1,.808.548,1.254,1.254,0,0,1-.206.987,1.822,1.822,0,0,0-.246.737,1.141,1.141,0,0,1-.094.384c-.1.263-.2.535.074.8a1.026,1.026,0,0,0,.737.3,1.734,1.734,0,0,0,.638-.139,6.118,6.118,0,0,0,3.77-4.735c.168-.787.393-1.569.611-2.325s.44-1.527.606-2.306A2.442,2.442,0,0,1,16.311,0a2.964,2.964,0,0,1,.653.074,3.421,3.421,0,0,1,2.974,3.077c.09.688.217,1.379.339,2.047a20.482,20.482,0,0,1,.471,4.293,22.346,22.346,0,0,1-4.754,13.691A7.542,7.542,0,0,1,10.041,26.079Zm-.344-1.6a2.242,2.242,0,0,0-.989.2l.285.074a4.21,4.21,0,0,0,1.047.186A1.476,1.476,0,0,0,11,24.6c-.14-.014-.283-.032-.42-.05A7.061,7.061,0,0,0,9.7,24.477Z" transform="translate(86.855 6.428)"/>
      <path id="Fill_542" data-name="Fill 542" class="cls-1" d="M9.564,21.963a3.838,3.838,0,0,1-1.18-.257,4.616,4.616,0,0,0-1.1-.263.5.5,0,0,1-.471-.539.321.321,0,0,1,.2-.215H7.01a1.9,1.9,0,0,0,.292.028.348.348,0,0,0,.307-.111c.065-.1.054-.253-.034-.484a1.657,1.657,0,0,1-.062-.227c-.048-.217-.1-.441-.362-.516a.549.549,0,0,0-.145-.023c-.2,0-.211.178-.223.35s-.026.351-.221.351H6.531a.184.184,0,0,1-.106.054c-.094,0-.1-.2-.1-.388s-.006-.387-.1-.387-.206.137-.4.419a.638.638,0,0,0-.055-.038.237.237,0,0,1-.1-.091,5.591,5.591,0,0,0-1.24-1.671A7.094,7.094,0,0,1,3.36,16.627c-.213-.368-.45-.731-.68-1.081a12.122,12.122,0,0,1-1.2-2.141A19.467,19.467,0,0,1,.329,2.474C.634.856,1.537,0,2.943,0a4.085,4.085,0,0,1,.774.079,1.738,1.738,0,0,1,1.327.945c.167.359.353.72.533,1.068.807,1.564,1.641,3.181,1.052,5.171a2.5,2.5,0,0,0,.74,2.172,1.09,1.09,0,0,0,.813.45,1.065,1.065,0,0,0,.482-.128l.1-.051a7.466,7.466,0,0,0,2.79-2.017c.324-.427.691-.833,1.046-1.226.238-.263.483-.534.713-.809a5.652,5.652,0,0,0,1.1-3.3c.1-1.31.762-2.093,1.768-2.093a2.732,2.732,0,0,1,1.113.269,2.9,2.9,0,0,1,1.582,1.395c.142.331.289.664.431.986A21.562,21.562,0,0,1,20.847,7.2a21.207,21.207,0,0,1,.405,5.505,3.952,3.952,0,0,1-.244,1.037,3.253,3.253,0,0,0-.243,1.315.323.323,0,0,1-.1.2.846.846,0,0,1-.455.292.942.942,0,0,0-.775.569,1.684,1.684,0,0,1-.312.4.65.65,0,0,0,.33.106.778.778,0,0,0,.461-.216l.038-.029a.952.952,0,0,1,.6-.245H20.6a5.345,5.345,0,0,0-1.836,2.524c-.213.583-1.005.959-1.642,1.262l-.241.115a17.687,17.687,0,0,1-7.266,1.921Zm1.817-2.818h0a3.781,3.781,0,0,1-.045.485c-.047.351-.091.682.056.85a.364.364,0,0,0,.292.109h.039l.186-.008a2.018,2.018,0,0,0,1.9-.845,1.113,1.113,0,0,0-.335-.048,2.937,2.937,0,0,0-.622.091l-.016,0a2.767,2.767,0,0,1-.58.087C11.847,19.87,11.577,19.646,11.381,19.145Zm4.13-4.635a.806.806,0,0,0-.092.005.266.266,0,0,0-.208.111.7.7,0,0,0,.047.54.514.514,0,0,0-.085.5.425.425,0,0,0,.362.224c.035,0,.067.005.1.005a.247.247,0,0,0,.209-.069c.053-.072.018-.188-.019-.311a.729.729,0,0,1-.046-.243c.011-.134.042-.194.1-.194a.323.323,0,0,1,.124.044.551.551,0,0,0,.14.055.513.513,0,0,0,.093.009.188.188,0,0,0,.2-.124.261.261,0,0,0-.1-.272A1.6,1.6,0,0,0,15.511,14.51Z" transform="translate(0 75.102)"/>
      <path id="Fill_544" data-name="Fill 544" class="cls-1" d="M7.71,23.854a.221.221,0,0,1-.19-.076c-.105-.138-.025-.468.082-.853-.307.6-.57.864-.853.864a.954.954,0,0,1-.658-.414.98.98,0,0,0-.669-.256c-.091-.011-.185-.023-.273-.042-.6-.134-.678-.263-.661-1.054,0-.169-.081-.2-.178-.226a.774.774,0,0,1-.091-.033,3.364,3.364,0,0,1-2-3.315c0-.1,0-.216.01-.335A1.639,1.639,0,0,0,2,16.906a1.033,1.033,0,0,0-.786-.262c-.042,0-.085,0-.13,0H1.065c-.16,0-.208-.11-.26-.227l-.021-.047a7.813,7.813,0,0,1-.75-4.1,9.815,9.815,0,0,1,1.34-3.937A3.241,3.241,0,0,1,4.15,6.864a2.927,2.927,0,0,1,.972.159A2.05,2.05,0,0,1,6.2,8a.338.338,0,0,1,0,.315c-.111.2-.443.278-.7.312a.253.253,0,0,0-.2.1c-.067.106-.014.27.033.416l.007.02c.082.252.23.38.439.38a.772.772,0,0,0,.265-.054,1.844,1.844,0,0,1,.593-.147.31.31,0,0,1,.244.092c.113.125.139.378.09.876-.054.543.5.837,1.042,1.122a5.422,5.422,0,0,1,.5.286.35.35,0,0,0,.195.069c.276,0,.436-.457.522-.7a.866.866,0,0,1,.4-.511c1.74-.891,2.013-2.572,2.276-4.2q.021-.132.043-.263c.06-.362.1-.742.134-1.109a13.45,13.45,0,0,1,.177-1.337c.1-.513.25-1.05.39-1.571.073-.27.148-.547.216-.818A1.685,1.685,0,0,1,14.806,0c.135,0,.283,0,.468.015a7.194,7.194,0,0,1,1.614.349l.327.1c.154.044.386.265.372.383a2.14,2.14,0,0,0,.338,1.213,1.815,1.815,0,0,1,.237,1.649c-.122.285.266.851.523,1.225l0,.005c.242.351.364.527.32.656s-.276.216-.715.361c.555.235,1.081.539,1.175,1.152.041.268-.126.3-.32.34a.676.676,0,0,0-.41.186.987.987,0,0,1,.82.338,1.414,1.414,0,0,1,.047,1.24,5.357,5.357,0,0,0-.078,2.034,7.055,7.055,0,0,1,.031,1.478c-.039.323-.094.654-.147.974-.074.443-.149.9-.186,1.349-.017.2-.062.295-.144.295s-.209-.11-.337-.227l-.049-.044a.83.83,0,0,0-.462-.271l-.033,0a.449.449,0,0,0-.147.374.379.379,0,0,0,.224.26,1.553,1.553,0,0,0,.287.1c.248.067.5.137.475.427s-.148,1.234-.515,1.395A1.263,1.263,0,0,0,17.9,18.9c.005.034.01.066.014.1a.826.826,0,0,1-.073.625.287.287,0,0,1-.23.088,1.759,1.759,0,0,1-.432-.086,1.561,1.561,0,0,0-.42-.066c-.418,0-.67.239-.772.731-.1.474-.441.625-.8.786a1.567,1.567,0,0,0-.7.476,5.207,5.207,0,0,1-.341.413,1.849,1.849,0,0,0-.639,1.4c-.719-.087-.773-.521-.83-.98a1.554,1.554,0,0,0-.233-.766c-.147,1.819-1.4,1.944-2.62,2.065l-.337.035a1.627,1.627,0,0,1-.18.009c-.125,0-.252-.011-.376-.022s-.249-.021-.367-.021a1.1,1.1,0,0,0-.407.064A1.314,1.314,0,0,1,7.71,23.854Zm.55-1.912c-.067,0-.228.127-.336.291a.444.444,0,0,0-.083.41.9.9,0,0,0,.7.432.212.212,0,0,0,.141-.041,2.546,2.546,0,0,1,1.52-.492,3.169,3.169,0,0,0,1.356-.349,1.222,1.222,0,0,0-.827-.251c-.231-.012-.431-.022-.532-.148a.819.819,0,0,0-.619-.382,1.234,1.234,0,0,0-.632.267,1.236,1.236,0,0,1-.626.267.521.521,0,0,1-.058,0Zm.793-4.325c-.429,0-.892.049-.961.634a.491.491,0,0,0,.073.391.622.622,0,0,0,.467.119.956.956,0,0,1,.384.054.577.577,0,0,0,.254.057,1.269,1.269,0,0,0,.377-.077l.011,0A1.168,1.168,0,0,1,10,18.717a.43.43,0,0,1,.144.023.887.887,0,0,0,.285.054.485.485,0,0,0,.456-.312c.149-.3-.023-.541-.19-.771a2.2,2.2,0,0,1-.149-.223.26.26,0,0,0-.233-.159.791.791,0,0,0-.353.138c-.033.019-.064.037-.094.053a1.13,1.13,0,0,0-.141.1.509.509,0,0,1-.292.136.435.435,0,0,1-.281-.134ZM7.632,13.46h0A.9.9,0,0,0,7,13.7a.634.634,0,0,0-.214.446.594.594,0,0,0,.181.428.665.665,0,0,0,.463.121,4.413,4.413,0,0,0,1.5-.34l.036,0a.706.706,0,0,0,.4-.218,3.307,3.307,0,0,1-.44.215c-.1-.018-.181-.1-.273-.28a1.179,1.179,0,0,0-1.034-.61Zm2.151.287c-.17.175-.3.3-.4.389A.9.9,0,0,0,9.783,13.748Z" transform="translate(75.559 43.877)"/>
      <path id="Fill_546" data-name="Fill 546" class="cls-1" d="M10.645,20.5a4.971,4.971,0,0,1-.576-.034,2.468,2.468,0,0,1-1.1-.479,4.594,4.594,0,0,0-.477-.287c-.44-.219-.892-.434-1.328-.641A29.99,29.99,0,0,1,3.2,16.92a8.47,8.47,0,0,1-2.5-3.629,6.8,6.8,0,0,1-.5-4.524,3.94,3.94,0,0,1,3.069-2.8,2,2,0,0,1,.4-.046c.621,0,.922.412.977,1.335a2.033,2.033,0,0,0,.853-1.265A16.991,16.991,0,0,1,6.864,2.42,4.492,4.492,0,0,1,10.12.059,2.09,2.09,0,0,1,10.6,0a1.164,1.164,0,0,1,.969.441,1.263,1.263,0,0,1,0,1.472,7.2,7.2,0,0,0-.47,1.094c-.075.2-.152.412-.244.64a2.905,2.905,0,0,0,1.479-.824c.091-.081.178-.157.268-.231a1.6,1.6,0,0,1,.969-.431c.482,0,.824.391.992,1.132l.017.076c.108.485.167.752.849.891.529.108.75.7.964,1.268.073.2.142.379.223.545a12.845,12.845,0,0,1,1.242,6.447,8.391,8.391,0,0,1-1.2,3.943,9.832,9.832,0,0,1-2.9,2.952A5.4,5.4,0,0,1,10.645,20.5Zm3.786-3.227a3.629,3.629,0,0,0-1.947,1.652,3.168,3.168,0,0,1,.668-.361A1.809,1.809,0,0,0,14.431,17.271Z" transform="translate(30.316 11.578)"/>
      <path id="Fill_548" data-name="Fill 548" class="cls-1" d="M4.492,5.341C5.192,3.754,5.51,2.115,6.745.958A2.7,2.7,0,0,1,7.323.441C7.855.184,8.531-.233,8.992.164c.4.345.333,1.073.13,1.665-.1.285-.462.675-.045.885.353.177.555-.28.78-.515.13-.136.227-.3.363-.432.254-.237.377-.751.856-.562a1.114,1.114,0,0,1,.776.9c.052.435.048.84.726.546.345-.15.586.3.773.55,2.064,2.791,2.491,5.678-.191,8.523-.821.869-1.663,1.717-2.495,2.576a1.372,1.372,0,0,1-1.566.269c-.625-.222.049-.729-.23-1.136-.636,1.023-1.248.887-2.062.149a1.832,1.832,0,0,0-2.059-.646c-.35.141-1.015-.248-1.423-.548A7.483,7.483,0,0,1,0,6.3a2.341,2.341,0,0,1,1.358-2.4,1.726,1.726,0,0,1,.617-.156c.477,1.072,1.866.644,2.517,1.6" transform="translate(62.579 0)"/>
    </g>
  </g>
</svg>
