<?xml version="1.0" encoding="utf-8"?>
<!-- Generator: Adobe Illustrator 24.0.1, SVG Export Plug-In . SVG Version: 6.00 Build 0)  -->
<svg version="1.1" id="Layer_1" xmlns="http://www.w3.org/2000/svg" xmlns:xlink="http://www.w3.org/1999/xlink" x="0px" y="0px"
	 viewBox="0 0 500 500" style="enable-background:new 0 0 500 500;" xml:space="preserve">
<style type="text/css">
	.st0{fill:none;stroke:#000000;stroke-width:23;stroke-miterlimit:10;}
	.st1{stroke:#000000;stroke-width:8;stroke-miterlimit:10;}
	.st2{stroke:#000000;stroke-width:8;stroke-miterlimit:9.9994;}
	.st3{stroke:#000000;stroke-width:8;stroke-miterlimit:10.0006;}
	.st4{stroke:#000000;stroke-width:9;stroke-miterlimit:10;}
</style>
<image style="display:none;overflow:visible;enable-background:new    ;" width="34" height="33" xlink:href="8CDAC53712DE8D77.png"  transform="matrix(17.8248 0 0 17.2964 -47.827 -32.5984)">
</image>
<image style="display:none;overflow:visible;opacity:0.84;enable-background:new    ;" width="102" height="102" xlink:href="8CDAC53712DE8D75.png"  transform="matrix(5.9945 0 0 5.9945 -50.5222 -55.7175)">
</image>
<image style="display:none;overflow:visible;enable-background:new    ;" width="85" height="85" xlink:href="8CDAC53712DE8D7B.png"  transform="matrix(5.9945 0 0 5.9945 -5 -9.6814)">
</image>
<g>
	<path class="st0" d="M112,166.1c18.5,24.6-0.2,67-41.8,94.9"/>
	<path class="st0" d="M16.7,153.6c0-76.8,53.8-139,120.3-139"/>
	<path class="st0" d="M281.4,145.2C281.4,73,216.8,14.5,137,14.5"/>
	<path class="st0" d="M44.6,431C6.5,369.1,19.9,291.8,74.5,258.2"/>
	<path class="st0" d="M156.4,460.8c-40.6,22.2-91,8.3-112.5-31.1"/>
	<path class="st0" d="M273.6,101.9c21.4,48.6-2.5,106.2-53.5,128.6"/>
	<path class="st0" d="M116.4,174.3c-9.7-28.3-54.3-37.4-99.7-20.3"/>
	<path class="st0" d="M202.3,471.4c-8.5-15.3-29.4-19.8-46.7-10.2"/>
	<line class="st0" x1="207.7" y1="476.4" x2="388.3" y2="476.4"/>
	<ellipse transform="matrix(0.941 -0.3385 0.3385 0.941 -50.4767 14.6459)" class="st1" cx="16.8" cy="152.1" rx="8" ry="9.9"/>
	<path class="st0" d="M138.8,388.4c-18.7-70.2,16.3-140.5,78.3-157"/>
	<ellipse transform="matrix(0.974 -0.2264 0.2264 0.974 -84.4601 41.571)" class="st2" cx="139" cy="389" rx="7.3" ry="6.4"/>
	<path class="st0" d="M237.2,223c-2.5,1.8-13.4,6.1-24.7,9.8"/>
	
		<ellipse transform="matrix(0.7821 -0.6232 0.6232 0.7821 -251.2446 230.6122)" class="st3" cx="204.1" cy="474.5" rx="7.7" ry="10.3"/>
	<path class="st0" d="M390,476.4c2.9-21.6-14.2-41.7-38-44.8"/>
	<path class="st0" d="M380.6,329.6c20,30.5,8,75.6-26.6,100.6"/>
	<path class="st0" d="M475.1,282.9c-3.8-29.9-31.1-50.9-60.9-47.1"/>
	<path class="st0" d="M482.6,148.8c-0.4-39.9-49.9-71.7-110.7-71.1"/>
	<path class="st0" d="M442.7,184.4c25.5-5.6,43.1-23.8,39.4-40.6"/>
	<ellipse class="st1" cx="389.4" cy="476.4" rx="7.8" ry="7.3"/>
	<line class="st0" x1="310.2" y1="174.3" x2="309.9" y2="76.9"/>
	<path class="st0" d="M371.4,78.2c0-32.7-15.6-59.1-34.7-59.1"/>
	<path class="st0" d="M309.9,79.3c0-33.3,11.9-60.2,26.8-60.2"/>
	<path class="st0" d="M309.9,171.2c4.4,22.4-37.4,49.3-93.3,60.3"/>
	<line class="st0" x1="444.7" y1="184" x2="411.4" y2="190.1"/>
	<path class="st0" d="M455.8,291.9c-10.1-13.7-36.5-12.5-59.1,2.7"/>
	<path class="st0" d="M464.8,294.5c7.1-2.4,11.6-8.2,10-12.9"/>
	<path class="st0" d="M452.6,288.8c5.8,6.3,13.3,7.6,16.6,3"/>
	<ellipse transform="matrix(0.8 -0.6 0.6 0.8 -188.399 297.4112)" class="st4" cx="351.9" cy="431.3" rx="6.9" ry="7.5"/>
	<path class="st0" d="M392.8,199.3c-0.2,20.1,9.4,36.4,21.4,36.5"/>
	<path class="st0" d="M412.6,189.9c-11.8,2.6-20.7,7.4-20,10.8"/>
	<path class="st0" d="M398,293.7c-16.8,11.3-22.9,30.5-13.6,42.9"/>
	<circle class="st1" cx="413.8" cy="235.9" r="7.3"/>
	<circle class="st1" cx="371.4" cy="77.7" r="7.3"/>
</g>
</svg>
