<svg id="Layer_1" data-name="Layer 1" xmlns="http://www.w3.org/2000/svg" viewBox="0 0 35.44 45.02"><title>trunk</title><path d="M68.4,58.18l-.4-.52-.36-.57A11.87,11.87,0,0,1,67.1,56c-.35-.84-.67-1.89-1-2.93-.62-2.09-1.12-4.27-1.65-6.48s-1.08-4.44-1.82-6.75c-.7-2.12-1.5-4.19-2.4-6.23s-1.64-3.63-2.34-5.18A63.69,63.69,0,0,1,55,21.2c-.26-.84-.36-1.25-.52-1.87l-.21-.8L50.17,20,40.4,21.22l.15.78c.09.47.26,1.23.4,2s.33,1.86.52,3.08.35,2.57.51,4.07a93.57,93.57,0,0,1,.48,10.32,95.07,95.07,0,0,1-.84,11.43,14.27,14.27,0,0,1-2.39,1.85c-1,.59-2,1.15-3.18,1.74-.32.16-.64.34-.95.51.09.4.19.8.29,1.2.16.19.44.54.45.54.21.23.44.45.66.67,1,.93,2,1.79,2.85,2.78L39.9,62l.76-.28A12.11,12.11,0,0,0,42.31,61a7.19,7.19,0,0,0,.86-.58,4.78,4.78,0,0,0,.45-.39c.16-.16.26-.25.37-.37.51-.56,5.76-2,6.39-.36s.51,1.6.64,1.9a23.54,23.54,0,0,0,1.32,2.35q2-.13,3.93-.36a26.15,26.15,0,0,1-1.46-3.51,2,2,0,0,1-.2-1.15c.06-.74,6.53-1,7.27.2a15.77,15.77,0,0,0,1.29,1.75l.71.76c.26.25.51.49.78.71,2-.47,3.94-1.17,5.87-1.81A14.65,14.65,0,0,1,68.4,58.18Z" transform="translate(-35.1 -18.53)"/></svg>