<svg id="Layer_1" data-name="Layer 1" xmlns="http://www.w3.org/2000/svg" viewBox="0 0 15.69 15.69"><defs><style>.cls-1{fill:#a3a3a3;}.cls-2{fill:none;stroke:#a3a3a3;stroke-linecap:round;}</style></defs><title>activity_history</title><g id="activity_history_icon" data-name="activity history icon"><path id="clock-line" class="cls-1" d="M12.48,0A7.84,7.84,0,1,1,6.93,2.3,7.85,7.85,0,0,1,12.48,0Zm-.33,3.66a.43.43,0,0,1,.43-.43.43.43,0,0,1,.43.43h0v4l3,1.77a.44.44,0,0,1,.17.58.43.43,0,0,1-.59.17h0L12.39,8.25a.42.42,0,0,1-.24-.38Zm5.27-.76a7,7,0,1,0,2,4.94A7,7,0,0,0,17.42,2.9Z" transform="translate(-4.64 0)"/><path id="Path_3" data-name="Path 3" class="cls-2" d="M8.55,4.8h0l-3.1.29" transform="translate(-4.64 0)"/><line id="Line_11" data-name="Line 11" class="cls-2" x1="0.82" y1="2.18" x2="0.82" y2="5.09"/></g></svg>