<svg xmlns="http://www.w3.org/2000/svg" width="82.592" height="76.404" viewBox="0 0 82.592 76.404">
  <defs>
    <style>
      .cls-1 {
        fill: #898989;
      }
    </style>
  </defs>
  <g id="_50" data-name="50" transform="translate(-5.484 36.233) rotate(-25)">
    <path id="Fill_149" data-name="Fill 149" class="cls-1" d="M14.823,31.345a31.028,31.028,0,0,1-6.5-.652c-2.6-.551-5.316-1.277-7.41-3.533A2.764,2.764,0,0,1,0,25.08a.8.8,0,0,1,.461-.807.521.521,0,0,1,.211-.055c.158,0,.226.125.312.284.03.056.062.114.1.171,1.149,1.726,2.937,2.1,4.665,2.464.187.039.374.078.559.119a29.457,29.457,0,0,0,6.4.664,51.309,51.309,0,0,0,9.457-1.014,54.38,54.38,0,0,0,11.747-3.572c.053-.023.111-.042.166-.061.153-.051.3-.1.353-.228a.588.588,0,0,0-.054-.439,8.768,8.768,0,0,1-.022-6.379,13.105,13.105,0,0,1,2.265-4.283,8,8,0,0,1,3.905-2.6,4.025,4.025,0,0,1,1.168-.192A3.326,3.326,0,0,1,44.5,11.018a8.033,8.033,0,0,1,1.209,6.108,9.327,9.327,0,0,1-3.026,5.018l-.364.319-.444.388c.022.094.045.187.067.28.126.007.259.01.4.01a15.309,15.309,0,0,0,4.006-.724l.409-.112a35.559,35.559,0,0,0,9.5-4.177,50.962,50.962,0,0,0,8.289-6.5A108.136,108.136,0,0,0,74.216.945L74.27.878a2.269,2.269,0,0,1,.909-.789A1.176,1.176,0,0,1,75.568,0a.244.244,0,0,1,.219.1.654.654,0,0,1-.027.526A.663.663,0,0,1,75.7.746c-.04.067-.077.13-.058.185s.062.076.146.1c.946.311.765,1.014.589,1.695l-.034.132a9.284,9.284,0,0,1-1.5,2.908c-.13.192-.263.388-.39.582a62.815,62.815,0,0,1-6.6,8.747,57.512,57.512,0,0,1-7.561,6.6,17.619,17.619,0,0,1-5.425,3.15,10.256,10.256,0,0,0-1.891.837,10.417,10.417,0,0,1-1.795.805,32.536,32.536,0,0,1-7.539,1.627c-.23.014-.461.021-.687.021a10.041,10.041,0,0,1-5.308-1.477,1.9,1.9,0,0,0-1.005-.309,1.968,1.968,0,0,0-.8.182c-1.477.649-3.086,1.3-5.063,2.062a42.575,42.575,0,0,1-8.554,2.1A46.835,46.835,0,0,1,14.823,31.345ZM34.645,23.9,28.2,26.37A19.447,19.447,0,0,0,34.645,23.9Zm14.965-1.19c-.491.122-.988.25-1.469.374a51.127,51.127,0,0,1-6.205,1.322c.29.025.593.039.9.039A17.425,17.425,0,0,0,49.61,22.714Zm-7.045-9.348h0a3.312,3.312,0,0,0-.493.053l-.053.008c-2.051.314-3.114,2.051-4.052,3.584a7.819,7.819,0,0,0-1.339,3.959.994.994,0,0,0,.153.67.294.294,0,0,0,.225.094.924.924,0,0,0,.439-.154,13.387,13.387,0,0,0,4.751-4.339,6.537,6.537,0,0,0,1.063-2.961,1.045,1.045,0,0,0-.195-.736.632.632,0,0,0-.5-.177Z" transform="translate(-0.001 12.978)"/>
    <path id="Fill_151" data-name="Fill 151" class="cls-1" d="M20.636,17.978a1.077,1.077,0,0,1-.565-.229c-1.4-.955-1.517-1.29-1.439-3.985a40.709,40.709,0,0,1,.656-5.657c.069-.42.14-.852.206-1.278a2.15,2.15,0,0,1,.053-.229c.074-.274.151-.556-.187-.791a.6.6,0,0,0-.351-.121,1.056,1.056,0,0,0-.569.246l-.1.066a18.01,18.01,0,0,1-3.575,1.664c-.452.171-.919.348-1.374.536-.485.2-.963.449-1.426.69a16.274,16.274,0,0,1-1.708.8c-1.56.59-3.1,1.3-4.6,1.989l-.382.176a5.84,5.84,0,0,1-.915.3,3.336,3.336,0,0,0-1.62.786,1.2,1.2,0,0,1-.841.41c-.476,0-.972-.361-1.517-1.1a1.365,1.365,0,0,1,.131-2A12.1,12.1,0,0,1,2.521,9C5.032,7.781,7.587,6.55,10.058,5.36l.008,0c2.123-1.022,4.318-2.079,6.474-3.126.816-.4,1.624-.842,2.406-1.273l.681-.374A3.739,3.739,0,0,1,21.34,0c.733,0,1.274.483,1.928,1.722a5.359,5.359,0,0,1,.314,4.461,50.4,50.4,0,0,0-2.33,9.169c-.048.365-.067.74-.086,1.1-.013.264-.027.537-.052.8C21.069,17.736,20.908,17.978,20.636,17.978ZM20.192,1.442,17.133,2.97l-.127.064L14.074,4.5A20.071,20.071,0,0,0,20.192,1.442Z" transform="translate(61.814 0)"/>
  </g>
</svg>
