<svg id="Layer_1" data-name="Layer 1" xmlns="http://www.w3.org/2000/svg" viewBox="0 0 67.51 49.15"><title>branch</title><path d="M72.66,23.07a10.68,10.68,0,0,1-3,2.76,52.12,52.12,0,0,1-7,3.05c-2.77,1-5.93,2.11-9.42,3.06-1.75.5-3.56.92-5.5,1.37a36.25,36.25,0,0,0-6.21,1.91,18.42,18.42,0,0,0-6,4.3c-1.68,1.76-3.08,3.61-4.51,5.16-2.69,3-6.38,5.06-10.66,7.36-2.12,1.11-4.43,2.45-6.53,3.8s-4.09,2.6-6,3.62a21,21,0,0,1-2.41,1.12l6,11.64c.31-.07.71-.17.88-.23.42-.13.78-.25,1.09-.38a13.61,13.61,0,0,0,1.81-.86,21.25,21.25,0,0,0,3-2l1.21-1,1.2-1L25,62.85a22.62,22.62,0,0,1,8.39-5.12,20.2,20.2,0,0,1,8.95-.36,27.42,27.42,0,0,1,4.09,1c1.35.42,2.7.76,3.91,1,2.44.54,2.49,1,4.44.62a5,5,0,0,0,3.55-1.85l5.61-6.28S57.89,56.5,57,57a8.42,8.42,0,0,1-6.19.65c-1.17-.45-2.31-.91-3.57-1.53A30.39,30.39,0,0,0,43,54.42a23.89,23.89,0,0,0-10.58-1.07c-.36,0,.31-1.09,1-1.79.47-.49.85-1,1.33-1.52.33-.41.76-1,1.13-1.49,1.43-2.09,2.56-4,3.76-5.55a13.45,13.45,0,0,1,4-3.75c3.19-1.87,7.23-2.93,10.66-4.4s6.52-2.91,9.19-4.31a53.54,53.54,0,0,0,6.72-4A12.22,12.22,0,0,0,73,23.23Z" transform="translate(-5.49 -23.07)"/></svg>