<?xml version="1.0" encoding="utf-8"?>
<!-- Generator: Adobe Illustrator 24.0.1, SVG Export Plug-In . SVG Version: 6.00 Build 0)  -->
<svg version="1.1" id="Layer_1" xmlns="http://www.w3.org/2000/svg" xmlns:xlink="http://www.w3.org/1999/xlink" x="0px" y="0px"
	 viewBox="0 0 16.2 16.2" style="enable-background:new 0 0 16.2 16.2;" xml:space="preserve">
<style type="text/css">
	.st0{stroke:#FFFFFF;stroke-width:0.2;stroke-linecap:round;}
</style>
<path class="st0" d="M8.1,0.1c4.4,0,8,3.6,8,8c0,4.4-3.6,8-8,8c-4.4,0-8-3.6-8-8c0-2.1,0.8-4.2,2.3-5.7C3.9,0.9,6,0.1,8.1,0.1z
	 M4.6,8.8c-0.2-0.2-0.2-0.4,0-0.6s0.4-0.2,0.6,0c0,0,0,0,0,0l1.7,1.6L11,5.5c0.2-0.2,0.4-0.1,0.6,0c0.1,0.2,0.1,0.4,0,0.5l-4.4,4.6
	c-0.2,0.2-0.4,0.2-0.6,0L4.6,8.8L4.6,8.8z M13.2,3C10.4,0.2,5.8,0.2,3,3s-2.8,7.3,0,10.1s7.3,2.8,10.1,0c1.3-1.3,2.1-3.2,2.1-5.1
	C15.3,6.2,14.5,4.4,13.2,3L13.2,3z"/>
</svg>
