<svg id="Layer_1" data-name="Layer 1" xmlns="http://www.w3.org/2000/svg" viewBox="0 0 2191 2340.48"><title>comment</title><path d="M1313,146H516c-52,0-100,9-143,27s-83,45-119,81-63,76-81,119-27,91-27,143v778c0,52,9,100,27,143s45,83,81,119c37,36,77,64,120,81,43,18,90,27,142,27H858c40,0,73,33,73,73,0,9-2,17-4,25-13,48-27,96-43,142-17,49-35,95-55,140-10,23-22,45-35,68a1374.77,1374.77,0,0,0,197-107,1364.84,1364.84,0,0,0,179-140c56-52,106-109,152-170a72,72,0,0,1,58-29h294c52,0,99-9,142-27s83-45,120-81c36-36,63-76,81-119s27-91,27-143V518c0-52-9-100-27-143s-45-83-81-119-76-63-119-81-91-27-143-27H1313ZM877,0h797c70,0,136,13,198,38,61,25,117,63,167,113s88,106,113,167,38,127,38,198v778c0,71-13,137-38,198s-63,117-113,167a525.17,525.17,0,0,1-167,113c-61,25-127,38-198,38H1416a1482.44,1482.44,0,0,1-146,160,1424,1424,0,0,1-199,156,1464,1464,0,0,1-228,123c-80,35-166,64-256,88-26,7-54-1-73-22-27-30-24-76,6-103,42-37,78-75,107-113,28-37,51-75,68-114v-1c19-42,36-85,51-128,5-15,10-31,15-47H515c-70,0-136-13-198-38-61-25-117-63-167-113S62,1552,37,1491c-25-62-38-128-38-198V515c0-70,13-136,38-198,25-61,63-117,113-167S256,62,317,37,444-1,515-1H876Z" transform="translate(1 1)"/></svg>