<svg xmlns="http://www.w3.org/2000/svg" width="24" height="24" viewBox="0 0 24 24" fill="none" stroke="currentColor" stroke-width="2" stroke-linecap="round" stroke-linejoin="round" class="devfont devfont-earth-west"><path d="M12 21a9 9 0 1 0 0-18 9 9 0 0 0 0 18z"></path><path d="M20.078 15.972l-5.09-3.13a.75.75 0 0 0-.292-.104l-2.14-.289a.75.75 0 0 0-.785.438l-1.284 2.882a.75.75 0 0 0 .134.815l1.763 1.906a.75.75 0 0 1 .186.651l-.36 1.856"></path><path d="M6.09 5.213l-.84 1.983a.75.75 0 0 0-.01.555l1.076 2.875a.75.75 0 0 0 .545.47l2.01.432a.75.75 0 0 1 .517.407l.357.737a.75.75 0 0 0 .675.423h1.259"></path><path d="M14.293 3.295l.875 1.568a.75.75 0 0 1-.152.92l-2.523 2.283a.749.749 0 0 1-.14.1l-1.148.634a.75.75 0 0 1-.362.094H8.84a.75.75 0 0 0-.69.458l-.781 1.854"></path></svg>