<svg xmlns="http://www.w3.org/2000/svg" width="29.125" height="29.093" viewBox="0 0 29.125 29.093">
  <defs>
    <style>
      .cls-1 {
        fill: #f2f2f2;
      }
    </style>
  </defs>
  <path id="expand" class="cls-1" d="M26.222,20.285a.952.952,0,0,1,1.9,0V27.1a.954.954,0,0,1-.952.952h-6.92a.952.952,0,1,1,0-1.9H24.8l-8.14-7.69a.946.946,0,0,1,1.294-1.38L26.232,24.9V20.275ZM20.285.9a.954.954,0,0,1-.952-.952A.954.954,0,0,1,20.285-1H27.1a.954.954,0,0,1,.952.952v6.92a.952.952,0,0,1-1.9,0V2.326l-7.69,8.14a.946.946,0,0,1-1.38-1.294L24.9.893H20.275ZM.9,6.765a.954.954,0,0,1-.952.952A.954.954,0,0,1-1,6.765V-.048A.954.954,0,0,1-.048-1h6.92a.954.954,0,0,1,.952.952A.954.954,0,0,1,6.872.9H2.326l8.14,7.69a.946.946,0,0,1-1.294,1.38L.893,2.155V6.776ZM6.819,26.189a.952.952,0,0,1,0,1.9H.005a.954.954,0,0,1-.952-.952v-6.92a.954.954,0,0,1,.952-.952.954.954,0,0,1,.952.952v4.546l7.69-8.14a.946.946,0,0,1,1.38,1.294L2.209,26.2H6.83Z" transform="translate(1 1)"/>
</svg>
