<svg xmlns="http://www.w3.org/2000/svg" width="26.782" height="26.123" viewBox="0 0 26.782 26.123">
  <defs>
    <style>
      .cls-1 {
        fill: #4d4d4d;
        fill-rule: evenodd;
      }
    </style>
  </defs>
  <path id="github_icon" data-name="github icon" class="cls-1" d="M13.39,7.87a13.392,13.392,0,0,0-4.233,26.1c.67.124.916-.291.916-.645,0-.319-.013-1.374-.019-2.492-3.726.81-4.511-1.581-4.511-1.581a3.546,3.546,0,0,0-1.487-1.96c-1.215-.832.092-.814.092-.814A2.812,2.812,0,0,1,6.2,27.854a2.852,2.852,0,0,0,3.9,1.113,2.853,2.853,0,0,1,.85-1.791c-2.974-.338-6.1-1.486-6.1-6.618a5.185,5.185,0,0,1,1.379-3.594,4.808,4.808,0,0,1,.129-3.543s1.124-.36,3.684,1.373a12.7,12.7,0,0,1,6.7,0c2.556-1.732,3.679-1.373,3.679-1.373a4.808,4.808,0,0,1,.132,3.543,5.171,5.171,0,0,1,1.378,3.594c0,5.143-3.134,6.274-6.114,6.606a3.2,3.2,0,0,1,.909,2.479c0,1.791-.015,3.234-.015,3.674,0,.356.241.773.92.643A13.392,13.392,0,0,0,13.391,7.865v0Z" transform="translate(0 -7.865)"/>
</svg>
