<svg xmlns="http://www.w3.org/2000/svg" width="26.14" height="25.752" viewBox="0 0 26.14 25.752">
  <defs>
    <style>
      .cls-1 {
        fill: #4d4d4d;
      }
    </style>
  </defs>
  <path id="support-line" class="cls-1" d="M13.07,0a13.145,13.145,0,0,1,9.243,3.77,12.747,12.747,0,0,1,0,18.212,13.216,13.216,0,0,1-18.486,0,12.747,12.747,0,0,1,0-18.212A13.133,13.133,0,0,1,13.07,0Zm0,7.1a5.85,5.85,0,0,1,1.812.282L19.49,2.891A12.15,12.15,0,0,0,6.95,2.713L11.557,7.3a5.793,5.793,0,0,1,1.52-.192Zm2.809.707a5.877,5.877,0,0,1,1.331.982,5.7,5.7,0,0,1,1.094,1.5l4.468-4.354a11.894,11.894,0,0,0-1.227-1.415,11.774,11.774,0,0,0-1.22-1.051l-4.454,4.34Zm2.83,3.5a5.607,5.607,0,0,1,.223,1.573,5.664,5.664,0,0,1-.3,1.82l4.552,4.532a11.687,11.687,0,0,0,.16-12.443ZM18.2,15.664a5.761,5.761,0,0,1-.99,1.291,5.859,5.859,0,0,1-1.547,1.092l4.426,4.4a12.04,12.04,0,0,0,2.509-2.4Zm-3.562,2.774a6.042,6.042,0,0,1-3.492-.11L6.559,22.8a12.155,12.155,0,0,0,12.666.213l-4.594-4.574ZM10.177,17.9a5.806,5.806,0,0,1-2.391-2.52L3.3,19.743a11.993,11.993,0,0,0,1.283,1.5,11.167,11.167,0,0,0,1.143.989L10.17,17.9ZM7.41,14.346a5.651,5.651,0,0,1-.188-1.463,5.744,5.744,0,0,1,.314-1.868L2.99,6.489a11.668,11.668,0,0,0-.237,12.4L7.41,14.339Zm.565-4.292a5.806,5.806,0,0,1,2.551-2.362L6.1,3.283a12.946,12.946,0,0,0-1.5,1.25A12.483,12.483,0,0,0,3.576,5.679l4.4,4.381ZM16.507,9.5a4.9,4.9,0,0,0-6.859,0,4.725,4.725,0,0,0,0,6.757,4.9,4.9,0,0,0,6.859,0,4.725,4.725,0,0,0,0-6.757Z"/>
</svg>
