<svg id="Layer_1" data-name="Layer 1" xmlns="http://www.w3.org/2000/svg" viewBox="0 0 154 111"><defs><style>.cls-1,.cls-2{fill:none;stroke:#000;}.cls-1{stroke-miterlimit:10;}.cls-2{stroke-width:6px;}</style></defs><title>hierarchy</title><g id="hierarchy_4d4d4d" data-name="hierarchy 4d4d4d"><g id="Rectangle_56" data-name="Rectangle 56"><path class="cls-1" d="M64,0H90a8,8,0,0,1,8,8V24a8,8,0,0,1-8,8H64a8,8,0,0,1-8-8V8A8,8,0,0,1,64,0Z" transform="translate(0 0.5)"/><path class="cls-2" d="M64,3H90a5,5,0,0,1,5,5V24a5,5,0,0,1-5,5H64a5,5,0,0,1-5-5V8A5,5,0,0,1,64,3Z" transform="translate(0 0.5)"/></g><g id="Rectangle_57" data-name="Rectangle 57"><path class="cls-2" d="M8,81H34a5,5,0,0,1,5,5v16a5,5,0,0,1-5,5H8a5,5,0,0,1-5-5V86A5,5,0,0,1,8,81Z" transform="translate(0 0.5)"/></g><g id="Rectangle_58" data-name="Rectangle 58"><path class="cls-1" d="M64,78H90a8,8,0,0,1,8,8v16a8,8,0,0,1-8,8H64a8,8,0,0,1-8-8V86A8,8,0,0,1,64,78Z" transform="translate(0 0.5)"/><path class="cls-2" d="M64,81H90a5,5,0,0,1,5,5v16a5,5,0,0,1-5,5H64a5,5,0,0,1-5-5V86A5,5,0,0,1,64,81Z" transform="translate(0 0.5)"/></g><g id="Rectangle_59" data-name="Rectangle 59"><path class="cls-2" d="M120,81h26a5,5,0,0,1,5,5v16a5,5,0,0,1-5,5H120a5,5,0,0,1-5-5V86A5,5,0,0,1,120,81Z" transform="translate(0 0.5)"/></g><line id="Line_24" data-name="Line 24" class="cls-2" x1="77.5" y1="81" x2="77.5" y2="31"/><g id="Path_51" data-name="Path 51"><path d="M124.1,51.3H30c-6.6,0-12,4.6-12,10.1V78.6h4.8a1.48,1.48,0,0,1,.7.1h.4V61.4c0-2.8,2.7-5.1,6-5.1h94c3.3,0,6,2.3,6,5.1V78.5h2.9a2.2,2.2,0,0,1,.8.1c.2,0,.4-.1.7-.1h1.2a1.27,1.27,0,0,0,.6-.1v-17c0-5.5-5.5-10.1-12-10.1Z" transform="translate(0 0.5)"/></g></g></svg>