<svg xmlns="http://www.w3.org/2000/svg" width="16.673" height="14" viewBox="0 0 16.673 14"><defs><style>.a{fill:#717171;opacity:0.999;}</style></defs><path class="a" d="M8.728,7.3a.281.281,0,0,1-.209.03.273.273,0,0,1-.169-.13.281.281,0,0,1-.03-.209.273.273,0,0,1,.13-.169l4.9-2.925.434-1.35a.2.2,0,0,1,.05-.09.254.254,0,0,1,.08-.065l2.5-1.44a.281.281,0,0,1,.209-.03.292.292,0,0,1,.169.13.288.288,0,0,1,.035.1.274.274,0,0,1-.01.11l-.224,1.126,1.126.4a.28.28,0,0,1,.164.354.292.292,0,0,1-.05.085l-.045.045-.03.015-2.5,1.44a.237.237,0,0,1-.115.035.248.248,0,0,1-.12-.015L13.616,4.37,8.723,7.295Zm1.3-6.842a6.982,6.982,0,0,1,1.759.737,6.907,6.907,0,0,1,1.49,1.186.054.054,0,0,1,0,.075l0,0-.389.294a.053.053,0,0,1-.07,0,6.331,6.331,0,0,0-1.345-1.056,6.488,6.488,0,0,0-1.585-.663,6.39,6.39,0,0,0-4.863.643A6.475,6.475,0,0,0,3.132,3.323a6.406,6.406,0,0,0-.458,7.106v0a6.405,6.405,0,0,0,8.755,2.337,6.475,6.475,0,0,0,1.884-1.649,6.374,6.374,0,0,0,1.1-2.242,6.375,6.375,0,0,0,0-3.334.051.051,0,0,1,.03-.06l.448-.2a.057.057,0,0,1,.07.025s0,0,0,.01a7,7,0,0,1-3.239,7.963h0a6.992,6.992,0,0,1-5.307.7,6.994,6.994,0,0,1-4.25-3.264,6.964,6.964,0,0,1-.7-5.307,6.994,6.994,0,0,1,3.264-4.25,6.964,6.964,0,0,1,5.307-.7Zm-1.236,4.7a2.271,2.271,0,0,1,.259.09,2.323,2.323,0,0,1,.249.125.05.05,0,0,1,.02.07L9.3,5.456l-.429.324a.053.053,0,0,1-.055,0,.666.666,0,0,0-.09-.035l-.095-.03-.015,0a1.557,1.557,0,0,0-.6-.04,1.533,1.533,0,0,0-.573.194,1.546,1.546,0,0,0-.728.942,1.557,1.557,0,0,0-.04.6,1.533,1.533,0,0,0,.194.573,1.546,1.546,0,0,0,.942.728s0,0,.01,0a1.54,1.54,0,0,0,1.171-.154,1.546,1.546,0,0,0,.728-.942l.01-.035a.053.053,0,0,1,.03-.035l.523-.234a.057.057,0,0,1,.07.025.045.045,0,0,1,0,.025c0,.065-.015.135-.025.2a1.433,1.433,0,0,1-.045.2,2.142,2.142,0,0,1-.369.747,2.214,2.214,0,0,1-.628.553h0a2.173,2.173,0,0,1-.787.269,2.127,2.127,0,0,1-.827-.055h-.01a2.142,2.142,0,0,1-.747-.369,2.214,2.214,0,0,1-.553-.628,2.138,2.138,0,0,1,.154-2.372,2.214,2.214,0,0,1,.628-.553h0a2.138,2.138,0,0,1,1.624-.214s0,0,.01,0,.01,0,.01,0ZM9.4,2.775a4.7,4.7,0,0,1,1.031.414,4.34,4.34,0,0,1,.9.653.06.06,0,0,1,0,.075l0,0-.394.3a.053.053,0,0,1-.07,0,4.038,4.038,0,0,0-.757-.528,4.206,4.206,0,0,0-.862-.344,4,4,0,0,0-3.045.4h0A3.941,3.941,0,0,0,5.026,4.773a4.011,4.011,0,0,0-.294,4.45A4.03,4.03,0,0,0,5.763,10.4a4.011,4.011,0,0,0,4.45.294,4.03,4.03,0,0,0,1.181-1.031,4.075,4.075,0,0,0,.693-1.405,4.362,4.362,0,0,0,.135-.862,3.866,3.866,0,0,0-.055-.867.047.047,0,0,1,.03-.055l.453-.2a.057.057,0,0,1,.07.025s0,.01,0,.015a4.614,4.614,0,0,1,.09,1.051,4.607,4.607,0,0,1-.947,2.661,4.6,4.6,0,0,1-3.05,1.764,4.62,4.62,0,0,1-3.4-.912,4.656,4.656,0,0,1-1.186-1.35v0a4.616,4.616,0,0,1-.578-1.7,4.62,4.62,0,0,1,.912-3.4,4.656,4.656,0,0,1,1.35-1.186h0a4.616,4.616,0,0,1,1.7-.578,4.558,4.558,0,0,1,1.789.12Zm6.592-.259.154-.782L14.269,2.82l-.344,1.071,1.151.314L16.96,3.119l-.787-.284a.308.308,0,0,1-.149-.125.276.276,0,0,1-.03-.189Z" transform="translate(-1.22 -0.22)"/></svg>