<svg xmlns="http://www.w3.org/2000/svg" width="14" height="14" viewBox="0 0 14 14"><defs><style>.a{fill:#717171;opacity:0.999;}</style></defs><path class="a" d="M6.544,10.167a.494.494,0,0,1-.037-.186.481.481,0,0,1,.037-.186A.493.493,0,0,1,7,9.489a.512.512,0,0,1,.19.037.469.469,0,0,1,.156.105,0,0,0,0,1,0,0,.481.481,0,0,1,.146.346.481.481,0,0,1-.037.186A.493.493,0,0,1,7,10.472a.481.481,0,0,1-.186-.037.469.469,0,0,1-.156-.105,0,0,0,0,1,0,0,.493.493,0,0,1-.108-.159ZM7,.586A6.467,6.467,0,0,0,5.707.712,6.146,6.146,0,0,0,4.5,1.084a6.8,6.8,0,0,0-1.1.593,6.269,6.269,0,0,0-.942.776,6.07,6.07,0,0,0-.776.942,6.549,6.549,0,0,0-.593,1.1s0,.01-.007.014A6,6,0,0,0,.718,5.7a6.711,6.711,0,0,0,0,2.582,6.146,6.146,0,0,0,.373,1.206,6.8,6.8,0,0,0,.593,1.1,6.269,6.269,0,0,0,.776.942,6.07,6.07,0,0,0,.942.776,6.549,6.549,0,0,0,1.1.593s.01,0,.014.007a6,6,0,0,0,1.193.366,6.711,6.711,0,0,0,2.582,0A6.146,6.146,0,0,0,9.5,12.9a6.8,6.8,0,0,0,1.1-.593,6.27,6.27,0,0,0,.942-.776,6.071,6.071,0,0,0,.776-.942,6.549,6.549,0,0,0,.593-1.1s0-.01.007-.014a6,6,0,0,0,.366-1.193,6.711,6.711,0,0,0,0-2.582,6.146,6.146,0,0,0-.373-1.206,6.8,6.8,0,0,0-.593-1.1,6.27,6.27,0,0,0-.776-.942,6.071,6.071,0,0,0-.942-.776,6.549,6.549,0,0,0-1.1-.593s-.01,0-.014-.007A6,6,0,0,0,8.29.712,6.467,6.467,0,0,0,7,.586ZM5.592.136A7.364,7.364,0,0,1,8.4.136a6.632,6.632,0,0,1,1.308.4L9.73.546a7.341,7.341,0,0,1,1.193.647,6.9,6.9,0,0,1,1.034.851,6.733,6.733,0,0,1,.851,1.034,7.341,7.341,0,0,1,.647,1.193,6.708,6.708,0,0,1,.41,1.322,7.364,7.364,0,0,1,0,2.813,6.632,6.632,0,0,1-.4,1.308c0,.007,0,.01-.007.017a7.341,7.341,0,0,1-.647,1.193,6.9,6.9,0,0,1-.851,1.034,6.733,6.733,0,0,1-1.034.851,7.341,7.341,0,0,1-1.193.647,6.707,6.707,0,0,1-1.322.41,7.364,7.364,0,0,1-2.813,0,6.632,6.632,0,0,1-1.308-.4l-.017-.007a7.341,7.341,0,0,1-1.193-.647,6.9,6.9,0,0,1-1.034-.851,6.732,6.732,0,0,1-.851-1.034A7.341,7.341,0,0,1,.546,9.73a6.707,6.707,0,0,1-.41-1.322,7.364,7.364,0,0,1,0-2.813,6.632,6.632,0,0,1,.4-1.308c0-.007,0-.01.007-.017a7.341,7.341,0,0,1,.647-1.193,6.9,6.9,0,0,1,.851-1.034,6.732,6.732,0,0,1,1.034-.851A7.341,7.341,0,0,1,4.27.546,6.707,6.707,0,0,1,5.592.136ZM7.3,8.862a.231.231,0,0,1-.186.22.424.424,0,0,1-.237,0,.231.231,0,0,1-.186-.22L6.3,3.772v0c0-.125.186-.2.424-.23a2.282,2.282,0,0,1,.271-.017,2.376,2.376,0,0,1,.271.017c.237.031.424.105.424.23v.007Z" transform="translate(0)"/></svg>