<?xml version="1.0" encoding="utf-8"?><svg version="1.1" id="Layer_1" xmlns="http://www.w3.org/2000/svg" xmlns:xlink="http://www.w3.org/1999/xlink" x="0px" y="0px" viewBox="0 0 122.88 88.36" style="enable-background:new 0 0 122.88 88.36" xml:space="preserve"><g><path d="M58.29,42.08V3.12C58.29,1.4,59.7,0,61.44,0s3.15,1.4,3.15,3.12v38.96L79.1,29.4c1.3-1.14,3.28-1.02,4.43,0.27 s1.03,3.25-0.27,4.39L63.52,51.3c-1.21,1.06-3.01,1.03-4.18-0.02L39.62,34.06c-1.3-1.14-1.42-3.1-0.27-4.39 c1.15-1.28,3.13-1.4,4.43-0.27L58.29,42.08L58.29,42.08L58.29,42.08z M0.09,47.43c-0.43-1.77,0.66-3.55,2.43-3.98 c1.77-0.43,3.55,0.66,3.98,2.43c1.03,4.26,1.76,7.93,2.43,11.3c3.17,15.99,4.87,24.57,27.15,24.57h52.55 c20.82,0,22.51-9.07,25.32-24.09c0.67-3.6,1.4-7.5,2.44-11.78c0.43-1.77,2.21-2.86,3.98-2.43c1.77,0.43,2.85,2.21,2.43,3.98 c-0.98,4.02-1.7,7.88-2.36,11.45c-3.44,18.38-5.51,29.48-31.8,29.48H36.07C8.37,88.36,6.3,77.92,2.44,58.45 C1.71,54.77,0.98,51.08,0.09,47.43L0.09,47.43z"/></g></svg>