<svg xmlns="http://www.w3.org/2000/svg" width="328.665" height="235.072" viewBox="0 0 328.665 235.072">
  <defs>
    <style>
      .cls-1 {
        fill: #9ddbcd;
      }

      .cls-2 {
        fill: #fff;
        fill-rule: evenodd;
      }
    </style>
  </defs>
  <g id="intro-screen-image-2" transform="translate(-821 -195)">
    <g id="_29" data-name="29" transform="translate(828.82 246.461)">
      <path id="Fill_333" data-name="Fill 333" class="cls-1" d="M195.049,183.612c-.1,0-.209,0-.312-.01-.526-.034-1.083-.05-1.755-.05-.526,0-1.061.01-1.579.02-.306.006-.61.011-.914.015H190.4a14.08,14.08,0,0,1-3.421-.564c-.283-.071-.573-.144-.861-.211a14.775,14.775,0,0,1-2.833-.959,3.568,3.568,0,0,0-1.492-.362,2.683,2.683,0,0,0-.426.034,2.636,2.636,0,0,1-.413.032,5.225,5.225,0,0,1-2.083-.6l-.043-.019a29.771,29.771,0,0,1-5.639-3.466l-.085-.061c-.191-.138-.387-.276-.576-.409l-.007-.005a14.087,14.087,0,0,1-2.18-1.763,16.107,16.107,0,0,1-3.234-5.26,20.809,20.809,0,0,0-1.847-3.336,41.408,41.408,0,0,1-2.838-5.328l-.008-.016c-.2-.412-.4-.839-.612-1.284-.725-1.51-1.324-3.091-1.9-4.62l0-.01c-.252-.665-.513-1.353-.78-2.025-.141-.353-.288-.71-.431-1.054-.333-.8-.677-1.636-.957-2.478a14.861,14.861,0,0,0-1.524-3.481,8.536,8.536,0,0,1-.556-1.084,9.076,9.076,0,0,0-.551-1.08A28.381,28.381,0,0,1,153.456,141c-.128-.275-.256-.55-.386-.824-.228-.479-.466-.964-.7-1.434l-.006-.012c-.553-1.125-1.124-2.289-1.6-3.463a18.882,18.882,0,0,0-1.069-2.129,18.81,18.81,0,0,1-1.063-2.118,32.3,32.3,0,0,0-1.556-3.181l0-.008c-.186-.348-.378-.707-.563-1.062a6.128,6.128,0,0,0-3.066-3.083,5.375,5.375,0,0,1-2.238-1.666.455.455,0,0,1-.409.233,1.491,1.491,0,0,1-.321-.049,1.518,1.518,0,0,0-.319-.049.422.422,0,0,0-.351.165,1.082,1.082,0,0,0-.869-.3h-.254a1.741,1.741,0,0,1-.5-.057l-.026,0a.049.049,0,0,1-.04-.016c-.027-.032-.014-.107,0-.187l.006-.034c.014-.082.024-.166-.012-.208a.091.091,0,0,0-.074-.029.657.657,0,0,0-.267.092,2.427,2.427,0,0,1-1.056.168c-.182,0-.369.007-.555.026-.041-.209-.079-.4-.125-.634l0-.016-.09-.458-.121.345-.132.376-.353-.234-.026-.017-.762-.5.133-.467.12-.421a2.2,2.2,0,0,0-1.209-.373,2.627,2.627,0,0,0-.9.17l1.269.6.324.154-.27.552-.142.291c-.089-.043-.127-.166-.164-.285-.047-.15-.1-.306-.248-.306a.7.7,0,0,0-.364.164l.2.437.175.389c-.04.021-.077.045-.11.067a.3.3,0,0,1-.116.059.027.027,0,0,1-.013,0c-.38-.2-.762-.413-1.131-.619l-.3-.169a3.336,3.336,0,0,1-2.235,1.4l.1-.3.162-.469a1.009,1.009,0,0,1-.238-.25.8.8,0,0,0-.66-.414.88.88,0,0,0-.093.005c.06.326.118.637.174.938l.067.36c-.286.128-.413.22-.453.331a.409.409,0,0,0,.059.32.592.592,0,0,1-.356.154c-.195,0-.331-.163-.475-.336a.848.848,0,0,0-.508-.373c-.028.184-.052.345-.075.5l-.009.06c-.018.116-.035.229-.052.343a.7.7,0,0,1-.262-.117.557.557,0,0,0-.295-.115.492.492,0,0,0-.3.125,5.138,5.138,0,0,1-.935.537,5.064,5.064,0,0,0-.945.545,1.058,1.058,0,0,1-.667.259,2.16,2.16,0,0,1-.852-.255l-.05-.022c-.012.157-.023.3-.035.471l-.027.367a1.5,1.5,0,0,0-.273-.025,2.785,2.785,0,0,0-1.157.344,5.344,5.344,0,0,1-.619.256c-1.091.346-2.171.771-3.216,1.183-.526.207-1.069.421-1.607.622-.875.327-1.752.692-2.6,1.046l-.006,0c-.543.226-1.1.46-1.659.681l-.106.043c-1.119.447-2.276.91-3.433,1.321-.964.344-1.923.75-2.85,1.142-.626.265-1.274.539-1.919.792-1.032.405-2.082.862-3.1,1.3l-.642.279a3.46,3.46,0,0,0-.317.166,1.564,1.564,0,0,1-.763.271.921.921,0,0,1-.223-.028.226.226,0,0,0-.053-.006.552.552,0,0,0-.325.133,5.733,5.733,0,0,1-2.118,1.052,6.815,6.815,0,0,0-1.805.8.384.384,0,0,1-.206.059.3.3,0,0,1-.061-.006,2.313,2.313,0,0,0-.447-.044,4.011,4.011,0,0,0-1.906.657c-.245.134-.5.273-.754.385a29.211,29.211,0,0,1-4.886,1.648c-.077.018-.156.035-.235.052a3.028,3.028,0,0,0-.809.254,1.014,1.014,0,0,1-.487.1.989.989,0,0,0-.38.06,2.752,2.752,0,0,0-.908.619.27.27,0,0,1-.2.105.488.488,0,0,1-.25-.108.529.529,0,0,0-.274-.115.334.334,0,0,0-.233.114,1.407,1.407,0,0,1-.692.279,2.291,2.291,0,0,0-.566.177,3.16,3.16,0,0,1-.824.254,2.155,2.155,0,0,0-1.206.537.427.427,0,0,1-.3.082,1.013,1.013,0,0,1-.407-.082.968.968,0,0,0-.363-.126c-.129,0-.229.1-.355.353-.108.218-.582.288-.962.344H76.34l-.156.024a9.153,9.153,0,0,0-1.5.419,6.587,6.587,0,0,1-2.119.47l-.116,0a5.236,5.236,0,0,1-2.287.729,10.888,10.888,0,0,0-1.132.216c-.1.027-.205.06-.3.091a4.177,4.177,0,0,1-.482.132,1.8,1.8,0,0,1-.345.027l-.174,0-.163,0a1.3,1.3,0,0,0-.836.236.6.6,0,0,1-.367.094c-.073,0-.149-.005-.229-.011s-.167-.012-.25-.012a.818.818,0,0,0-.637.242.2.2,0,0,1-.143.039,1.088,1.088,0,0,1-.512-.15.48.48,0,0,0-.226-.1.071.071,0,0,0-.053.02c-.033.034-.032.1-.031.173s0,.131-.032.149a.469.469,0,0,1-.215.039l-.088,0h-.081a.515.515,0,0,0-.211.034,4.653,4.653,0,0,1-1.92.431,4.3,4.3,0,0,1-.55-.035,5.075,5.075,0,0,0-.653-.04,11.732,11.732,0,0,0-1.811.189,11.677,11.677,0,0,1-1.826.191l-.133,0h-.023a2.083,2.083,0,0,0-.429.061,2.091,2.091,0,0,1-.433.062.766.766,0,0,1-.483-.159,1.476,1.476,0,0,1-.691.159,4.047,4.047,0,0,1-.751-.1,3.958,3.958,0,0,0-.748-.1,1.591,1.591,0,0,0-.351.037,2.589,2.589,0,0,0-.39.135,1.513,1.513,0,0,1-.511.146.339.339,0,0,1-.136-.025,4.058,4.058,0,0,0-1.522-.241c-.187-.005-.379-.01-.57-.026-.478-.039-.962-.114-1.429-.187-.213-.033-.432-.067-.648-.1a.815.815,0,0,0-.1-.006c-.072,0-.145,0-.168-.037a.613.613,0,0,0-.57-.279c-.052,0-.1,0-.155.005h-.012c-.048,0-.094,0-.139,0a.685.685,0,0,1-.231-.031,4.218,4.218,0,0,0-.968-.181,3.083,3.083,0,0,1-1.307-.341l-.248-.146a3.81,3.81,0,0,1-1.036-.755l-.071.151c-.074.157-.151.322-.251.534a4.979,4.979,0,0,0-1.409-.671A3.7,3.7,0,0,1,38.831,142H37.744c-.046-.082-.088-.175-.129-.266-.081-.18-.151-.335-.221-.335h-.067a1.411,1.411,0,0,1-1.04-.262,1.036,1.036,0,0,1-.206-.8c0-.1-.156-.208-.4-.373-.138-.093-.309-.209-.49-.351.143.415.225.656.317.926l.106.312c-.18-.12-.341-.225-.5-.327-.327-.214-.606-.4-.87-.589-.077-.056-.156-.111-.235-.166a3.5,3.5,0,0,1-.812-.7,2.087,2.087,0,0,0-.526-.447,1.793,1.793,0,0,1-.577-.528,5.633,5.633,0,0,0-.834-1.115,3.291,3.291,0,0,1-.348-.423,2.26,2.26,0,0,0-.633-.65,1.341,1.341,0,0,1-.4-.771,4.221,4.221,0,0,0-.14-.423l.225-.244.126-.137.177.157.274.243c-.014-.108-.02-.2-.025-.285a.676.676,0,0,0-.069-.338,3,3,0,0,0-1.271-.914l-.086-.041-.008,0c-.208-.1-.466-.225-.538-.4a1.04,1.04,0,0,1-.039-.421,1.015,1.015,0,0,0-.041-.426.725.725,0,0,0-.3-.255c-.122-.074-.238-.143-.237-.219a3.1,3.1,0,0,0-.184-.952,2.313,2.313,0,0,1-.137-1.271,5.6,5.6,0,0,1-.3-2.571,11.392,11.392,0,0,0,.006-1.265,16.721,16.721,0,0,1,1.286-6.8,24.69,24.69,0,0,1,3.791-6.789c.281-.362.564-.733.837-1.091l.007-.009c.815-1.07,1.658-2.175,2.576-3.2a57.137,57.137,0,0,0,4.571-6.013,7.222,7.222,0,0,0,.516-.955,6.649,6.649,0,0,1,.6-1.081,7.364,7.364,0,0,0,.943-2.09,10.792,10.792,0,0,0,.357-1.755c.014-.094.027-.186.041-.277a2.886,2.886,0,0,0,.013-.538,1.439,1.439,0,0,1,.272-1.11c.081-.092.019-.336-.026-.514l-.01-.04a1.482,1.482,0,0,0-.11-.27.98.98,0,0,1-.123-.362,9.767,9.767,0,0,0-4.273-7.469c-.893-.64-1.838-1.214-2.752-1.768-.587-.356-1.194-.724-1.779-1.105-1.014-.66-2.074-1.276-3.1-1.872-1.111-.646-2.26-1.314-3.351-2.037-1.111-.737-2.287-1.417-3.424-2.074-.533-.308-1.083-.627-1.622-.948-.5-.3-1.018-.588-1.519-.868a23.482,23.482,0,0,1-4.058-2.655,2.8,2.8,0,0,1-1.323-.743,3.951,3.951,0,0,0-.9-.618,5.491,5.491,0,0,1-1.392-1.011,8.14,8.14,0,0,0-.942-.767,13.847,13.847,0,0,1-1.8-1.52c-.257-.242-.522-.493-.79-.729-.148-.13-.287-.273-.422-.412a3.457,3.457,0,0,0-1.1-.856,1.608,1.608,0,0,1-.814-.815,3.029,3.029,0,0,0-.845-1.1c-.144-.136-.293-.277-.427-.428A23.093,23.093,0,0,1,1.5,54.682c-.16-.481-.282-.98-.4-1.463a11.432,11.432,0,0,0-.741-2.312,4.372,4.372,0,0,0-.128-1.742A5.6,5.6,0,0,1,.055,47.8c.014-.373-.006-.757-.025-1.129a7.015,7.015,0,0,1,.076-1.937c.1-.446.174-.91.241-1.359a7.624,7.624,0,0,1,.888-3c.274-2.027,2.261-5.6,3.126-6.912a20.3,20.3,0,0,1,3.872-4.083,6.166,6.166,0,0,1,2.6-1.453,6.863,6.863,0,0,0,.978-.324,7.425,7.425,0,0,1,.963-.323l.067-.016a4.16,4.16,0,0,1,.956-.154,1.842,1.842,0,0,1,.7.138.3.3,0,0,0,.112.02,1.166,1.166,0,0,0,.37-.1,1.434,1.434,0,0,1,.38-.1c.349-.021.617-.031.87-.031a7.312,7.312,0,0,1,.74.034,1.488,1.488,0,0,1,.373.108,1.244,1.244,0,0,0,.434.111.574.574,0,0,0,.385-.155.785.785,0,0,0,.6.229,3.072,3.072,0,0,0,.31-.021,3.012,3.012,0,0,1,.313-.022.935.935,0,0,1,.295.042,4.081,4.081,0,0,1,.625.286,4.217,4.217,0,0,0,.6.279c.424.142.863.26,1.287.374.266.072.541.145.81.225a2.28,2.28,0,0,1,.62.271,9,9,0,0,0,2.424,1.04c.4.128.823.261,1.222.419.477.19.972.361,1.45.528a20.526,20.526,0,0,1,2.467.979,16.324,16.324,0,0,0,1.781.724c.327.118.665.24.991.372.391.158.783.335,1.161.507.552.25,1.123.508,1.7.713a37.434,37.434,0,0,1,4.159,1.859c.533.265,1.083.538,1.629.8,2.547,1.2,5.015,2.386,7.336,3.517,1.791.872,3.609,1.763,5.367,2.625l.006,0c2.432,1.192,4.946,2.425,7.426,3.624a20.267,20.267,0,0,0,3.255,1.326,4.26,4.26,0,0,1,.725.307,3.709,3.709,0,0,0,.779.318c.282.068.577.142.837.208.51.129,1.037.262,1.56.37a6.959,6.959,0,0,0,.744.1,4.043,4.043,0,0,1,1.173.229,8.54,8.54,0,0,0,1.771.461,10.846,10.846,0,0,1,1.415.327,2.517,2.517,0,0,0,.782.123,3.957,3.957,0,0,0,2.456-1.027,8.231,8.231,0,0,0,.65-.632c.16-.168.325-.341.5-.5a4.468,4.468,0,0,0,1.274-5.1c-.036-.11-.073-.22-.11-.329a6.678,6.678,0,0,1-.484-2.356,1.192,1.192,0,0,1-.287-.986,1.2,1.2,0,0,0-.278-.979,8,8,0,0,0,.015-1.237,5.324,5.324,0,0,1,.187-2.027,5.619,5.619,0,0,0,.381-2.494,20.125,20.125,0,0,1,.148-4.66c.076-.691.154-1.4.2-2.1a22.532,22.532,0,0,1,.939-4.709,18.333,18.333,0,0,1,.7-1.914c.152-.371.309-.753.448-1.136a11.2,11.2,0,0,1,1.495-2.552c.141-.2.287-.4.425-.606a18.985,18.985,0,0,1,5.6-5.166A21.183,21.183,0,0,1,95.034,7.3,10.694,10.694,0,0,1,96.305,7c.338-.065.688-.131,1.015-.222a4.637,4.637,0,0,1,1.159-.121A3.574,3.574,0,0,0,99.691,6.5a4.223,4.223,0,0,1,1.536-.261c.212,0,.435.011.7.034,1.32.115,2.615.312,4.154.573a16.158,16.158,0,0,1,3.133.986c.244.1.491.192.735.284a18.227,18.227,0,0,1,4.668,2.53,2.945,2.945,0,0,0,.251.165,1.5,1.5,0,0,1,.418.327q.273.352.549.7c.7.889,1.417,1.808,2.036,2.769a19.078,19.078,0,0,0,4.653,4.938,2.8,2.8,0,0,1,.517.593c.073.1.146.2.223.3.158-.056.3-.115.434-.172a2.113,2.113,0,0,1,.734-.217,2.186,2.186,0,0,0,.739-.182c.1-.039.209-.079.317-.111a2.107,2.107,0,0,1,.589-.082,1.883,1.883,0,0,1,.569.083.353.353,0,0,0,.108.017.638.638,0,0,0,.324-.125.645.645,0,0,1,.318-.124.4.4,0,0,1,.242.093.112.112,0,0,0,.069.019,1.169,1.169,0,0,0,.378-.13c.083-.038.169-.077.242-.1s.16-.049.239-.071a1.977,1.977,0,0,0,.526-.2.262.262,0,0,1,.141-.045.441.441,0,0,1,.258.131.455.455,0,0,0,.27.133.318.318,0,0,0,.185-.069.905.905,0,0,1,.483-.109,1.814,1.814,0,0,0,.332-.037,4.214,4.214,0,0,0,.414-.131,3.515,3.515,0,0,1,.493-.149.9.9,0,0,1,.172-.016,1.873,1.873,0,0,1,.605.137,2.474,2.474,0,0,0,.427.12l.034,0a.858.858,0,0,0,.445-.246,1.306,1.306,0,0,1,.449-.275,4.273,4.273,0,0,1,.527-.086,3.08,3.08,0,0,0,.83-.182,1.643,1.643,0,0,1,.6-.133.745.745,0,0,1,.763.65c0,.018.053.027.153.027.073,0,.163,0,.258-.009s.2-.01.293-.01l-.315-.655a1.985,1.985,0,0,0,.376-.226,1.057,1.057,0,0,1,.575-.261.677.677,0,0,1,.461.221c.057-.092.118-.137.184-.137a.327.327,0,0,1,.173.074l.013.009a.281.281,0,0,0,.136.066h.008c.132-.016.233-.138.34-.266s.232-.279.392-.279a.586.586,0,0,1,.394.235c.113-.047.227-.1.337-.147a5.2,5.2,0,0,1,.876-.33.141.141,0,0,1,.034,0,.593.593,0,0,1,.259.109.607.607,0,0,0,.263.112.138.138,0,0,0,.036,0,.669.669,0,0,0,.214-.133.477.477,0,0,1,.268-.139.3.3,0,0,1,.223.133.243.243,0,0,0,.176.109.262.262,0,0,0,.168-.093l.017-.016c.043-.041.08-.076.116-.076a.059.059,0,0,1,.039.015.651.651,0,0,1,.161.324c.017.055.033.112.054.163.99-.315.99-.315,1.23-1.19.078.037.158.071.235.1a2.311,2.311,0,0,1,.5.256,1.6,1.6,0,0,1,.322.365c.041.057.079.111.119.16l.485-.8a7.545,7.545,0,0,0,1.646.325c.6,0,.836-.323,1.3-1.178h.994l.1.217.01.022.15.32c.184-.737.184-.737.925-1.142a.15.15,0,0,1,.039-.006.057.057,0,0,1,.046.019c.032.037.019.123,0,.214l0,.012c-.015.1-.024.181.01.221a.074.074,0,0,0,.059.023.6.6,0,0,0,.266-.113,1.026,1.026,0,0,1,.548-.163,1.222,1.222,0,0,1,.648.2.642.642,0,0,0,.337.077,1.29,1.29,0,0,0,.438-.079c.085-.032.179-.059.27-.084.412-.117.836-.237.765-.9a.2.2,0,0,1,.057-.145.309.309,0,0,1,.236-.1.58.58,0,0,1,.324.119,2.225,2.225,0,0,0,1,.26c.181.02.367.041.555.077-.077-.228-.151-.449-.243-.721l-.034-.1a3.581,3.581,0,0,0,1.142.273,1.285,1.285,0,0,0,.988-.459.167.167,0,0,1,.128-.058.6.6,0,0,1,.2.057l.03.012a.773.773,0,0,0,.292.07.526.526,0,0,0,.277-.082,4.218,4.218,0,0,1,1.477-.435c.242-.042.492-.085.742-.143.021-.146.062-.415.1-.664.025-.012.047-.025.066-.036a.18.18,0,0,1,.08-.034,1.118,1.118,0,0,0,.126.006,10.69,10.69,0,0,0,2.009-.3c.615-.188,1.283-.375,2.1-.588,1.841-.481,3.669-1.107,5.437-1.713,1.392-.477,2.831-.97,4.266-1.388l.859-.251c2-.584,4.059-1.188,6.119-1.692,1.9-.465,3.93-.971,5.92-1.6a16.715,16.715,0,0,1,2.231-.484c.378-.064.768-.13,1.149-.209.174-.036.346-.088.513-.139a5.564,5.564,0,0,1,.54-.145c.413-.082.836-.148,1.245-.213l.538-.086c.184-.03.374-.053.557-.076a6.164,6.164,0,0,0,1.221-.233,10.844,10.844,0,0,1,1.915-.4,10.6,10.6,0,0,0,1.991-.423,3.7,3.7,0,0,1,1.125-.144,4.048,4.048,0,0,0,1.24-.165,3.5,3.5,0,0,1,.935-.14,2.511,2.511,0,0,0,1.106-.227,2.522,2.522,0,0,1,1.061-.268,2.827,2.827,0,0,0,.951-.208,2.922,2.922,0,0,1,1.171-.174,3.844,3.844,0,0,0,1.182-.146.511.511,0,0,1,.166-.025,2.451,2.451,0,0,1,.968.351l.017.009a1.614,1.614,0,0,0,.736.227.964.964,0,0,0,.673-.3A15.47,15.47,0,0,1,214.98.141a.041.041,0,0,1,.027.006.747.747,0,0,0,.531.242,1.728,1.728,0,0,0,.667-.2A4.016,4.016,0,0,1,216.677,0c-.028.113-.051.21-.072.3l0,.007c-.037.154-.066.276-.1.4s-.063.212-.106.345c-.022.067-.044.138-.07.218.7-.229.69-.721.624-1.2.1.056.191.118.272.172a.793.793,0,0,0,.269.147.038.038,0,0,0,.022-.006.726.726,0,0,1,.418-.137,1.655,1.655,0,0,1,.5.109l.039.013a.325.325,0,0,0,.1.015,1.218,1.218,0,0,0,.444-.136,2.03,2.03,0,0,1,.353-.13,1.276,1.276,0,0,1,.281-.029,1.783,1.783,0,0,1,.3.027.653.653,0,0,1,.261.15.538.538,0,0,0,.3.153.366.366,0,0,0,.274-.178.294.294,0,0,1,.229-.14.481.481,0,0,1,.262.118l.022.016a.413.413,0,0,0,.2.1.112.112,0,0,0,.084-.039.636.636,0,0,1,.46-.235,1.083,1.083,0,0,1,.509.188A1.191,1.191,0,0,0,223,.419c.438.04.914.131,1.016.7.007.044.2.1.345.1a.239.239,0,0,0,.122-.024c.041-.026.081-.056.119-.085A.524.524,0,0,1,224.9.965a.3.3,0,0,1,.2.093,3.747,3.747,0,0,0,1.084.635,3.506,3.506,0,0,1,1.153.7.963.963,0,0,0,.565.321h.021l.06,0a.838.838,0,0,1,.682.439l0,.006.065.083a5.013,5.013,0,0,0,.92.915c.09.067.174.141.254.211a1.481,1.481,0,0,0,.948.47,1.01,1.01,0,0,1,.6.4,1.7,1.7,0,0,0,.626.482,20.4,20.4,0,0,1,4.291,2.34c.3.2.605.406.9.6a23.643,23.643,0,0,1,2.959,2.184c.282.257.575.513.859.761.458.4.93.812,1.372,1.242a16.093,16.093,0,0,1,1.79,2.208c.369.515.751,1.048,1.167,1.537a20.557,20.557,0,0,1,2.714,4.58l0,.008c.156.324.317.66.479.988a24.955,24.955,0,0,1,1.807,5.415c.088.375.144.767.2,1.145a6.624,6.624,0,0,0,.628,2.313.245.245,0,0,1,0,.144,5.02,5.02,0,0,0,.126,1.92,6.5,6.5,0,0,1,.176,1.477c-.02.559-.015,1.126-.011,1.675s.009,1.13-.011,1.695a3.566,3.566,0,0,1-.144.769,4.864,4.864,0,0,0-.128.578c-.014.1-.022.205-.03.3a1.909,1.909,0,0,1-.235.914,1.384,1.384,0,0,0-.137.556,1.862,1.862,0,0,1-.151.64c-.077.152.014.379.11.619a2.359,2.359,0,0,1,.137.413.8.8,0,0,1-.067.616.548.548,0,0,1-.429.176A3.309,3.309,0,0,1,250,44.672a3.079,3.079,0,0,0-.416.981,5.508,5.508,0,0,1-.838,1.943,6.012,6.012,0,0,0-.771,1.653,1.494,1.494,0,0,0-.6.89,1.811,1.811,0,0,1-.519.868,3.1,3.1,0,0,0-.688.956,5.657,5.657,0,0,1-.38.629c-.276.375-.581.739-.876,1.09-.155.184-.312.371-.463.558-.018.022-.038.045-.06.069-.082.093-.174.2-.158.27.157.686-.254,1.056-.651,1.415-.093.084-.188.17-.276.259l-.334.344-.04.042c-.613.633-1.246,1.288-1.909,1.89a34.03,34.03,0,0,1-4.282,3.446,12.2,12.2,0,0,0-1.29,1.016,9.736,9.736,0,0,1-1.608,1.207c-.707.389-1.384.841-2.038,1.277-.431.287-.875.583-1.323.859-1.118.687-2.285,1.333-3.414,1.957q-.485.268-.97.538c-.726.406-1.476.793-2.2,1.167-.822.424-1.67.861-2.484,1.327-.32.183-.635.39-.941.589a10,10,0,0,1-1.774,1,15.769,15.769,0,0,0-2.426,1.289c-.412.251-.839.511-1.27.745a33.531,33.531,0,0,0-3.136,2.013c-.409.284-.83.577-1.248.857a16.349,16.349,0,0,0-2.442,2.147c-.281.282-.57.573-.862.851-.1.091-.19.185-.281.276a4.533,4.533,0,0,1-1.129.906,2.846,2.846,0,0,0-1.169,1.392l-.049.105a22.055,22.055,0,0,0-1.374,3.407,3.637,3.637,0,0,0-.093.888,5.064,5.064,0,0,1-.045.672,1.242,1.242,0,0,0,.019.36.739.739,0,0,1-.054.56.626.626,0,0,1-.446.194c-.051.006-.089.344-.09.525,0,.427,0,.855,0,1.269,0,.592,0,1.2-.009,1.808a2.352,2.352,0,0,0,.177.809,1.724,1.724,0,0,1,.122,1.121,1.491,1.491,0,0,1,.354,1.151,2.071,2.071,0,0,0,.184.978,3.087,3.087,0,0,1,.255,1.3,5.458,5.458,0,0,0,.1.891,10.277,10.277,0,0,0,.331,1.073,6.25,6.25,0,0,1,.418,1.676,6.11,6.11,0,0,0,.427,1.728,7.625,7.625,0,0,1,.383,1.334,6.03,6.03,0,0,0,.48,1.4,6.048,6.048,0,0,1,.479,1.4,21.656,21.656,0,0,0,.677,2.7l0,.007c.1.327.2.664.29,1,.023.085-.055.2-.138.32a1.888,1.888,0,0,0-.116.183l.523.179a8.58,8.58,0,0,0,.559,2.667,1.722,1.722,0,0,1,.063.661,2.709,2.709,0,0,0,.013.483,3.284,3.284,0,0,0,.132.5,2.924,2.924,0,0,1,.14.554c.008.072.015.144.021.215a2.121,2.121,0,0,0,.262.995,2.518,2.518,0,0,1,.3,1.185,2.3,2.3,0,0,0,.312,1.2c.088.142.005.292-.075.436-.115.207-.234.421.128.625.258.145.236.39.214.627a.656.656,0,0,0,.048.425,2.672,2.672,0,0,1,.363,1.288,4.057,4.057,0,0,0,.149.847,10.932,10.932,0,0,1,.335,1.475,2.547,2.547,0,0,1,.018.5,1.283,1.283,0,0,0,.242.974c-.121.064-.186.128-.2.2-.016.086.056.167.125.246a.42.42,0,0,1,.127.211,1.534,1.534,0,0,0,.085.344,1.7,1.7,0,0,1,.082.315,4.73,4.73,0,0,1,.018.735l0,.057a.633.633,0,0,1-.045.17c-.023.064-.043.118-.025.133a1.717,1.717,0,0,1,.539,1.383,2.6,2.6,0,0,0,.191.961,2.434,2.434,0,0,1,.174.694,4.16,4.16,0,0,0,.1.5c.041.145.095.292.146.435a2.522,2.522,0,0,1,.22,1.34,1.286,1.286,0,0,0,.283.889,1.871,1.871,0,0,1,.273,1.331v.023a1.93,1.93,0,0,0,.1.865c.043.135.1.3.154.566a5.652,5.652,0,0,0,.28.841,3.527,3.527,0,0,1,.325,1.252,1.835,1.835,0,0,0,.19.668c.18.425.366.865-.119,1.317a2.913,2.913,0,0,0,.22.266l.113.132a1.571,1.571,0,0,1,.3.825,3.372,3.372,0,0,0,.079.392,1.554,1.554,0,0,1-.14,1.41l.249.057.186.043a.461.461,0,0,0,.037.031c.03.023.06.046.063.073.042.331.082.662.121.993.059.5.121,1.008.19,1.517a3.693,3.693,0,0,1,0,.768,2,2,0,0,0,.278,1.468c.07.093.009.2-.062.327-.1.185-.223.395.052.621.07.057-.011.3-.09.532-.036.109-.074.221-.1.313l.5.173a2.438,2.438,0,0,1-.279.875,1.379,1.379,0,0,0-.05,1.556,2.106,2.106,0,0,1-.354.1c-.4.085-.816.173-.762.878l.38-.187.242-.119c.033.025.07.047.1.069.071.043.13.08.129.114-.015.263-.049.528-.081.784l-.024.194c0,.037-.014.086-.022.133a.462.462,0,0,0-.019.165c.414.139.36.408.3.693a.7.7,0,0,0,.1.688c.3.306.088.738-.113,1.155a3.613,3.613,0,0,0-.184.426,6.353,6.353,0,0,0-.253,1.359c-.016.157-.027.321-.037.479a3.379,3.379,0,0,1-.291,1.427,1.8,1.8,0,0,0-.188.881,1.642,1.642,0,0,1-.143.747c-.041.075-.083.15-.125.224a1.988,1.988,0,0,0-.381,1.325,3.714,3.714,0,0,0-.681,1.484,4.425,4.425,0,0,1-.5,1.247.839.839,0,0,1-.363.243c-.069.031-.14.064-.2.1v1.447c-.082.049-.172.092-.259.134-.32.154-.651.312-.648.788a.483.483,0,0,0-.263.265.594.594,0,0,0,.124.433c.1.18.206.367.093.554a1.077,1.077,0,0,0-.122.022.869.869,0,0,1-.167.025.128.128,0,0,1-.086-.024l-.06-.053c-.084-.075-.157-.14-.24-.14s-.149.048-.24.153c-.133.152-.1.218-.046.327a1.148,1.148,0,0,1,.047.1,1.179,1.179,0,0,1-.167.966c-.046.066-.088.1-.116.1a.026.026,0,0,1-.019-.008.555.555,0,0,0-.352-.207c-.139,0-.224.135-.306.266a.6.6,0,0,1-.2.23.412.412,0,0,0-.193.342c.2.779-.314,1.052-.807,1.316-.076.04-.161.086-.238.132-1.5.882-1.545.883-2.705.927l-.071,0c0,.085,0,.174-.007.259a2.756,2.756,0,0,0,.016.578.78.78,0,0,1-.429.848l-.394.239a25.757,25.757,0,0,1-2.334,1.307l-.181.085a8.987,8.987,0,0,1-2.612.925,13.493,13.493,0,0,0-1.62.342A9.5,9.5,0,0,1,195.049,183.612ZM209.611,161.5c-.059.077-.125.153-.189.225a1.734,1.734,0,0,0-.357.516,4.337,4.337,0,0,0-.175.716,5.11,5.11,0,0,1-.142.621c-.1.313-.19.635-.278.946a10.291,10.291,0,0,1-1.006,2.624.767.767,0,0,0-.161.51,2.248,2.248,0,0,1-.642,1.923,6.457,6.457,0,0,0-.781,1.3,4.32,4.32,0,0,1-1.229,1.707l.474.474c.12-.176.237-.339.35-.5a8.222,8.222,0,0,0,.634-.973,16.4,16.4,0,0,1,.876-1.427,7.311,7.311,0,0,0,1.5-3.452c0-.044.053-.083.1-.123a.541.541,0,0,0,.094-.086,2.786,2.786,0,0,0,.652-1.924,4.423,4.423,0,0,1,.494-2.144.655.655,0,0,0-.217-.938h0Zm-4.78-22.568c-.071.14-.151.279-.221.4-.129.224-.231.4-.192.44a1.116,1.116,0,0,1,.238.98,2.539,2.539,0,0,0-.013.4c.006.077.013.155.02.234a3.153,3.153,0,0,1-.042,1.221.716.716,0,0,0,.108.541c.115.235.224.458-.06.7a.973.973,0,0,1,.283.964,2.662,2.662,0,0,0-.013.373c.021.339.016.685.011,1.02,0,.148,0,.3,0,.444v1.287c0,1.407,0,2.856.005,4.28a1.667,1.667,0,0,0,.061.38c.014.058.028.115.039.173a10.026,10.026,0,0,1,.215-1.02,7.277,7.277,0,0,0,.228-1.2c.048-.635.058-1.283.068-1.91a18.818,18.818,0,0,1,.239-3.245,3.863,3.863,0,0,0-.091-1.413,6.8,6.8,0,0,1-.119-.809,23.763,23.763,0,0,0-.664-3.837l-.014-.06Zm-69.417-20.391h0l.142.142c.164.164.347.347.509.51a1.475,1.475,0,0,0,.012-.475c-.031-.421-.066-.9.589-1.1a1.281,1.281,0,0,0,.832.325,1.628,1.628,0,0,0,.681-.168l-.077-.051c-.3-.2-.571-.378-.84-.554l.207-.208a.952.952,0,0,1-.076-.079c-.052-.058-.1-.117-.151-.117-.2.019-.4.029-.574.029a1.476,1.476,0,0,1-.881-.185,1.65,1.65,0,0,0-1.269-.526,5.092,5.092,0,0,0-1.021.141c-.095.02-.187.039-.278.056a5.548,5.548,0,0,0-1.538.643c-.222.12-.45.243-.679.349-.057.027-.114.055-.171.084a1.79,1.79,0,0,1-.539.2.2.2,0,0,1-.116-.068l-.009-.008a.237.237,0,0,0-.141-.075c-.05,0-.1.035-.143.106-.075.115-.14.234-.248.431-.058.107-.127.233-.215.39a1.05,1.05,0,0,1,.4-.077,1.877,1.877,0,0,1,.619.134l.028.01a1.682,1.682,0,0,0,.536.125.77.77,0,0,0,.586-.294h0c.034,0,.346.169.357.27.032.306.236.339.322.339a.409.409,0,0,0,.2-.052,2.477,2.477,0,0,1,1.321-.277h.39a4.3,4.3,0,0,0,.652-.04c.048-.3.09-.565.1-.64l.378.376.273.271-.159.056-.008,0-.013,0,.012,0ZM243.471,44.957c-.171.332-.342.673-.508,1a22.962,22.962,0,0,1-2.812,4.638c-1.038,1.223-2.112,2.371-3.249,3.586-.476.508-.968,1.034-1.457,1.566.069.007.129.018.183.028a.8.8,0,0,0,.134.019.086.086,0,0,0,.057-.016q.319-.27.643-.537c.616-.511,1.252-1.037,1.829-1.6a29.6,29.6,0,0,0,4.095-5.322c.08-.127.163-.254.246-.382a7.662,7.662,0,0,0,1.176-2.385c.07-.3-.062-.37-.178-.433C243.558,45.078,243.49,45.041,243.471,44.957Zm-17.12.209h0c-.061.082-.118.171-.174.257a1.988,1.988,0,0,1-.433.529,1.5,1.5,0,0,1-.46.2,1.113,1.113,0,0,0-.5.246,4.139,4.139,0,0,1-1.319.857c-.1.05-.208.1-.312.152a2.058,2.058,0,0,1-1.12,1.28,5.785,5.785,0,0,0-.508.348c-.141.112-.282.223-.424.333-.331.258-.673.524-.991.808a.759.759,0,0,0-.172.354,1.937,1.937,0,0,1-.062.186,2.363,2.363,0,0,0,.438-.252,1.182,1.182,0,0,1,.662-.276.822.822,0,0,1,.221.032.534.534,0,0,0,.14.022c.178,0,.231-.134.286-.276a.821.821,0,0,1,.1-.2c.072-.093.275-.121.453-.145.143-.02.267-.036.274-.084.068-.452.363-.6.676-.766.087-.045.177-.091.26-.144l.074-.047a4.635,4.635,0,0,0,1.129-.886,1.251,1.251,0,0,1,.818-.4c.1-.019.2-.039.294-.068l-.113-.285-.216-.545H226.6V45.307l-.065-.037-.181-.1ZM85.4,16.657a3.983,3.983,0,0,0-1.594,2c-.065.134-.131.271-.2.4a10.725,10.725,0,0,0-.563,1.435,12.429,12.429,0,0,1-.456,1.209,7.689,7.689,0,0,0-.7,2.91,4.991,4.991,0,0,1-.2,1.048,2.72,2.72,0,0,0-.008,2c.044-.076.091-.151.137-.223a2.916,2.916,0,0,0,.273-.5.8.8,0,0,0,.03-.307,1.043,1.043,0,0,1,.014-.261c.105-.469.222-.943.335-1.4.049-.2.1-.4.145-.591s.108-.389.167-.578a3.627,3.627,0,0,0,.244-1.59,18.165,18.165,0,0,0,.764-1.981,12.314,12.314,0,0,1,1.268-2.878,3.187,3.187,0,0,0,.236-.466C85.328,16.813,85.363,16.734,85.4,16.657Zm139.823.4v0a1.564,1.564,0,0,1-.893,1.192,3.522,3.522,0,0,0-.311.209v.818l.176.115.069.045c.167.11.324.214.483.311s.328.2.489.291l.213.125,0,.008c-.374.685-.374.685.09,1.022l.011.008.071.051c.173.122.388.275.41.435.039.287.136.421.3.421a.7.7,0,0,0,.217-.047l.017-.006a.625.625,0,0,1,.174-.041l.025,0c-.044-.516-.086-1-.128-1.489.431-.279.277-.563.129-.838a1.086,1.086,0,0,1-.148-.375,1.307,1.307,0,0,0-.4-.694.016.016,0,0,0-.012,0,1.31,1.31,0,0,0-.319.169c-.083.051-.168.1-.243.144l-.234-.5-.27-.581.557.228L226,18.2a.426.426,0,0,0,.033-.345c-.051-.1-.172-.128-.29-.157s-.233-.057-.254-.155a2.8,2.8,0,0,1-.026-.695c0-.122.01-.246.01-.381H223.5c-.08-.214-.129-.345-.219-.586l-.052-.138c-.076,1.131-.076,1.131.418,1.561l.085-.249.092-.27.371.348.333.312.469-.261.007,0,.222-.124ZM94.818,13.964h0l-.232.208-.144.13.184.21.058.066-.446.35-1.509,1.184c.016.019.044.049.071.077.073.076.156.162.139.189-.111.184-.239.36-.363.531s-.236.326-.341.5l-.083.132-.01.016a2.5,2.5,0,0,0-.518,2.458,3.558,3.558,0,0,0,.556-.515,1.675,1.675,0,0,1,1.223-.721c.039,0,.08,0,.121.006-.031-.079-.073-.162-.114-.242-.086-.168-.166-.325-.118-.4s.1-.151.144-.228a3.6,3.6,0,0,1,.991-1.18,2.4,2.4,0,0,0,1.038-1.172c.125-.432.368-.478.675-.536a2.09,2.09,0,0,0,.468-.13l-1.791-.932Z" transform="translate(0 0)"/>
    </g>
    <path id="leaf" class="cls-2" d="M72.354,55.735c2.868,3.828,5.338,7.009,6.676,10.663,1.3,3.565,1.832,5.188-1.127,1.5a65.693,65.693,0,0,0-9.1-9.96c-.266.061-.548.121-.85.182C33.865,64.89,9.031,49.556,13.393-.011c26.26,9.093,63.447,5.4,59.6,51.983a12.946,12.946,0,0,1-.639,3.763Zm-9.149-7.447C54.64,29.833,32.624,23.5,21.707,10.88,33.564,34,40.03,32.977,63.206,48.288Z" transform="translate(916.02 286.673)"/>
    <g id="_24" data-name="24" transform="translate(821 195)">
      <path id="Fill_351" data-name="Fill 351" class="cls-1" d="M11.658,9.367a3.7,3.7,0,0,0-1.287,2.461c-.085.542-.58.616-.953.712a1.6,1.6,0,0,0-.88.36.616.616,0,0,1-.585.048A8.807,8.807,0,0,1,6.6,12.1,19.392,19.392,0,0,1,3.048,7.581,41.324,41.324,0,0,1,.156,2.467C-.089,1.9-.1,1.909.518,1.473c.5.953.968,1.921,1.509,2.845.429.734.948,1.414,1.471,2.181a.711.711,0,0,0-.071-.782A29.373,29.373,0,0,1,.617.921L1.044.642l.245.212V.228L2.435,0c.342.159.5.764,1.067.839-.018.612.517.917.785,1.364A14.339,14.339,0,0,0,5.392,3.649c.361-.048.631-.1.9-.118.957-.067.934-.037,1.53.489.662.584,1.115,1.4,1.97,1.772a.233.233,0,0,1,.119.166c.027.615.371.838.948.987.484.126.622.636.644,1.138.017.385.088.767.152,1.284" transform="translate(96.294 73.047)"/>
      <path id="Fill_353" data-name="Fill 353" class="cls-1" d="M.611.642C1.3.985,1.3.985,1.665.268,2.133.107,2.7.43,3.123,0A13.809,13.809,0,0,0,4.554.347c.781.107,1.185.712,1.626,1.22.3.345.613.692.887,1.067.32.439.7.832,1.024,1.27.291.4.54.826.8,1.246a.733.733,0,0,1,.153.381.911.911,0,0,0,.317.78c.446.45.411,1.11.566,1.672a4.975,4.975,0,0,1,.015,1.68c-.017.214-.046.67-.516.333-.033-.024-.2.151-.311.217s-.323.2-.365.166c-.5-.436-.617-.124-.844.307-.334.634-.538.587-1.434.427-.546-.1-1.124-.115-1.443-.588A8.653,8.653,0,0,1,3.16,6.339a2.554,2.554,0,0,0-.772-1.811C1.922,4.121,1.613,3.54.977,3.314.785,3.245.645,3.017.5,2.848A1.87,1.87,0,0,1,0,1.583C-.009,1.058.406.94.611.642" transform="translate(21.926 10.379)"/>
      <path id="Fill_355" data-name="Fill 355" class="cls-1" d="M5.141,10.465C4.582,9.906,4.113,9.358,3.566,8.9,2,7.6,1.251,5.759.313,4.045A4.713,4.713,0,0,1,.03,1.577c0-.145.2-.285.32-.437L.877,2.183V.641A3.867,3.867,0,0,0,1.751.188.839.839,0,0,1,2.587.051a3.328,3.328,0,0,1,.838.506A3.062,3.062,0,0,0,3.966,2.75c.353-.1.77.155,1.124-.208a.455.455,0,0,1,.427-.019c.867.521,1.93.8,2.368,1.868.079.193.166.442.324.528.239.129.024.533.434.548.337.013.122.357.182.544a5.148,5.148,0,0,1,.218.7,4.053,4.053,0,0,1,.008.673A6.89,6.89,0,0,0,7.2,10.13l-2.058.335" transform="translate(90.609 43.336)"/>
      <path id="Fill_357" data-name="Fill 357" class="cls-1" d="M1.665,1.136c.206-.28.366-.514.544-.734A.881.881,0,0,1,2.468.213c.266-.149.455.272.752.089A1.9,1.9,0,0,1,3.991,0c.22-.021.547.244.666.159.264-.19.422-.247.651.01.043.047.2.012.3-.012.72-.174.719-.176,1.1.524L6.889.164a5.831,5.831,0,0,1,.273.759,5.609,5.609,0,0,1,.085.867,1.879,1.879,0,0,0,.167.885l.109-1.086.116,0a5.663,5.663,0,0,1,.06.577c.006.977-.04,1.956.016,2.929a3.617,3.617,0,0,1-.583,2.346c-.182-.174-.354-.438-.561-.017-.227.46-.589.425-1.058.214-.078.5-.113,1.089-.941.9V7.282l-.166-.033-.4,1.294c-.37-.248-.673-.511-.613-1.032.017-.146-.154-.306-.209-.469-.238-.71-.234-.712-.824-.729-.113,0-.225,0-.338,0H1.716C1.43,6.026,1.172,5.752.9,5.5A3.086,3.086,0,0,1,.029,3.491c-.046-.37.034-.756-.019-1.125a1.411,1.411,0,0,1,.336-.992C.714.8.915.788,1.665,1.136" transform="translate(0.006 0)"/>
      <path id="Fill_359" data-name="Fill 359" class="cls-1" d="M8.572,5.821c-.482.327-.946.655-1.429.951-.047.029-.215-.142-.4-.268a4.067,4.067,0,0,1-.3.531,6.579,6.579,0,0,1-.473.483c-.318.328-.625.693-1.095.195-.036-.038-.145,0-.22-.008-.528-.057-1.031.075-1.563-.35a12.337,12.337,0,0,1-1.375-1A5.742,5.742,0,0,1,.688,5.09,3.857,3.857,0,0,1,.03,2.66a3.389,3.389,0,0,1,.332-.736l.7.574c.184-.61.146-1.319.712-1.857l.7.525V.342A9.424,9.424,0,0,1,4.638.005,1.642,1.642,0,0,1,5.7.425a6.294,6.294,0,0,1,1.055,1c.256.385.606.707.875,1.1a14.071,14.071,0,0,1,.913,2.109,3.048,3.048,0,0,1,.027,1.187" transform="translate(58.974 4.256)"/>
      <path id="Fill_361" data-name="Fill 361" class="cls-1" d="M.664.482V2.906A5.655,5.655,0,0,0,.869,1.059C.876.811.759.5,1.059.355A3.387,3.387,0,0,1,2.032,0c.115-.017.334.256.4.434a2.1,2.1,0,0,1,.016.671c.187-.078.3-.169.4-.158.206.023.49.214.6.137C4.028.653,4.671.937,5.278.9a1.05,1.05,0,0,1,.822.391c.323.549.975.717,1.317,1.362a1.574,1.574,0,0,0,.334.984,2.28,2.28,0,0,1,.58,1.782,6.939,6.939,0,0,0-.01,1.069c-.77.457-1.571.9-2.339,1.4A2.035,2.035,0,0,1,3.764,7.7c-.5-.262-1.169-.384-1.337-1.081C1.311,6.116,1.112,4.94.517,4.052a4.654,4.654,0,0,1-.5-1.924C-.079,1.6.29,1,.454.432l.21.05" transform="translate(19.043 31.19)"/>
      <path id="Fill_363" data-name="Fill 363" class="cls-1" d="M1.56,4.1.013,2.558A9.115,9.115,0,0,1,.033,1.3C.055,1.138.288.975.462.88.527.844.7,1,.82,1.065.984.74,1.08.3,1.635.407a.445.445,0,0,0,.32-.03,1.067,1.067,0,0,1,.93-.354A4.453,4.453,0,0,1,4.718.74a8.163,8.163,0,0,1,2.39,3.052,12.46,12.46,0,0,1,.691,2.3,1.093,1.093,0,0,1-.421,1.084c-.642.449-1.259.935-1.915,1.362a1.365,1.365,0,0,1-.8.223,3.388,3.388,0,0,1-3.3-2.769,2.315,2.315,0,0,1-.2-.8,5.285,5.285,0,0,1,.4-1.08" transform="translate(40.004 39.789)"/>
      <path id="Fill_365" data-name="Fill 365" class="cls-1" d="M9.049,6.131l-.134-.679c0,.9-.952,1.235-1.159,2a.447.447,0,0,1-.645.243c-.273-.247-.459-.067-.613.034a1,1,0,0,1-1.176,0A7.515,7.515,0,0,1,2.161,5.08C1.3,4.616,1.054,3.675.522,2.959A5.551,5.551,0,0,1,0,1.665c.315-.459.772-.337,1.325-.061A1.844,1.844,0,0,0,1.177.955c-.151-.2.01-.283.1-.319A3.334,3.334,0,0,0,2.385.046c.078-.075.3-.046.437,0,.246.075.456.232.729.01.077-.063.329.063.488.132a6.971,6.971,0,0,1,3.4,2.672,3.281,3.281,0,0,0,.536.539c.524.487.622,1.2,1.028,1.721a.885.885,0,0,1,.051,1.016" transform="translate(35.331 78.574)"/>
      <path id="Fill_367" data-name="Fill 367" class="cls-1" d="M7.408,1.784c.03-.208.06-.417.093-.647.082.06.155.083.174.129A13.647,13.647,0,0,1,8.5,3.412c.107.476.243.932-.218,1.3-.314.253,0,.978-.7.938-.333.535-.867.481-1.377.445a7.963,7.963,0,0,1-.337,1.018c-.169.35-.711.449-1.291.284-.133-.038-.261-.167-.382-.156-.94.082-.939.089-1.334-.652a11.147,11.147,0,0,1-.589-1.11,1.635,1.635,0,0,0-.953-.971A2.149,2.149,0,0,1,.022,2.863,1.839,1.839,0,0,1,.811,1.119l.993,1.3c0-.546-.006-.913,0-1.28s.047-.29.625-.55C2.843.4,3.441.624,3.678.051L4.9,0c.753-.03,1.42.052,1.771.889a4.049,4.049,0,0,0,.736.891" transform="translate(105.539 30.256)"/>
      <path id="Fill_369" data-name="Fill 369" class="cls-1" d="M1.581,9.281A1.555,1.555,0,0,1,.3,7.9,9.574,9.574,0,0,1,.009,5.742a19.441,19.441,0,0,0,0-2.93C-.03,2.34.273,1.991.266,1.55c0-.115.158-.337.233-.332.582.033.858-.6,1.468-.6.4,0,.806-.381,1.259-.618.447.447,1.4-.106,1.758.879-.237.692.353,1.3.553,2.008.028.1.132.187.133.281.01,1.116.006,2.232.006,3.444l-.453-.4c.061.262.049.463.139.531s.3-.008.431.037c.061.02.094.182.1.282,0,.046-.1.147-.133.14-.273-.053-.543-.128-.838-.2L4.343,8.25,3.668,8.2c.322.325-.048.442-.182.641a7.085,7.085,0,0,0-.344.631c-.711-.077-.976-.535-1.166-1.142l-.395.951" transform="translate(0 28.248)"/>
      <path id="Fill_371" data-name="Fill 371" class="cls-1" d="M1.806,4.057c-.584-.017-1.137-.174-1.42.473C-.091,3.9-.147,3.456.338,2.956a7.125,7.125,0,0,1,.984-1.073c.374-.261.512-.838.834-1.205A4.974,4.974,0,0,1,3.093,0l.374.367L2.937.744,3,.879,3.8.753c.077.116.167.412.358.512A7.4,7.4,0,0,1,6.745,3.893,9.332,9.332,0,0,1,7.239,5.04c.456.922.574,1.093.435,1.931a3.076,3.076,0,0,1-.687,1.746,1.284,1.284,0,0,0-.4.725c-.025.63-.371.73-.879.7a1.354,1.354,0,0,0-.431.046c-.887.239-.979.214-1.421-.466A14.19,14.19,0,0,1,2.508,6.442c-.269-.791-.475-1.6-.7-2.385" transform="translate(82.927 85.418)"/>
      <path id="Fill_373" data-name="Fill 373" class="cls-1" d="M7.091,8.852A7.735,7.735,0,0,1,5.317,7.668C4.364,6.706,3.341,5.8,2.461,4.779A14.566,14.566,0,0,1,0,1.373C.059.874.709,1.4.722.816c0-.168.416-.331.644-.49.567-.4.884-.462,1.3-.022a2.481,2.481,0,0,0,1.414.7,7.976,7.976,0,0,1,2.1,1.2,9.853,9.853,0,0,1,1.907,1.67,10.681,10.681,0,0,1,.985.867,3.01,3.01,0,0,1,.624,1.153,1.181,1.181,0,0,1-.322.855c-.237.276-.35.675-.765.809-.24.077-.206.345-.253.567-.054.254-.125.563-.565.244-.308-.222-.567.093-.7.483" transform="translate(63.277 68.23)"/>
      <path id="Fill_375" data-name="Fill 375" class="cls-1" d="M4.449,9.252A4.914,4.914,0,0,1,2.058,6.778,20.676,20.676,0,0,1,.774,4.157C.416,3.257-.209,2.4.07,1.27.884,1.838.816,2.923,1.6,3.648A30.24,30.24,0,0,0,.563.406l.742.407c.035-.2.072-.4.109-.608L2.487,0c.105.168.243.417.407.647.64.9.643.892,1.8,1.3a1.912,1.912,0,0,1,.369.2,5.67,5.67,0,0,1,2.213,2.2A3.85,3.85,0,0,1,7.7,5.77a.481.481,0,0,0,.14.275.273.273,0,0,1-.082.462c-.507.286-.727.85-1.178,1.187a.759.759,0,0,0-.261.572,1.1,1.1,0,0,1-.977.674c-.183-.042-.3-.378-.55-.13a4.311,4.311,0,0,0-.346.443" transform="translate(111.396 61.297)"/>
      <path id="Fill_377" data-name="Fill 377" class="cls-1" d="M6.93,5.858l-.689.114.277.519L4.847,8.161a1.69,1.69,0,0,0-.313,0A2.859,2.859,0,0,1,1.72,6.812,10.247,10.247,0,0,1,.33,4.575a2.348,2.348,0,0,1-.27-1.667l1.069,2.35L1.312,5.2a2.168,2.168,0,0,0-.087-.429C1,4.226.735,3.694.519,3.145c-.1-.243-.3-.546.222-.659C.9,2.451,1,2.1,1.119,1.9c.108-.181.212-.363.3-.509.528-.048.533.413.862.6l-.254-.964.62-.492c.142.142.331.367.507-.049.19-.45.471-.625.926-.33.041.027.127.048.154.025.527-.434.838,0,1.082.331A10.968,10.968,0,0,1,6.52,3.168c.082.213.261.713-.34.737-.034,0-.06.188-.089.288.125.03.317.127.365.079a.266.266,0,0,1,.485.181c-.2.476.267.936-.01,1.4" transform="translate(72.334 38.366)"/>
      <path id="Fill_379" data-name="Fill 379" class="cls-1" d="M.636.727l.467.467c.037-.319.068-.583.1-.87.465-.1.944-.22,1.431-.292a3.049,3.049,0,0,1,.9,0c.224.035.048.451.465.488.27.024.477.482.669.8.156.259-.077.819.514.786q.03.55.062,1.1a1.045,1.045,0,0,0,.015.106L6.936,4.994A3.564,3.564,0,0,1,7.488,5c.28.045.582.323.439.5-.32.383.253.648.026.961a3.192,3.192,0,0,1-1.86.167l.528,1.142c-.113.109-.263.374-.41.374-.931-.007-1.91.229-2.74-.432A3.972,3.972,0,0,1,2.8,7.167c-.4-.5-.756-1.033-1.12-1.559-.179-.26-.333-.538-.5-.8-.267-.41-.188-1-.677-1.3A2.4,2.4,0,0,0,.111,2.2,1.083,1.083,0,0,1,.636.727" transform="translate(74.538 19.392)"/>
      <path id="Fill_381" data-name="Fill 381" class="cls-1" d="M3.677.029H4.72c.4,0,.839-.067.932.516A.285.285,0,0,0,5.884.7c.477-.071.6.38.893.579A3.3,3.3,0,0,1,7.884,3.522c.113.468-.038.8-.57,1.122A4.48,4.48,0,0,0,5.559,5.873c-.362.007-.658.573-1.081.12a.438.438,0,0,0-.3-.086A3.536,3.536,0,0,1,1.117,4.025a5.105,5.105,0,0,1-1-1.729A5.954,5.954,0,0,1,0,1.444c-.007-.094.048-.256.113-.28C.688.959,1.1.47,1.661.271A4.486,4.486,0,0,1,3.677.029" transform="translate(36.634 3.345)"/>
      <path id="Fill_383" data-name="Fill 383" class="cls-1" d="M.494.828l.523.823c.053-.393.073-.528.089-.663.05-.448.049-.447.615-.5.071-.007.18,0,.205-.038a.892.892,0,0,1,1.068-.4A3.7,3.7,0,0,1,4.308.662,10.4,10.4,0,0,1,7.17,5.1a2.907,2.907,0,0,1,.015.972l-.432-.048c.029.405-.063.705-.537.8a.558.558,0,0,0-.35.384c-.048.488-.549.25-.724.5-.279-.444-.76.094-1.074-.224s-.712-.538-.911-.9A12.568,12.568,0,0,1,2.045,4.132,1.465,1.465,0,0,0,1.382,3.2,2.92,2.92,0,0,1,.141,1.894C-.082,1.41-.092,1.414.494.828" transform="translate(38.006 57.34)"/>
      <path id="Fill_385" data-name="Fill 385" class="cls-1" d="M1.171,3.31A1.557,1.557,0,0,1,1.18,2.9c.024-.094.185-.157.2-.247s-.1-.211-.1-.318.133-.211.106-.281a.851.851,0,0,0-.264-.338,1.059,1.059,0,0,0-.344-.1l.184.64c-.4-.243-.842-.437-.647-1.023l.528.227C.906.754.252,1.121,0,.787.369.831.614.577.985.626c.172.023.4-.343.659-.592L2.9,1.059,3.02.321,4.68,0c.289.369.514.7.789.994.239.25.567.417.8.673A6.336,6.336,0,0,1,7.476,4.21c.1.323.2.835-.418.922,0,.594-.623.683-.906,1.059a1.335,1.335,0,0,1-1.656.28A6.139,6.139,0,0,1,2.172,4.5c-.323-.386-.687-.749-1-1.192" transform="translate(58.501 41.72)"/>
      <path id="Fill_387" data-name="Fill 387" class="cls-1" d="M1.014,2.744l.56.191C1.615,1.984.633,1.718.5.843a2.355,2.355,0,0,1,.478.218,7.914,7.914,0,0,1,.581.571,1.445,1.445,0,0,0-.4-.912C1.745,0,1.745,0,2.446,0A6.257,6.257,0,0,0,3.655,1.308c.546.333.706.9,1.108,1.311a5.643,5.643,0,0,1,.894,1.422,1.617,1.617,0,0,1,.213.91c-.058.363-.213.9-.47,1-.422.17-.328.469-.461.726a1.257,1.257,0,0,1-.889.768c-.267.044-.585.248-.781.159a4.143,4.143,0,0,1-1.322-.864A22.663,22.663,0,0,1,.119,4.46c-.143-.2-.077-.546-.119-.937l.425.343c-.083-.576.421-.774.589-1.121" transform="translate(77.273 56.935)"/>
      <path id="Fill_389" data-name="Fill 389" class="cls-1" d="M7.864,5.059l-.6-.331c-.254.917-.317.965-1.067.635l.529,1.231-.6.348L4.982,5.8c-.244.55.428.8.362,1.336-.6.084-.953-.326-1.3-.7-.19-.206-.292-.494-.488-.693A24.962,24.962,0,0,1,1.171,2.894a1.936,1.936,0,0,0-.237-.24A2.254,2.254,0,0,1,0,1.145c.439-.269.672.145.971.4.3-.5-.4-.57-.367-.94C.63.16,1.48.73,1.264,0H2.487c.35.246.7.49,1.053.743a6.578,6.578,0,0,0,1.007.826c.415.2.69.676,1.055,1,.238.21.389.5.77.593.275.068.422.486.841.432.116-.015.326.2.386.345a8.477,8.477,0,0,1,.264,1.122" transform="translate(64.485 96.049)"/>
      <path id="Fill_391" data-name="Fill 391" class="cls-1" d="M4.915,3.007c.389.026.657-.175,1.012.081l-.454.157c.133.453.282.9.391,1.361.028.118-.034.35-.116.384-.453.191-.59.679-.943.946a1.242,1.242,0,0,1-.594.18c-.1.011-.223-.143-.325-.133a1.154,1.154,0,0,0-.37.2c-.194-.685-.184-.713-.947-.973-.457-.156-.552-.6-.876-.887l-.221.471c-.114-.119-.306-.228-.305-.336.006-1.346,0-1.376-.61-2.182C.21,2.882.874,3.234.91,3.83.745,3.8.5,3.823.471,3.753c-.289-.7-.729-1.364-.278-2.206.14-.261.165-.4.48-.4A1.211,1.211,0,0,0,1.248.917C1.7.634,2.127.326,2.606,0l.186.278c.377.263.771-.445.834.293.018.21.487-.29.487.258,0,.212.39.425.586.62l-.2.528.167.116.32-.608.473.8-.539.721" transform="translate(59.672 22.551)"/>
      <path id="Fill_393" data-name="Fill 393" class="cls-1" d="M3.8,6.06,3.1,5.183l-.287.587a2.533,2.533,0,0,1-.976-.891C1.289,4.1.863,3.247.306,2.47A2.076,2.076,0,0,1,.078.771c.515-.1.626.5,1.055.654V.325L3.443,0a6.055,6.055,0,0,1,1.6,2.247c.2.48.613.84.739,1.39.05.217-.229.509.114.671a2.763,2.763,0,0,1-.105.266c-.559-.2-.747.609-1.285.479-.035-.009-.13.2-.183.313a3.5,3.5,0,0,1-.159.384A2.1,2.1,0,0,1,3.8,6.06" transform="translate(22.822 53.239)"/>
      <path id="Fill_395" data-name="Fill 395" class="cls-1" d="M2.618.006,3.066,1.04,3.274.49c.051.031.133.053.144.093A2.272,2.272,0,0,0,3.983,1.6a2.7,2.7,0,0,1,.4.621,1.269,1.269,0,0,0,.947.732l.182-.369.619.464c0,.141.015.2,0,.212-.2.133-.414.258-.6.375.056.309.105.588.18,1.007l-.79-.385-.456.918-.547.062v.5a1.05,1.05,0,0,1-1.524-.081C1.855,5.166,1.25,4.753.7,4.171l.7-.459A3.4,3.4,0,0,0,.73,2.452,7.73,7.73,0,0,1,0,1.09C.331.682.592.984.9,1.111.909,1,.961.876.925.794.7.285.8.033,1.277.011c.451-.021.9,0,1.341,0" transform="translate(49.019 72.954)"/>
      <path id="Fill_397" data-name="Fill 397" class="cls-1" d="M.505,1.712l.537.794c.05-.156.119-.257.1-.341C1.068,1.758.968,1.354.864.894h.657l.264.549V.52A1.293,1.293,0,0,0,2.1.4c.175-.13.453-.427.481-.4.287.236.642.094.92.2a1.045,1.045,0,0,1,.8.966c0,.158-.211.334-.18.467.026.108.316.132.4.254a.446.446,0,0,1,0,.426c-.293.234-.228.536-.208.819a.569.569,0,0,1-.444.658c-.336.1-.414.31-.484.631a.859.859,0,0,1-.937.733,2.173,2.173,0,0,0-.547.035c-.449.1-1.015-.01-1.155-.339A5.088,5.088,0,0,1,.011,2.344c.036-.369.258-.473.494-.632" transform="translate(18.983 75.715)"/>
      <path id="Fill_399" data-name="Fill 399" class="cls-1" d="M.124,1.345l.934.274A.855.855,0,0,0,.934.58c.4-.36.659.183,1.048.124.036-.2.075-.4.112-.6.3-.326.578.275.946-.008s.471.336.79.408A1.03,1.03,0,0,1,4.3.883c.424.52.49,1.256,1.062,1.711.137.109.064.482.094.813-.633-.311-.672.694-1.282.456-.188.3-.01.854-.7.92L3.134,4.19l-.273.57c-.384.091-.56-.24-.687-.451A4.685,4.685,0,0,0,.509,2.65a.924.924,0,0,1-.385-1.3" transform="translate(55.589 55.76)"/>
      <path id="Fill_401" data-name="Fill 401" class="cls-1" d="M4.607,3.626,3.174,4.75H2.225c-.369-.534-.49-1.237-1.034-1.678A3.052,3.052,0,0,0,.172,1.348C.03,1.183.06.869,0,.561.163.516.325.519.409.44c.867-.811,1.684-.355,2.375.2A7.447,7.447,0,0,1,4.289,2.369a3.773,3.773,0,0,1,.318,1.257" transform="translate(45.61 23.467)"/>
    </g>
    <g id="_86" data-name="86" transform="translate(1039 301)">
      <path id="Fill_1" data-name="Fill 1" class="cls-1" d="M2.3,54h0c-.188-.109-.384-.212-.574-.311C.715,53.159-.239,52.66.054,51.232q.041-.2.081-.4a10.8,10.8,0,0,1,.823-2.785c.293-.574.585-1.158.868-1.723a54.4,54.4,0,0,1,3.983-7.064A13.528,13.528,0,0,1,16.52,33.1c1.053-.041,2.151-.061,3.356-.061,2.249,0,4.537.072,6.75.141.963.03,1.959.062,2.938.086.564.014,1.135.032,1.688.049,1.276.04,2.6.081,3.887.081,6.508,0,9.693-1.264,11.95-2.5,4.207-2.3,6.83-4.794,8.5-8.071,2.547-4.991,4.774-8.943,7.007-12.437C66.335,4.55,71.5,1.129,77.942.22,78.1.2,78.27.164,78.448.13A5.307,5.307,0,0,1,79.409,0a1.057,1.057,0,0,1,.56.128,6.5,6.5,0,0,1,1.985,2.143.732.732,0,0,1,0,.513,1.681,1.681,0,0,1-.551.931,6.842,6.842,0,0,1-1.513.592,10.1,10.1,0,0,0-1.093.377,10.375,10.375,0,0,0-1.367.768c-.183.115-.371.234-.558.345a.935.935,0,0,0-.128.1c-.072.062-.139.12-.2.12h-.011a3.535,3.535,0,0,0-.391-.022,4.638,4.638,0,0,0-3.128,1.633,9.487,9.487,0,0,1-1.357,1.1,17.077,17.077,0,0,0-4.523,4.185,38.808,38.808,0,0,0-3.273,5.225c-.78,1.44-1.558,2.913-2.309,4.337-1.045,1.981-2.126,4.029-3.232,6.02a9.691,9.691,0,0,1-2.111,2.648,30.052,30.052,0,0,1-8.1,5.256,26.278,26.278,0,0,1-10.384,1.8c-2.041,0-4.128-.134-6.147-.264-.6-.039-1.216-.078-1.825-.114-2.553-.15-4.854-.275-7.175-.275-1.581,0-3,.058-4.35.179-4.2.375-7.655,2.712-10.865,7.355a10.708,10.708,0,0,1-1.255,1.415,10.952,10.952,0,0,0-1.234,1.385,4.85,4.85,0,0,0-.591,1.448,8.436,8.436,0,0,1-.31.933c-.36.856-.743,1.692-1.149,2.577C2.659,53.212,2.48,53.6,2.3,54ZM79.343.849l-2.268.626L72.539,2.728l.037.131c.024.087.048.174.072.262l4.359-1.246,2.426-.694c-.015-.055-.03-.111-.045-.166S79.358.9,79.343.849Z" transform="translate(13 7)"/>
      <path id="Fill_3" data-name="Fill 3" class="cls-1" d="M2.335,52.24a1.133,1.133,0,0,1-.6-.238C0,50.835-.278,50.066.224,47.889,2.073,39.87,6.8,33.346,14.686,27.942c2.523-1.729,5.593-2.535,9.664-2.535.31,0,.634,0,.963.014a40.56,40.56,0,0,1,7.492,1.089c1.392.306,2.776.753,4.115,1.186.87.281,1.769.572,2.662.822a11.312,11.312,0,0,0,3.077.4,29.515,29.515,0,0,0,4.883-.551l.289-.049a16.33,16.33,0,0,0,8.438-3.894,17.883,17.883,0,0,0,4.84-7.958,26.081,26.081,0,0,1,5.258-9.435A26.277,26.277,0,0,1,75.09.651,7.328,7.328,0,0,1,77.011.164c.3-.048.616-.1.916-.164l.136.4.045.13-.464.393-.45.381h1.278a2.841,2.841,0,0,1,.352,2.2,3.763,3.763,0,0,1-1.263,1.756c-.118.1-.235.2-.352.308a4.906,4.906,0,0,1-3.232,1.641l-.109,0h-.019c-.166,0-.424.066-.469.172a1.641,1.641,0,0,1-1.54,1.206,3.2,3.2,0,0,1-1.293-.338c-.021.215-.027.432-.033.643a3.308,3.308,0,0,1-.2,1.289,4.311,4.311,0,0,1-.971,1.2c-.112.109-.228.222-.336.334C66.7,14.09,65.571,17.13,64.477,20.07c-.193.518-.392,1.052-.594,1.575A20.917,20.917,0,0,1,61.531,26.2a12.474,12.474,0,0,1-3.739,3.552,3.431,3.431,0,0,1-.979.335c-.212.052-.453.11-.722.19a3.539,3.539,0,0,1-2.821,1.975,3.981,3.981,0,0,0-1.365.5,4.144,4.144,0,0,1-1.331.5c-.384.045-.776.094-1.155.142a40.837,40.837,0,0,1-5.007.419c-.534,0-1.029-.021-1.512-.065a26.834,26.834,0,0,1-6.9-1.88,25.494,25.494,0,0,0-9-1.653,27.1,27.1,0,0,0-5.783.64,12.362,12.362,0,0,0-7.2,4.248,9.357,9.357,0,0,1-1.219,1.178c-.261.224-.531.455-.779.7a33.709,33.709,0,0,0-7.429,10.8c-.287.672-.572,1.357-.847,2.02-.244.587-.5,1.192-.748,1.786C2.843,51.927,2.664,52.24,2.335,52.24ZM17.678,27.582h0l-1.333.758-2.09,1.19.048.086.155.28L17,28.5l.907-.5-.227-.41Zm34.508.794-3.467.934-.735.2.045.167.045.17,2.1-.569,2.1-.569Z" transform="translate(0 0.423)"/>
      <path id="Fill_6" data-name="Fill 6" class="cls-1" d="M66.338,3.664c-.534.582-1.078,1.157-1.6,1.749-.224.254-.634.713-.574.794a1.647,1.647,0,0,1-.633,2.424c-1.518,1.073-1.021,2.6-1.231,3.95a3.269,3.269,0,0,1-1.874,2.205c-.06-.367-.119-.726-.178-1.085a3.943,3.943,0,0,0-.962.49,18.974,18.974,0,0,0-1.309,1.481l1.276.248c.074.462.145.907.215,1.346-1.388.511-2.787.757-3.85,1.946-.578.647-1.379.949-.921,2.016.039.091-.514.6-.6.554-2.164-1.121-3.34.876-4,1.922a4.215,4.215,0,0,1-1.876,1.652c-.537.252-1.349-.092-2.041-.148a2.889,2.889,0,0,0-.619.1c.031.411.06.784.087,1.147-1.24.526-1.24.526-4.053-.253-.25,1.55-1.512,2.072-3.145,1.229l-.192.642c-1.689-.037-3.455-1.731-4.908.751-1.279-1.406-2.6-.8-4.056-.067a5.645,5.645,0,0,1-2.411.3,34.7,34.7,0,0,0-9.8,1.2c-1.58.47-2.918,1.427-4.408,1.862-3.218.939-4.694,3.785-6.949,5.746-1.058.92-1.6,2.427-2.4,3.651-.488.747-.7,1.925-2.113,1.227a1.746,1.746,0,0,1-1-2.559c2.359-6.164,6.173-10.953,12.46-13.649,4.734-2.029,9.666-2.055,14.638-2.189,3.214-.087,6.423-.313,9.637-.457.5-.022,1.344-.472,1.119.7l.006-.023-.621.235c-.005.072-.01.145-.015.217a4.357,4.357,0,0,0,.931.071c.355-.046.7-.3,1.042-.288,2.767.1,5.1-1.235,7.415-2.4A75.051,75.051,0,0,0,53.9,18.093a13.379,13.379,0,0,0,1.857-1.772l-.041.034,1.648-1.305-1.933-.12c.91-1.1,1.667-2.155,2.565-3.069.594-.606,1-.341,1.428.735l2.113-.147c-.376-.505-.692-.932-.916-1.232-.594-.049-1.33.065-1.451-.156a2.5,2.5,0,0,1-.076-1.529,10.06,10.06,0,0,1,.631-2.08A7.136,7.136,0,0,1,60.658,6.2c-.266-1.1.2-2.227,2.151-4.734l.9.443c-.175-1.7,0-1.97.833-1.9V1.748l-.028-.039c.292.6.584,1.193.91,1.86l.655-.182.262.276" transform="translate(24.206 28.041)"/>
      <path id="Fill_9" data-name="Fill 9" class="cls-1" d="M1.8,14.332l-.258-.273c.182-1.931.1-2.017-1.541-1.659l.028.039,1.86-1.771L.447,9.745c.526-.306.9-.536,1.291-.743.128-.068.351-.026.426-.119A23.725,23.725,0,0,1,13.3,1.6C15.286.915,17.387.551,19.442.058A5.215,5.215,0,0,1,20.36,0l.129.433L12.757,2.7l.1.377,8-2.211c.931,2.054.787,2.307-1.128,3.129-2.512,1.08-4.984,2.254-7.482,3.366-.5.221-.969.571-1.564-.04-.242-.247-.95-.041-1.577-.041V6.359L7.183,7.576,8.6,7.746c0,.136.035.243,0,.293-.433.547-1.081.814-1.026,1.834.038.7-.885.675-1.3.017l-1.3,1.446c.1,1.278-.822,2.025-2.541,1.518a3.185,3.185,0,0,1,.134,1.125c-.044.172-.5.24-.765.354" transform="translate(89.251 16.33)"/>
      <path id="Fill_12" data-name="Fill 12" class="cls-1" d="M6,.428.279,3,0,2.614a8.461,8.461,0,0,1,.786-.5C2.114,1.444,3.441.778,4.794.15A3.8,3.8,0,0,1,5.827,0L6,.428" transform="translate(68 47)"/>
      <path id="Fill_14" data-name="Fill 14" class="cls-1" d="M0,2C.916.208,2.593.542,4,0,3.933.968,2.738,1.525.01,1.966A.248.248,0,0,0,0,2" transform="translate(62 50)"/>
      <path id="Fill_16" data-name="Fill 16" class="cls-1" d="M3,.9a8.534,8.534,0,0,0-1.573.255A8.619,8.619,0,0,0,0,2C.131.964,1.346-.143,2.131.015c.339.068.553.594.826.911L3,.9" transform="translate(77 43)"/>
    </g>
  </g>
</svg>
