<svg xmlns="http://www.w3.org/2000/svg" width="289.866" height="233.762" viewBox="0 0 289.866 233.762">
  <defs>
    <style>
      .cls-1 {
        fill: #9ddbcd;
      }

      .cls-2 {
        fill: #fff;
        stroke: #fff;
        stroke-width: 3px;
      }
    </style>
  </defs>
  <g id="intro-screen-image-1" transform="translate(-815.002 -199)">
    <g id="_80" data-name="80" transform="translate(815 255)">
      <path id="Fill_1" data-name="Fill 1" class="cls-1" d="M221.936,160.359a59.077,59.077,0,0,1-10.816-1.025,71.774,71.774,0,0,1-10.519-2.845c-3.749-1.315-7.5-2.821-11.131-4.278l-.008,0c-1.845-.741-3.753-1.506-5.637-2.238-1.236-.479-2.5-.95-3.721-1.405l-.019-.007c-1.618-.6-3.292-1.227-4.923-1.878a18.672,18.672,0,0,1-1.83-.89,18.553,18.553,0,0,0-1.841-.894c-1.054-.418-2.151-.778-3.212-1.127-.656-.216-1.333-.438-2-.673-.365-.129-.744-.25-1.111-.367a12.055,12.055,0,0,1-3.15-1.341,2.223,2.223,0,0,0-.993-.371c-.119-.021-.242-.043-.373-.077-.176-.046-.309-.224-.451-.414a2.235,2.235,0,0,0-.265-.313,1,1,0,0,0-.435-.207.033.033,0,0,0-.026.008.87.87,0,0,1-.677.364,1.816,1.816,0,0,1-.7-.2,4.033,4.033,0,0,0-.393-.155c-2.42-.758-5.3-1.645-8.285-2.478l-1.325-.37-.022-.006c-2.968-.83-6.038-1.689-9.092-2.376-3.476-.782-7.258-1.512-11.905-2.3-3.638-.618-7.354-1.126-10.949-1.618l-.767-.1c-1.531-.209-3.092-.4-4.6-.58l-.014,0c-1.642-.2-3.339-.4-5.015-.637-.695-.1-1.392-.261-2.066-.419-.583-.137-1.185-.279-1.784-.377a1.252,1.252,0,0,0-.206-.016,3.408,3.408,0,0,0-.566.065l-.011,0a3.409,3.409,0,0,1-.548.063.99.99,0,0,1-.329-.05,6.029,6.029,0,0,0-1.562-.256,4.337,4.337,0,0,1-2.275-.609.663.663,0,0,0-.385-.1,3.5,3.5,0,0,0-.641.088l-.021,0a3.774,3.774,0,0,1-.7.092,1.3,1.3,0,0,1-.185-.012,5.754,5.754,0,0,1-1.337-.431c-.2-.084-.411-.17-.619-.243a.769.769,0,0,0-.236-.057.152.152,0,0,0-.073.016,2.037,2.037,0,0,1-.982.3,1.017,1.017,0,0,1-1.009-.84c-.206.014-.4.029-.593.045H89.6c-.419.034-.812.065-1.2.066h-.011a5.252,5.252,0,0,1-.63-.05,5.14,5.14,0,0,0-.617-.05,1.888,1.888,0,0,0-.319.025,2.172,2.172,0,0,1-.358.034.592.592,0,0,1-.486-.171c-.177-.216-.1-.62-.018-1.01h-.017l-.4-.041h-.008l-.617-.065c-.1-.011-.2-.025-.3-.038h-.007a5.012,5.012,0,0,0-.672-.061c-.247,0-.737.038-.752.126-.105.627-.21,1.038-.693,1.038a1.805,1.805,0,0,1-.657-.164.821.821,0,0,0-.314-.056,3.779,3.779,0,0,0-1.256.354l0,0-.214.085a1.371,1.371,0,0,1-.467.114.292.292,0,0,1-.228-.085c-.11-.119-.114-.353-.086-.692a.747.747,0,0,0-.209-.432,2.23,2.23,0,0,1-.14-.2,1.625,1.625,0,0,0-.085.144.6.6,0,0,1-.212.263c-.157.078-.319.173-.476.264a2.81,2.81,0,0,1-1.294.5h-.015c-1-.012-2.014-.088-3-.16-1.075-.08-2.186-.162-3.278-.162-.15,0-.3,0-.441,0-1.6.035-3.23.154-4.8.269-1.721.126-3.5.256-5.245.277-2.349.028-4.733.229-7.039.423-2.488.209-5.058.426-7.59.426a33.535,33.535,0,0,1-5.479-.411c-.478-.079-.966-.155-1.438-.229l-.012,0a39.436,39.436,0,0,1-6.664-1.438,35.871,35.871,0,0,1-5.972-2.923c-.388-.221-.789-.449-1.186-.67a43.214,43.214,0,0,1-10.423-7.519c-3.795-3.96-7.592-8.417-9.66-14.162-.325-.9-.691-1.807-1.045-2.681-.527-1.3-1.071-2.648-1.489-4.007a13.259,13.259,0,0,1-.774-4.918,25.52,25.52,0,0,0-.532-6.7c-.067-.4-.144-.845-.213-1.277A45.4,45.4,0,0,1,.348,68.134,51.951,51.951,0,0,1,3.516,55.8a89.063,89.063,0,0,1,6.836-13.985A59.7,59.7,0,0,1,23.863,26.213a36.793,36.793,0,0,1,9.22-5.9c1.634-.658,3.263-1.409,4.839-2.134,2.039-.939,4.143-1.908,6.277-2.688,5.971-2.185,12.442-4.213,19.3-4.251l.589,0c2.781,0,5.609.1,8.344.2h.013c1.858.068,3.779.139,5.669.176.6.012,1.233.018,1.945.018.944,0,1.9-.01,2.83-.02h.157c.873-.009,1.777-.018,2.665-.018q.413,0,.826,0h.208c5,0,9.867-1.246,14.573-2.451.782-.2,1.591-.407,2.388-.605a242.909,242.909,0,0,1,36.416-6.412c2.393-.221,4.825-.475,7.177-.721l.025,0C152.271.893,157.393.357,162.445.1c1.338-.068,2.667-.1,3.951-.1,9.535,0,17.729,1.84,25.05,5.626a51.555,51.555,0,0,1,12.748,9.764c1.348,1.349,2.752,2.681,4.11,3.97,2.133,2.023,4.336,4.114,6.359,6.3a46.942,46.942,0,0,0,6.907,5.8c.455.334.971.713,1.464,1.081,1.792,1.337,3.745,2.522,5.633,3.667l.018.011.735.447c4.255,2.592,9.011,4.15,13.61,5.656,1.382.453,2.811.921,4.2,1.41,3.488,1.224,6.981,2.617,10.359,3.964,1,.4,2.131.85,3.217,1.278a1.046,1.046,0,0,1,.412.472,2.6,2.6,0,0,0,.2.3.355.355,0,0,0,.226.146h.017a3.791,3.791,0,0,1,2.78,1.371,3.156,3.156,0,0,0,1.1.614,3.807,3.807,0,0,1,1.008.519c.652.53,1.321,1.061,1.968,1.575a65.289,65.289,0,0,1,6.242,5.4,43.659,43.659,0,0,1,5.654,7.489,60.063,60.063,0,0,1,4.356,8.493,86.449,86.449,0,0,1,3.109,9.171,49.711,49.711,0,0,1,1.747,18.8,57.749,57.749,0,0,1-5.193,18.589c-.929,2.018-2.074,4.191-3.6,6.837a16.691,16.691,0,0,1-1.45,2.017c-.331.416-.674.846-.982,1.286-.265.38-.5.789-.728,1.185s-.481.836-.759,1.228a49.409,49.409,0,0,1-11.357,11.061c-.468.346-.922.726-1.361,1.093-.283.236-.574.48-.866.712a4.021,4.021,0,0,1-.745.472c-.792.383-1.605.773-2.322,1.117l-.011.005c-1.541.74-3.135,1.5-4.692,2.278a1.459,1.459,0,0,0-.432.408,1.178,1.178,0,0,1-.474.417c-.2.068-.408.131-.607.192l-.006,0a4.724,4.724,0,0,0-2.539,1.407.6.6,0,0,0-.433-.277.5.5,0,0,0-.386.261,1.888,1.888,0,0,0-.12.2c-.021.04-.032.061-.037.061a1.784,1.784,0,0,0-.511-.08,2.3,2.3,0,0,0-1.524.813,2.842,2.842,0,0,1-1.124.749,3.649,3.649,0,0,0-.493.185,2.056,2.056,0,0,1-.767.222h-.065a1.01,1.01,0,0,0-.474.211,1.043,1.043,0,0,1-.49.216c-.2,0-.343-.18-.451-.567l-.335.207-.005,0c-.277.172-.563.35-.85.518a3.559,3.559,0,0,1-1.557.595l.2-.149.042-.031.379-.277c-7.079,1.719-14.023,3.26-21.148,3.26-1.518,0-3.023-.072-4.474-.213.009.164.018.327.028.49l13.963-.4.015.03.007.015c-.59.062-1.189.132-1.769.2l-.013,0h-.006c-1.276.149-2.6.3-3.9.381C224.127,160.327,223.026,160.359,221.936,160.359Zm13.677-3.295-.263.071-.016,0q-.35.095-.7.188a.3.3,0,0,1-.074.007.465.465,0,0,0-.051,0L223.72,158.9c-.006.055-.011.11-.016.165v.008l2.366-.317.15-.02c2.715-.364,5.522-.74,8.282-1.134a2.131,2.131,0,0,0,.762-.339C235.378,157.195,235.5,157.123,235.613,157.064Zm-20.868-26.656a1.083,1.083,0,0,0-.227.021c-.03.006-.048.071-.065.134-.008.028-.016.057-.025.079.045.011.091.026.136.04a1.049,1.049,0,0,0,.3.064c.375,0,.776.006,1.3.006h1.421l-.014-.08-.9-.088c-.533-.052-1.137-.111-1.728-.166C214.865,130.412,214.8,130.408,214.745,130.408Zm16.321-3.679c-.617,0-1.245.053-1.853.1l-.093.008c-1.513.127-3.052.264-4.539.4h-.015c-3.147.281-6.4.572-9.609.778-3.359.215-6.78.351-10.088.482-1.427.057-2.9.115-4.374.18l-.013.181c.294.056.591.124.879.189l.01,0a12.214,12.214,0,0,0,1.935.331c1.073.066,2.173.1,3.361.1,3.006,0,6.057-.212,9.008-.417l1.471-.1c.463-.032.951-.046,1.538-.046.48,0,.969.01,1.441.02h.008c.483.01.982.021,1.472.021.3,0,.571,0,.828-.012.123,0,.259-.006.44-.006h.405a3.707,3.707,0,0,0,2.26-.451,2.85,2.85,0,0,1,1.83-.649c.039,0,.079,0,.12,0a4.176,4.176,0,0,1,.741.091l.011,0a4.155,4.155,0,0,0,.729.089,1.636,1.636,0,0,0,.211-.013,6.734,6.734,0,0,0,1.444-.417c.2-.073.4-.148.6-.214.125-.04.25-.087.37-.132l.006,0,.142-.053a2.107,2.107,0,0,1-.156-.175c-.114-.138-.231-.28-.349-.282Zm-42.649-1.2c0,.122,0,.244,0,.366,1.1.528,4.97.819,10.9.819,5.455,0,12.061-.253,17.675-.678,6.189-.468,10.435-1.079,11.957-1.72-2.1.126-4.208.267-6.244.4-4.587.308-9.329.626-13.982.764-2.352.07-4.872.1-7.931.1-2.067,0-4.164-.015-6.192-.029H194.6c-2.027-.014-4.124-.029-6.185-.029ZM88.026,125.37H88.01c-.517.057-1.04.139-1.546.218l-.5.078c.067.088.137.2.2.315.139.23.271.447.378.447h.009a6.281,6.281,0,0,0,1.406-.4l.008,0,.309-.112c.041-.015.086-.1.107-.181.015-.057.017-.1,0-.116C88.294,125.5,88.14,125.37,88.026,125.37Zm2.3-3.58a1.229,1.229,0,0,0-.148.007c-.189.023-.38.054-.565.084l-.017,0-.239.038a2.565,2.565,0,0,1,.183.219c.13.167.264.34.421.367.659.116,1.325.183,2.031.254l.025,0c.259.026.528.053.8.083a2.039,2.039,0,0,0-1.684-1.17.817.817,0,0,0-.343.068.7.7,0,0,1-.289.046h-.176Zm134.79-3.173-43.277.961c5.59.494,11.4.745,17.269.745A193.617,193.617,0,0,0,225.111,118.617Zm-42.021-.227h0v.045c0,.029,0,.059,0,.087h11.462c0-.022,0-.045,0-.067v-.065Zm40.352-7.046h0c-.368.025-.747.054-1.082.08-.772.059-1.567.121-2.349.143-2.385.067-4.81.131-7.155.193h-.007c-4.8.127-9.755.257-14.639.424a5.05,5.05,0,0,0-1.653.462c-.251.1-.509.205-.764.288q.066.236.134.471c.932.018,1.9.028,2.869.028a187.443,187.443,0,0,0,24.663-1.767c0-.054-.006-.107-.009-.161S223.444,111.4,223.441,111.344Zm-47.607.374h0l-2.924.3-.127.013-1.519.158.019.2.011.118,2.459-.227.556-.051,1.576-.145,0-.035c-.015-.112-.029-.224-.045-.335Zm42-1.081h0l-19.665.561v.025c.009.194.017.388.025.582l9.423-.423.4-.018,9.821-.441v-.285Zm-15.492-4.128c0,.137,0,.274,0,.411l3.57.209c0-.149.008-.3.012-.445Zm1.289-1.524a3.723,3.723,0,0,0-1.086.247c-.246.08-.524.17-.832.247a35.762,35.762,0,0,0,7.493.532,147.649,147.649,0,0,0,16.023-.952c4.2-.488,9.753-1.356,12.359-2.717l-.448.05c-.219.024-.391.043-.567.065-1.712.218-3.452.455-5.135.684l-.014,0c-3.872.527-7.873,1.072-11.825,1.43l-.344.031c-3.437.312-6.99.635-10.5.635a46.99,46.99,0,0,1-4.985-.247A1.344,1.344,0,0,0,203.632,104.986ZM242.206,99.1c-10.452,2.18-21.094,2.958-31.385,3.71.757.01,1.555.015,2.37.015C224.692,102.826,233.911,101.642,242.206,99.1Zm-5.79-4.282-8.282.989-11.282,1.348.776,0a64.527,64.527,0,0,0,18.788-2.34Zm-18.655-3.247c-5.738.036-10.166.08-14.359.145a1.466,1.466,0,0,0-.665.263c-.1.061-.207.122-.309.169.1.044.2.1.294.151a1.651,1.651,0,0,0,.647.25c1.365.09,2.767.136,4.169.136a75.745,75.745,0,0,0,11.426-.908c-.129-.023-.259-.053-.386-.082a3.666,3.666,0,0,0-.806-.123h-.012Zm-31.458.042c.343,0,.627.01.893.031,1.249.1,2.5.249,3.713.392h.005c.5.059,1.015.119,1.514.175.089-.017.171-.029.249-.041a2.264,2.264,0,0,0,.423-.091c.208-.076.414-.171.612-.263.088-.041.173-.08.259-.118a3.382,3.382,0,0,1-.278-.193,1.318,1.318,0,0,0-.61-.315c-3.425-.271-7.036-.529-11.363-.812H181.7a.7.7,0,0,0-.557.328.683.683,0,0,0,.122.439c.056.089.114.144.161.152a23.221,23.221,0,0,0,2.726.322c.191.01.4.014.631.014.256,0,.523-.006.758-.011S186.048,91.614,186.3,91.614Zm44.49-2.047h0l-.8.085-8.365.889.005.07.016.2,9.23-.635q-.021-.151-.041-.3l-.007-.054-.035-.257ZM30.561,80.839h0l-.714.332-.778.362.078.172.078.172.839-.348.68-.282,0-.011q-.089-.2-.178-.4Zm151.867-4.034h0l-3.823.376.028.2.037.267,1.914-.241,1.914-.241-.035-.18Zm-26.852-1.7c0,.047-.008.094-.012.141s-.008.09-.011.136h5.921c0-.046,0-.092-.006-.138s0-.092-.006-.138ZM124.25,73.782l-1.576.172-.235.026-1.341.146c.006.058.013.116.019.174l.01.092,1.316-.139,1.837-.193C124.27,73.967,124.26,73.875,124.25,73.782Zm21-4.04h0c1.643.094,3.311.26,4.924.42,2.507.249,5.1.506,7.657.506.421,0,.838-.007,1.241-.021,0-.07,0-.14.007-.21v-.014c0-.076.005-.153.008-.23l-6.919-.226ZM39.1,66.152a10.552,10.552,0,0,0-3.706,1.039c-1.429.641-2.4,1.315-2.53,1.758L35.309,67.9l.283-.121,3.77-1.614A2.221,2.221,0,0,0,39.1,66.152Zm-5.8-2.359h0l-.055.125c-.046.1-.093.212-.144.317l-.011.022a.451.451,0,0,1-.122.177,1.679,1.679,0,0,1-.221.115c-.086.04-.16.074-.156.092.051.2.133.473.252.5l.147.034a3.707,3.707,0,0,0,.825.132,1.141,1.141,0,0,0,.339-.046c1.347-.411,1.541-.805,1.3-2.635-.351.078-.539.407-.721.725-.2.348-.387.677-.771.678a1.312,1.312,0,0,1-.66-.236Zm104.091-7.721c-.5,0-.939.005-1.338.016-1.776.048-3.415.136-5.011.271-1.275.107-2.567.257-3.817.4-.537.062-1.092.127-1.645.188l.041.41.025.257,1.587-.126h.012c1.362-.109,2.769-.221,4.155-.318.693-.049,1.432-.1,2.176-.1.152,0,.3,0,.445.006.48.013.967.058,1.439.1.567.052,1.151.105,1.724.105.12,0,.237,0,.348-.007,1.009-.041,2.034-.132,3.024-.22,1.015-.09,2.063-.184,3.1-.223.065,0,.132,0,.2,0a11.151,11.151,0,0,1,1.559.149c.4.057.807.115,1.21.139h.019a.962.962,0,0,0,.486-.236,2.6,2.6,0,0,1,.233-.155,1.61,1.61,0,0,1-.1-.151c-.072-.115-.146-.235-.237-.252l-.311-.059-.032-.006a12.507,12.507,0,0,0-2.045-.274c-.137,0-.281,0-.428,0-.615,0-1.241.025-1.846.05h-.007c-.526.021-1.067.043-1.6.049-.2,0-.413,0-.651,0-.42,0-.858,0-1.244-.007h-.127C138.293,56.077,137.842,56.073,137.392,56.073Zm12.31.449c-.315,0-.688,0-1.069.013a.073.073,0,0,0-.045.03.391.391,0,0,0-.091.235c.011.106.112.3.169.3.508-.032,1.02-.085,1.516-.136l.362-.037-.02-.3-.007-.109H149.7ZM19.958,43.008h0c-.036.022-.077.042-.117.062a.487.487,0,0,0-.222.16,1.326,1.326,0,0,0-.1.467c.268.063.416.147.451.255.042.133-.088.28-.214.422a1.364,1.364,0,0,0-.149.187c-1.227,2.075-2.484,4.178-3.7,6.212l0,.007-.923,1.546.2.131.009.006.205.135,7.653-12.321a26.382,26.382,0,0,0-1.834,2.056l-.005.006q-.216.26-.433.518a1.347,1.347,0,0,0-.133.219c-.091.171-.185.348-.314.348-.112,0-.233-.136-.37-.414Zm131.112,8.13c-.06,0-.123,0-.187.008-1.885.153-3.782.3-5.617.438l-.023,0-2.122.163,0,.1-.006.24.245.022.053.005c.225.021.455.043.681.054l1.52.072c1.714.082,3.486.167,5.237.213h.028c.416,0,1.121-.213,1.141-.382a.819.819,0,0,0-.162-.665,1.006,1.006,0,0,0-.783-.271Zm-2.52-1.96c-.455,0-.943.022-1.493.068a110.255,110.255,0,0,0-17.843,3.02c.235.028.426.063.579.09a2.679,2.679,0,0,0,.438.058.62.62,0,0,0,.156-.018,11.935,11.935,0,0,1,2.973-.252,9.679,9.679,0,0,0,3.963-.569,11.862,11.862,0,0,1,4.221-.646c.545-.019,1.1-.038,1.641-.083q.038,0,.077,0a2.366,2.366,0,0,1,.8.205c.137.052.276.1.411.143.1-.448.3-.657.62-.657a2.127,2.127,0,0,1,.637.15l.016.005a2.247,2.247,0,0,0,.68.155.7.7,0,0,0,.644-.42c.03-.056.116-.084.263-.084a5.356,5.356,0,0,1,.752.093l.079.013a6.268,6.268,0,0,0,.953.107c.047,0,.092,0,.134,0a1.892,1.892,0,0,0,.842-.392c.124-.083.252-.169.378-.238a3.3,3.3,0,0,1-.255-.264c-.18-.2-.367-.41-.568-.428C149.306,49.194,148.936,49.178,148.551,49.178Zm.745-2.566h-.011c-.515.029-1.04.05-1.548.07h-.01a35.092,35.092,0,0,0-4.411.363c-3.751.632-7.543,1.4-11.211,2.144H132.1l-1.436.291c-.974.2-1.95.459-2.9.713h-.005c-.438.118-.89.239-1.337.353l.067.447c.108,0,.218,0,.324-.005a3.391,3.391,0,0,0,.7-.05c.554-.12,1.111-.257,1.649-.39.942-.232,1.913-.471,2.88-.621,3.511-.543,7.076-1.069,10.524-1.577,2.207-.325,4.488-.661,6.753-1a.764.764,0,0,0,.36-.238,2.036,2.036,0,0,1,.162-.144,2.048,2.048,0,0,1-.177-.141A.7.7,0,0,0,149.3,46.612ZM54.674,45.454h0l-6.371,2.3.047.128.078.214,6.429-2.346-.049-.082Zm-14.279-.465-1.668.893-.757.4.08.147,0,.006q.07.128.141.256l1.207-.678,1.164-.653-.069-.153Zm105.07-3.46a3.258,3.258,0,0,0-.461.035l-1.8.257H143.2c-2.709.386-5.51.784-8.26,1.206l-.19.029c-1.754.269-3.567.547-5.315.964-1.6.383-3.147.832-4.786,1.308-.695.2-1.413.41-2.133.612.171.025.349.066.521.105a3.927,3.927,0,0,0,.852.132,1.425,1.425,0,0,0,.265-.023c2.27-.429,4.568-.884,6.79-1.324l.023,0c2.6-.514,5.281-1.046,7.928-1.536,1.461-.271,2.961-.47,4.412-.661.839-.111,1.7-.225,2.549-.352a.762.762,0,0,0,.352-.23,1.986,1.986,0,0,1,.162-.14c-.049-.036-.1-.08-.143-.121a.807.807,0,0,0-.34-.22A2.161,2.161,0,0,0,145.465,41.53Zm.335-.854-2.613.274c0,.052.009.105.013.158s.007.1.011.144l.873-.068,1.746-.137c-.006-.082-.013-.164-.019-.246l-.01-.126Zm-13.628-4.248-4.727.961.029.13v.005c.02.089.04.178.061.267l.668-.161,4.02-.968-.014-.06C132.2,36.544,132.185,36.485,132.172,36.428ZM211.331,29.2a1.6,1.6,0,0,1-.007.182.551.551,0,0,0,.04.35c.287.383.568.779.841,1.163,1.349,1.9,2.745,3.865,5.172,4.714.191.067.391.116.584.163l.006,0c.087.021.174.043.261.066.018-.091.036-.183.053-.275-.281-.247-.59-.484-.889-.713a7.206,7.206,0,0,1-1.782-1.714,15.956,15.956,0,0,0-3.664-3.74l-.161-.132a.5.5,0,0,0-.3-.059A1.427,1.427,0,0,1,211.331,29.2ZM72.912,26.191c-5.76,0-11.808,1.139-19.034,3.584l22.282-3.46C75.1,26.234,74.007,26.191,72.912,26.191ZM207.357,25h0l1.476,1.173.333.265c-.237-.656-.417-1.152-.575-1.588l-.194-.536L207.357,25l-.019-.025A1.646,1.646,0,0,0,207.4,23.6a2.07,2.07,0,0,0-1.469-.8l.089.14c.452.712.879,1.385,1.314,2.04l-.018.049.036-.024ZM136.025,9.731a.067.067,0,0,0-.02,0c-.5.153-1,.334-1.489.509l-.012,0-.457.164.084.2.092.217c.167-.035.334-.069.5-.1.452-.091.919-.184,1.369-.308.13-.036.231-.3.264-.454,0-.01-.005-.025-.021-.044A.594.594,0,0,0,136.025,9.731Zm31.232-8.2c-11.733.524-22.063,1.375-31.58,2.6a237.411,237.411,0,0,0-31.13,6A269.124,269.124,0,0,1,135.725,4.5C146.694,3.111,157.82,2.219,167.257,1.528Zm-20.588,7.5h0L146,9.082l-.037,0h-.006c-.7.054-1.429.11-2.14.2-.095.012-.173.16-.25.3a1.991,1.991,0,0,1-.108.186,1.631,1.631,0,0,1,.16.067.773.773,0,0,0,.294.093.244.244,0,0,0,.046,0c.663-.127,1.331-.275,1.978-.419l.047-.01.679-.15Zm17.074-1.2c-.092,0-.184,0-.273,0-.956.03-1.925.135-2.861.237l-.051.005-.756.08c-1.036.106-2.107.216-3.177.377a9.146,9.146,0,0,0-1.524.412c-.168.056-.395.248-.386.354a.593.593,0,0,0,.354.418,1.736,1.736,0,0,0,.436.046c.087,0,.176,0,.262-.007l.176-.006c.6-.013,1.2-.029,1.787-.045,1.152-.031,2.343-.064,3.522-.072h.118c.51,0,1,.019,1.592.044.523.022,1.063.045,1.6.045h.113c1.187-.006,2.394-.042,3.56-.076h.027q.688-.02,1.375-.039l3.02-.08.455-.012.267-.007,3.186-.084q0-.083,0-.165t0-.162l-.763-.213-.059-.017c-.913-.255-1.857-.519-2.787-.768a.1.1,0,0,0-.027,0,.361.361,0,0,0-.15.054l-.006,0a.393.393,0,0,1-.164.058c-1.711-.043-3.428-.1-4.733-.14-.467-.015-.962-.039-1.56-.076-.307-.019-.618-.046-.918-.072C164.855,7.877,164.293,7.828,163.742,7.828Zm-11.371.933c-.957,0-1.921.014-2.854.028h-.093l-.943.013.016.541.884.058.148.01c1.145.077,2.33.156,3.5.207h.007c.11,0,.227-.12.34-.236a1.938,1.938,0,0,1,.163-.156,2.044,2.044,0,0,1-.133-.181c-.095-.139-.192-.283-.29-.283Q152.744,8.761,152.371,8.761Z" transform="translate(0 0)"/>
    </g>
    <g id="acorn-svgrepo-com" transform="translate(927.227 236.694) rotate(45)">
      <g id="Group_7" data-name="Group 7" transform="translate(53.289 -3.536)">
        <path id="Path_35" data-name="Path 35" class="cls-2" d="M123.076,27.022A17.344,17.344,0,0,0,110.941,20c-5.858-.633-11.753-.973-17.652-1.028A30.338,30.338,0,0,0,92.119,11C90.25,4.7,86.365.9,80.885.02a1.614,1.614,0,1,0-.514,3.187c4.208.679,7.112,3.586,8.632,8.641a27.233,27.233,0,0,1,1.056,7.127c-5.945.051-11.887.392-17.791,1.029A17.287,17.287,0,0,0,57.182,40.692a1.614,1.614,0,0,0,1.579,1.287,1.633,1.633,0,0,0,.329-.034q.885-.183,1.772-.355a26.63,26.63,0,0,0-1.49,9.074A37.109,37.109,0,0,0,75.352,81.842a48.439,48.439,0,0,0,15.895,7.522,1.608,1.608,0,0,0,.717,0,48.433,48.433,0,0,0,15.895-7.522,37.109,37.109,0,0,0,15.981-31.178,26.629,26.629,0,0,0-1.49-9.074q.885.173,1.77.355a1.614,1.614,0,0,0,1.908-1.253A17.3,17.3,0,0,0,123.076,27.022ZM116.082,68.31a35.629,35.629,0,0,1-10.02,10.848,46.671,46.671,0,0,1-14.457,6.967,46.667,46.667,0,0,1-14.457-6.967A35.629,35.629,0,0,1,67.128,68.31,34.5,34.5,0,0,1,62.6,50.664,22.322,22.322,0,0,1,64.647,40.9a159.125,159.125,0,0,1,53.916,0,22.319,22.319,0,0,1,2.048,9.767A34.5,34.5,0,0,1,116.082,68.31ZM123.1,38.446a162.534,162.534,0,0,0-62.993,0A14.06,14.06,0,0,1,72.615,23.214a177.089,177.089,0,0,1,37.98,0A14.06,14.06,0,0,1,123.1,38.446Z" transform="translate(-56.825 0)"/>
      </g>
    </g>
    <g id="_12" data-name="12" transform="translate(865 199)">
      <path id="Fill_507" data-name="Fill 507" class="cls-1" d="M3.032,50.815a.422.422,0,0,1-.315-.1.615.615,0,0,1-.095-.446,1.231,1.231,0,0,0-.016-.292c-.1-.425-.447-.55-.782-.671a1.939,1.939,0,0,1-.424-.191C-.262,48-.062,46.345.115,44.886a23.192,23.192,0,0,1,2.293-6.751l.072-.158A50.19,50.19,0,0,1,8.4,28.2a53.6,53.6,0,0,1,7.93-8.213A69.44,69.44,0,0,1,34.791,9.048c1.989-.822,4.069-1.493,6.081-2.141.815-.263,1.657-.534,2.481-.812,2.236-.753,4.623-1.538,7.055-2.136,4.466-1.1,8.208-1.858,11.774-2.395A117.629,117.629,0,0,1,79.577,0c.835,0,1.668.014,2.477.043a38.216,38.216,0,0,1,10.3,1.818,5.234,5.234,0,0,1,1.614.792c.06.046.126.092.19.136.323.224.658.455.564.883a1.112,1.112,0,0,1-1.21.854l.072.031c.654.281,1.271.546,1.382,1.007a1.286,1.286,0,0,1-.42,1.06c-.12.144-.061.249.009.37.02.035.041.071.058.11a1.3,1.3,0,0,1,.09,1.087,1.438,1.438,0,0,1-.987.672A.568.568,0,0,0,94,8.99c.2.05.382.1.309.391-.059.24-.274.271-.455.271-.065,0-.13,0-.192-.009l-.03,0c-2.481-.167-5.008-.184-7.451-.2l-.767-.005c-.391,0-.786,0-1.174,0a130.381,130.381,0,0,0-13.572.673c-4.25.441-8.645,1.086-13.437,1.972a38.845,38.845,0,0,0-5.179,1.414A139.471,139.471,0,0,1,83.689,9.819c3.246,0,6.544.117,9.8.348a.967.967,0,0,1-.784.327c-.116,0-.234-.011-.348-.021s-.2-.019-.3-.02c-1.479-.025-2.939-.038-4.338-.038A152.951,152.951,0,0,0,57.8,12.99c-2.912.571-5.818,1.344-8.628,2.091l-1.283.341a3.67,3.67,0,0,1-.958.144c-.051,0-.1,0-.154,0a4.844,4.844,0,0,1-2.025.872c-.277.071-.563.145-.835.237a66.415,66.415,0,0,0-9.158,3.767,5,5,0,0,1-2.247.706,2.905,2.905,0,0,1-.65-.075,1.792,1.792,0,0,0-.384-.056c-.127,0-.206.031-.236.092-.045.094.024.259.208.491a.287.287,0,0,1,.086.231c-.021.09-.126.14-.228.188-.037.018-.072.034-.1.053-.461.274-.925.563-1.373.842A29.356,29.356,0,0,1,26.3,24.894a3.944,3.944,0,0,0-1.022.719,4.45,4.45,0,0,1-.7.538,20.7,20.7,0,0,0-3.087,2.364c-.583.507-1.185,1.032-1.811,1.505a14.427,14.427,0,0,0-1.89,1.835c-.27.3-.548.6-.836.893-.136-.15-.06-.283.007-.4s.116-.2.005-.292a.422.422,0,0,0-.266-.09.376.376,0,0,0-.341.174,2.749,2.749,0,0,1-.444.608,1.438,1.438,0,0,0-.511,1.4.555.555,0,0,1-.1.489.508.508,0,0,1-.384.207l-.04,0c-.064-.007-.126-.017-.183-.025a1.834,1.834,0,0,0-.25-.027c-.08,0-.129.018-.154.057-.046.071-.017.214.094.464a.254.254,0,0,1,0,.148.711.711,0,0,0-.012.07,1.993,1.993,0,0,0-.269-.02c-.713,0-.775.507-.835,1a1.428,1.428,0,0,1-.244.781A27.2,27.2,0,0,0,11.2,39.65c-.535.748-1.087,1.522-1.706,2.234a15.625,15.625,0,0,0-2.25,3.843A11.59,11.59,0,0,1,5.58,48.55a4.592,4.592,0,0,0-.967,1.491c-.22.67-.709.708-1.228.748-.076.006-.153.012-.23.02A1.227,1.227,0,0,1,3.032,50.815ZM51.559,13.693c-1.9,0-9.8,2.555-10.437,3.376a10.632,10.632,0,0,1,2.684-1.037l.006,0,.315-.09c.214-.062.43-.147.639-.229a3.68,3.68,0,0,1,1.318-.338,1.721,1.721,0,0,1,.675.136.42.42,0,0,1-.008-.379.445.445,0,0,1,.371-.121l.114,0,.1,0a.289.289,0,0,0,.085-.008c1.03-.366,2.1-.672,3.238-1,.347-.1.7-.2,1.07-.308A1.5,1.5,0,0,0,51.559,13.693Zm33.866-5.2c2.755,0,4.857.077,6.814.249-1.283-.369-5.8-.563-9.594-.563a41.47,41.47,0,0,0-6.559.336c.776.017,1.633.027,2.619.027,1.154,0,2.332-.013,3.371-.024h.006C83.178,8.5,84.312,8.49,85.425,8.49Zm-2.77-3.029h0c-.719,0-1.443.022-2.151.064l.1.006,8.639.489a40.615,40.615,0,0,0-6.587-.559ZM81.684,2.41h0c-1.381,0-2.836.059-4.324.176a62.807,62.807,0,0,1,9.773.726c.67.119,1.347.254,2,.385.538.108,1.095.219,1.645.32.048.009.1.022.154.035a1.5,1.5,0,0,0,.342.058.283.283,0,0,0,.3-.21.289.289,0,0,0-.006-.236c-.06-.1-.211-.138-.357-.171a1.119,1.119,0,0,1-.237-.071.589.589,0,0,0-.153-.043l-.065-.013a40.853,40.853,0,0,0-9.077-.957Z" transform="translate(0 0)"/>
      <path id="Fill_509" data-name="Fill 509" class="cls-1" d="M2.495,35.622c-.43,0-.521-.346-.609-.68a1.425,1.425,0,0,0-.14-.388,1.08,1.08,0,0,1-.115-.293c-.057-.2-.106-.376-.38-.376a1.03,1.03,0,0,0-.222.029.385.385,0,0,1-.084.01c-.213,0-.378-.2-.49-.6-.044-.156-.1-.315-.159-.468-.234-.635-.475-1.292.218-1.925,0,0,.215-.242.153-.421C.632,30.4.509,30.342.3,30.325a.229.229,0,0,1-.159-.111,1.055,1.055,0,0,1-.116-.774,15.435,15.435,0,0,0,.336-1.912,10.163,10.163,0,0,1,.682-2.9,2.013,2.013,0,0,0,.083-.231c.061-.2.114-.365.3-.365a.722.722,0,0,1,.3.09l.009,0a.628.628,0,0,0,.241.081.126.126,0,0,0,.13-.108.793.793,0,0,0-.072-.471c-.015-.024-.029-.038-.043-.041-.29-.061-.458-.174-.5-.337a.683.683,0,0,1,.294-.6,2.849,2.849,0,0,0,.776-1.309,3.3,3.3,0,0,1,.548-1.07c.264-.3.509-.627.747-.941a6.838,6.838,0,0,1,2.284-2.189,2.322,2.322,0,0,0,.744-.943,4.864,4.864,0,0,1,.585-.878A27.409,27.409,0,0,1,11.1,12.177c.427-.329.867-.669,1.293-1.011a32.862,32.862,0,0,1,3.15-2.151c.339-.213.689-.432,1.032-.653A51.328,51.328,0,0,1,27.014,3.353a58.252,58.252,0,0,1,14-3.045A54.931,54.931,0,0,1,46.691,0a40.337,40.337,0,0,1,9.734,1.121,14.521,14.521,0,0,1,5.547,2.4,2.381,2.381,0,0,0,.245.158c.289.171.588.348.462.737-.12.369-.491.419-.838.419-.077,0-.154,0-.228,0H61.6A.529.529,0,0,0,61.4,4.9c-.053.026-.119.057-.2.091l.461.249c.341.183.662.356.967.539.037.022.076.044.115.066.256.142.52.289.445.676-.06.32-.3.361-.536.4-.056.01-.115.019-.17.033a.507.507,0,0,0-.411.337c.555.161.854.281.944.488s-.022.5-.309,1.07a.93.93,0,0,1-.163.2.7.7,0,0,0-.266.474.666.666,0,0,0,.266.446c.069.063.1.119.079.168-.049.143-.445.186-.612.2-.209.015-.426.022-.644.022a17.238,17.238,0,0,1-3.788-.537c-2.025-.458-4.1-.752-6.116-1.037a34.786,34.786,0,0,0-4.923-.332,58.846,58.846,0,0,0-9.045.8,34.317,34.317,0,0,0-8.27,2.363c1.1-.233,2.214-.517,3.291-.793a35.733,35.733,0,0,1,8.2-1.417,1.481,1.481,0,0,1-1.213.537c-.084.005-.163.01-.239.019A50.482,50.482,0,0,0,26.746,13.2a.839.839,0,0,0-.133.076.481.481,0,0,1-.231.1c-.075,0-.135-.054-.183-.165-.136-.316-.317-.469-.555-.469a1.365,1.365,0,0,0-.631.241c-.07.041-.135.079-.191.1-.071.032-.148.062-.231.094-.484.188-1.086.421-.771,1.352a1.456,1.456,0,0,0-.912-.387,1.918,1.918,0,0,0-1.034.435,1.924,1.924,0,0,1-1.032.436c-.028,0-.056,0-.084,0a.439.439,0,0,0,.436.319,1.607,1.607,0,0,0,.164-.012c.054-.005.11-.011.165-.011a.445.445,0,0,1,.339.132c-.249.144-.5.286-.746.423-.564.315-1.144.64-1.68,1.006a.3.3,0,0,1-.164.064c-.107,0-.16-.108-.217-.222l-.007-.014c-.052-.1-.117-.235-.249-.235a.47.47,0,0,0-.258.109,8.394,8.394,0,0,1-1.423.763,8.823,8.823,0,0,0-1.367.723.637.637,0,0,1-.382.115c-.06,0-.12-.006-.173-.01s-.114-.01-.171-.01a.6.6,0,0,0-.383.125c.343.245.494.437.476.6s-.224.338-.664.527a8.284,8.284,0,0,0-3.2,2.4,5.946,5.946,0,0,1-.973.888A5.393,5.393,0,0,0,9.19,23.738a.273.273,0,0,1-.236.126.9.9,0,0,1-.248-.051c-.043-.013-.088-.027-.131-.037a2.282,2.282,0,0,0-.506-.066c-.581,0-.853.354-.883,1.148a2.726,2.726,0,0,1-.967,2.4.819.819,0,0,1-.556.207l-.094,0H5.53a.87.87,0,0,0-.7.422,1.448,1.448,0,0,0-.2,1.268,2.8,2.8,0,0,1-.486,2.531,3.611,3.611,0,0,0-.568,2.172,7.526,7.526,0,0,1-.073.94.808.808,0,0,1-.739.787A1.127,1.127,0,0,1,2.495,35.622ZM46.413,7.35a50.854,50.854,0,0,0-12.145,1.6A57.2,57.2,0,0,1,46.509,7.71c2.286,0,4.626.11,7.151.335A37.44,37.44,0,0,0,46.413,7.35Zm-1.944-2.5a26.466,26.466,0,0,0-6.6.851c.91-.066,1.835-.145,2.728-.221,2.337-.2,4.753-.4,7.142-.4h.124A25.828,25.828,0,0,0,44.469,4.851Zm2.481-2.1a56.079,56.079,0,0,1,9.077,1l1.1.181a9.179,9.179,0,0,1,1.812.553A.6.6,0,0,1,59.1,4.6a.4.4,0,0,0,.249.132.282.282,0,0,0,.143-.044.344.344,0,0,0,.142-.267c-.018-.315-.28-.388-.511-.453l-.044-.012c-.34-.1-.7-.17-1.046-.242a6.68,6.68,0,0,1-2.131-.691A5.613,5.613,0,0,0,53.02,2.38a9.354,9.354,0,0,1-1.64-.157,4.366,4.366,0,0,0-.943-.083c-.16,0-.323,0-.48.008h-.009c-.162,0-.328.009-.487.009a3.171,3.171,0,0,1-1.285-.21,4.279,4.279,0,0,0-1.8-.35c-.385,0-.774.034-1.15.066s-.756.065-1.138.066a7.69,7.69,0,0,0-1.844.31,7.058,7.058,0,0,1-1.7.291c-.069,0-.137,0-.2-.007-.231-.016-.461-.023-.684-.023A8.108,8.108,0,0,0,35.5,3.4c.346-.035.7-.078,1.037-.121a18.774,18.774,0,0,1,2.307-.192h.066c.553,0,1.112-.05,1.653-.1l.035,0c.552-.05,1.122-.1,1.7-.1.152,0,.3,0,.442.011s.295.011.456.011c.524,0,1.093-.038,1.643-.075.393-.026.8-.053,1.186-.067C46.329,2.758,46.639,2.753,46.95,2.753ZM33.76,3.22h0a.208.208,0,0,0-.1.026,3.5,3.5,0,0,1-1.251.325,2.932,2.932,0,0,0-1.594.543,1.419,1.419,0,0,0,.722.194,3.188,3.188,0,0,0,.922-.186,3.181,3.181,0,0,1,.912-.185,1.349,1.349,0,0,1,.4.057A.174.174,0,0,0,33.82,4,.257.257,0,0,0,34,3.91a.371.371,0,0,0,.1-.28c-.019-.193-.168-.408-.34-.408Z" transform="translate(19.651 20.35)"/>
      <path id="Fill_511" data-name="Fill 511" class="cls-1" d="M35.987.568a1.134,1.134,0,0,1-.72.422c-.3.084-.811-.093-.8.389.007.5.5.293.808.338.111.017.229-.011.338.014.478.112.695.323.229.728-.1.085-.369.225-.217.264,1.352.348.169,1,.2,1.487.06,1.021-.895.833-1.416,1.146-1.452.874-3.235,1.012-4.6,2.125-.536.436-1.122.082-1.486-.493-.73,1.347-2.185,1.386-3.393,1.808-2.428.85-5.126,1.2-7.287,2.471-2.192,1.293-4.587,1.666-6.831,2.6L8.5,14a9.687,9.687,0,0,0-.955.316A17.768,17.768,0,0,1,2.4,15.944c-.378.044-.874.408-.647-.55.088-.372-.814-1.019-1.324-1.474-.241-.215-.554-.412-.385-.711.581-1.03.673-2.308,1.937-2.986A71.269,71.269,0,0,1,12.043,5.741C14.8,4.77,17.593,3.924,20.39,3.086a64.893,64.893,0,0,1,6.846-1.649C29.547,1.01,31.809.314,34.158.024a2.162,2.162,0,0,1,1.829.543" transform="translate(42.48 37.814)"/>
      <path id="Fill_513" data-name="Fill 513" class="cls-1" d="M8.562,1.4A37.209,37.209,0,0,1,0,.278L.041,0l8.52,1.4" transform="translate(72.498 29.854)"/>
      <path id="Fill_515" data-name="Fill 515" class="cls-1" d="M6.3.584,0,.264A13.02,13.02,0,0,1,6.3.584" transform="translate(65.204 29.449)"/>
    </g>
    <g id="_83" data-name="83" transform="translate(1102.962 432.782) rotate(-177)">
      <path id="Fill_1-2" data-name="Fill 1" class="cls-1" d="M1.313,32.82a.5.5,0,0,1-.234-.033C.13,32.134-.031,31.776,0,30.4a37.072,37.072,0,0,1,1.5-7.249,48.883,48.883,0,0,1,2.952-7.794A48.3,48.3,0,0,1,8.722,8.172a30.01,30.01,0,0,1,3.795-4.423,19.7,19.7,0,0,1,4.8-3.372A3.319,3.319,0,0,1,18.808,0a3.648,3.648,0,0,1,1.724.482,1.105,1.105,0,0,1,.562.985.465.465,0,0,1-.291.439,4.933,4.933,0,0,0-2.061,1.752c-.209.26-.425.528-.657.773a51.949,51.949,0,0,0-7.013,8.638,52.923,52.923,0,0,0-5.5,12.263c-.113.359-.23.724-.342,1.076v0c-.52,1.627-1.058,3.31-1.449,5a.739.739,0,0,1-.155.268.47.47,0,0,0-.126.537c.014.03-.031.09-.071.142l-.034.046A5.954,5.954,0,0,1,1.313,32.82Zm11.9-28.184C7.433,10.439,3.631,17.811,1.59,27.174,3.965,17.991,7.767,10.619,13.213,4.636h0Z" transform="translate(0 0.02)"/>
      <path id="Fill_4" data-name="Fill 4" class="cls-1" d="M.62,16.8c-.053,0-.083-.009-.093-.029-.051-.1-.107-.2-.161-.291a1.731,1.731,0,0,1-.315-1.425,22.246,22.246,0,0,1,3.563-7.14,34.242,34.242,0,0,1,5.417-6,10.586,10.586,0,0,1,2.6-1.753A1.678,1.678,0,0,1,12.348,0a3.316,3.316,0,0,1,1.243.319.527.527,0,0,1,.324.561c-.011.23-.164.337-.365.454-.124.073-.255.142-.382.208-.557.292-1.134.593-1.294,1.348a.567.567,0,0,1-.5.427h-.008c-.1,0-.116-.068-.135-.153a.307.307,0,0,0-.248-.282c.306.891-.193,1.311-.72,1.756l-.088.074a3.291,3.291,0,0,0-.671.906,4.157,4.157,0,0,1-.574.827A11.4,11.4,0,0,0,7.222,8.561a2.883,2.883,0,0,1-.485.586,1.964,1.964,0,0,0-.643,1.006,2.113,2.113,0,0,1-1.1,1.5.623.623,0,0,0-.287.451,1.706,1.706,0,0,1-.065.2c-.032.077-.063.156-.094.233a2.254,2.254,0,0,1-.992,1.352c-.1.053-.228.2-.222.288a1.875,1.875,0,0,1-.6,1.33,3.118,3.118,0,0,0-.483.707.866.866,0,0,1-.834.458A3.445,3.445,0,0,0,1,16.74,2.437,2.437,0,0,1,.62,16.8Zm4.5-9.5a22.537,22.537,0,0,0-4.031,6.828A47.88,47.88,0,0,1,5.124,7.3Zm2.1-2.669h0l-1.3,1.509.067.056,0,0,.065.054.655-.737.006-.007.028-.031.633-.713Z" transform="translate(13.435 7.688)"/>
      <path id="Fill_6" data-name="Fill 6" class="cls-1" d="M1.318,9.6A1.631,1.631,0,0,1,.259,9.239C-.131,8.9,0,8.584.129,8.277c.018-.044.037-.09.054-.135A12.589,12.589,0,0,1,3.565,3.509,25.76,25.76,0,0,1,6.471,1.279L6.914.971A.562.562,0,0,1,7.206.844c.159,0,.206.2.23.393a.863.863,0,0,1,0,.112.358.358,0,0,0,.2.384l.146-.259.007-.012c.1-.17.186-.33.278-.494C8.076.953,8.086.938,8.1.923c.033-.053.067-.107.054-.144C8.068.548,8.031.382,8.1.27c.076-.133.293-.2.666-.27a.549.549,0,0,1-.179.282.438.438,0,0,0-.173.327.142.142,0,0,0,.1.057c.061,0,.114-.066.164-.129S8.781.4,8.846.4c.045,0,.09.032.139.1a.749.749,0,0,1,.122.563.433.433,0,0,1-.133.277,1.907,1.907,0,0,0-.59.8,2.268,2.268,0,0,1-.436.668.3.3,0,0,0-.048.211c0,.163,0,.347-.314.347h0a.48.48,0,0,0-.266.132l0,0a.486.486,0,0,1-.273.134.343.343,0,0,1-.256-.162c.062.207-.066.318-.18.416a.405.405,0,0,0-.134.157c-.121.387-.4.487-.727.6L5.59,4.7c.418.362.284.523.018.844l-.074.089c-.105.129-.211.265-.313.4A5.637,5.637,0,0,1,4.008,7.3a3.066,3.066,0,0,0-.859,1.016,3.034,3.034,0,0,1-.808.971A1.813,1.813,0,0,1,1.318,9.6Zm2-4.832A10.466,10.466,0,0,0,.613,8.757,29.124,29.124,0,0,1,2.837,5.423C3,5.208,3.159,4.986,3.32,4.765ZM6.146,1.938h0a.449.449,0,0,0-.324.162c-.142.158-.27.323-.447.551-.089.115-.19.244-.309.394a3.126,3.126,0,0,1,.556-.215,1.055,1.055,0,0,0,.607-.339A1.041,1.041,0,0,1,6.3,2.41c.067-.072.143-.154.139-.242a.211.211,0,0,0-.081-.145.31.31,0,0,0-.213-.084Z" transform="translate(24.952 13.446)"/>
      <path id="Fill_8" data-name="Fill 8" class="cls-1" d="M0,.3c.461.09.827.463,1-.155.077-.271.327-.118.441.062.176.279.4.6.18.9a2.186,2.186,0,0,1-.978.873c-.3.076-.48-.426-.445-.788C.227.911.4.625,0,.3" transform="translate(34.174 12.775)"/>
    </g>
  </g>
</svg>
