<svg xmlns="http://www.w3.org/2000/svg" width="209.503" height="232.588" viewBox="0 0 209.503 232.588">
  <defs>
    <style>
      .cls-1 {
        fill: #9ddbcd;
      }

      .cls-2 {
        fill: #fff;
        stroke: #fff;
        stroke-width: 1.5px;
      }
    </style>
  </defs>
  <g id="intro-screen-image-3" transform="translate(-860.549 -243.253)">
    <g id="_43" data-name="43" transform="matrix(-0.438, 0.899, -0.899, -0.438, 1070.052, 316.732)">
      <path id="Fill_225" data-name="Fill 225" class="cls-1" d="M74.792,167.619h0a1.219,1.219,0,0,0-.332-.038h-.15a.75.75,0,0,1-.411-.092.188.188,0,0,0-.1-.021,1.388,1.388,0,0,0-.342.074c-.075.022-.152.045-.22.059a.328.328,0,0,1-.064.006.68.68,0,0,1-.308-.1l-.016-.008a.605.605,0,0,0-.256-.093.184.184,0,0,0-.117.041.708.708,0,0,1-.465.149c-.056,0-.113,0-.168-.007h-.024c-.044,0-.09,0-.135,0h-.015c-1.206.006-2.456.008-3.715.008-1.2,0-2.448,0-3.711-.008h-.009a1.629,1.629,0,0,0-.185.015,1.719,1.719,0,0,1-.2.016.446.446,0,0,1-.4-.2c-.073.128-.151.19-.238.19a.5.5,0,0,1-.25-.112.52.52,0,0,0-.262-.116.2.2,0,0,0-.045,0,.641.641,0,0,1-.143.016,1.653,1.653,0,0,1-.491-.107c-.053-.017-.1-.034-.155-.049a1.915,1.915,0,0,0-.553-.068c-.125,0-.254.007-.379.013h-.011c-.134.007-.264.014-.392.014l-.107,0-.094,0H60.1a1.049,1.049,0,0,1-.639-.167.906.906,0,0,0-.528-.1,1.544,1.544,0,0,1-.433-.042l-.2-.059h0a3.624,3.624,0,0,0-1.042-.208h-.05l-.143,0a1.24,1.24,0,0,1-.716-.174.343.343,0,0,0-.194-.046c-.037,0-.076,0-.113.005s-.08.005-.118.005a.373.373,0,0,1-.348-.176c-.038,0-.075,0-.11,0a3.3,3.3,0,0,1-1.037-.226c-.165-.055-.336-.112-.506-.155a30.735,30.735,0,0,1-3.89-1.275c-.41-.162-.827-.324-1.231-.48l-.006,0c-.649-.251-1.319-.511-1.974-.778-.333-.135-.678-.292-1.024-.466l-.587-.294a27.683,27.683,0,0,1-2.973-1.636c-.34-.225-.689-.448-1.027-.664-.665-.425-1.352-.864-2.005-1.342a9.137,9.137,0,0,0-.935-.575c-.246-.138-.5-.28-.739-.438-1.437-.947-2.677-1.833-3.792-2.707l-.36-.281a18.508,18.508,0,0,1-2.743-2.454,3.855,3.855,0,0,0-.455-.426c-.122-.1-.248-.208-.361-.324s-.221-.249-.324-.377a3.273,3.273,0,0,0-.533-.563,5.218,5.218,0,0,1-.623-.592,6,6,0,0,0-.515-.5,1.083,1.083,0,0,1-.261-.4c-.1-.221-.207-.45-.5-.518-.17-.04-.26-.213-.356-.4s-.208-.4-.423-.458a1.318,1.318,0,0,0-.511-.707,1.711,1.711,0,0,1-.474-.553,3.524,3.524,0,0,0-.747-.935c-.125-.124-.253-.253-.37-.385s-.244-.268-.365-.4a7.3,7.3,0,0,1-.774-.917,12.968,12.968,0,0,0-1.035-1.292,13.929,13.929,0,0,1-.949-1.168c-.2-.281-.416-.55-.627-.81a7.446,7.446,0,0,1-1.115-1.658.293.293,0,0,0-.221-.179.3.3,0,0,1-.169-.1.694.694,0,0,1-.107-.236.569.569,0,0,0-.121-.245,12.926,12.926,0,0,1-1.261-1.6l-.114-.161c-.274-.385-.545-.777-.807-1.155-.334-.482-.679-.979-1.026-1.459a49.037,49.037,0,0,1-2.634-4.2c-.42-.725-.829-1.474-1.224-2.2l0-.007-.348-.637-.406-.737c-.464-.842-.943-1.712-1.4-2.581-.243-.466-.475-.95-.7-1.418-.186-.387-.378-.788-.576-1.177-.337-.663-.691-1.3-1.085-2.009-.28-.5-.555-1.019-.821-1.517-.22-.413-.448-.84-.678-1.259a42.91,42.91,0,0,1-1.928-4.04l-.039-.093a18.685,18.685,0,0,1-.771-2.047,11.26,11.26,0,0,0-.506-1.4,11.773,11.773,0,0,1-.609-1.937c-.072-.286-.147-.582-.23-.87a4.288,4.288,0,0,1-.109-.565c-.02-.138-.041-.281-.072-.417-.046-.2-.08-.406-.112-.6-.016-.1-.032-.193-.049-.289-.055-.306-.093-.62-.13-.923a8.576,8.576,0,0,0-.34-1.758.461.461,0,0,1-.027-.181,6.678,6.678,0,0,0-.087-1.559,7.214,7.214,0,0,1-.1-1.461A6.193,6.193,0,0,0,.427,96.8a5.535,5.535,0,0,1-.072-1.456A1.871,1.871,0,0,1,.2,94.335a2.862,2.862,0,0,0-.027-.649,14.167,14.167,0,0,1-.161-3.054c.009-.435.018-.883.008-1.323C0,88.385.005,87.445.009,86.537c0-.52,0-1.057,0-1.586a13.348,13.348,0,0,1,.239-2.212c.044-.268.09-.545.129-.819a1.644,1.644,0,0,1,.065-.257,1.2,1.2,0,0,0,.078-.441,1.556,1.556,0,0,1,.339-1.1.6.6,0,0,1-.154-.693c.217-.75.377-1.529.532-2.283.123-.6.251-1.221.406-1.823a15.7,15.7,0,0,0,.42-2.229,5.172,5.172,0,0,1,.207-.9,5.608,5.608,0,0,0,.2-.848,7.9,7.9,0,0,1,.249-1.087c.075-.269.153-.548.207-.829a5.164,5.164,0,0,1,.26-.826,5.773,5.773,0,0,0,.251-.774c.17-.765.394-1.51.677-2.392.035-.111.068-.225.1-.335A3.407,3.407,0,0,1,4.7,63.974a.453.453,0,0,0,.077-.224.742.742,0,0,1,.024-.118l.074-.234,0-.007A10.994,10.994,0,0,1,5.3,62.218c.2-.444.382-.905.56-1.351.206-.517.419-1.052.655-1.562.213-.459.412-.933.6-1.392.1-.231.2-.47.3-.7.3-.687.6-1.358.905-2a46.073,46.073,0,0,1,2.418-4.48,35.908,35.908,0,0,1,2.27-3.205l.3-.391a19.7,19.7,0,0,1,1.72-2.027c.227-.222.447-.463.66-.7a10.486,10.486,0,0,1,1.083-1.076c.386-.313.77-.648,1.141-.973.2-.172.4-.35.6-.523,1.313-1.123,2.7-2.214,4.121-3.241.306-.222.62-.444.924-.66.52-.37,1.055-.75,1.57-1.135.487-.365,1-.7,1.5-1.028.48-.316.977-.643,1.451-.995.37-.275.777-.523,1.171-.764.206-.126.417-.255.619-.385.235-.151.481-.288.718-.421a9.565,9.565,0,0,0,1.033-.637,12.683,12.683,0,0,1,1.311-.815c.144-.081.292-.165.438-.251s.29-.183.431-.277a2.934,2.934,0,0,1,1.3-.6,1.321,1.321,0,0,1,.805-.584,2.446,2.446,0,0,0,.447-.2c.143-.091.291-.18.435-.267.273-.164.552-.332.807-.517.392-.285.79-.558,1.231-.86.42-.287.832-.6,1.231-.905s.787-.6,1.191-.877a5.664,5.664,0,0,0,.789-.7c.174-.175.353-.356.545-.516A17.549,17.549,0,0,0,45,22.7a4.463,4.463,0,0,1,1-.965.938.938,0,0,0,.306-.43,1.147,1.147,0,0,1,.233-.374,9.857,9.857,0,0,0,.713-.778c.125-.146.253-.3.384-.441a.549.549,0,0,0,.2-.474l.164-.02.271-.033a.125.125,0,0,0,.042-.085c0-.027-.026-.045-.051-.063s-.067-.05-.061-.1c.03-.039.058-.082.086-.124a.845.845,0,0,1,.4-.381c.13-.045.174-.164.22-.29a.626.626,0,0,1,.154-.269,2,2,0,0,0,.371-.512c.172-.3.35-.607.713-.7a2.82,2.82,0,0,1,.528-.9,5.254,5.254,0,0,0,.313-.434,1,1,0,0,1,.586-.487c.1-.024.126-.132.152-.236.031-.122.063-.248.207-.248a.308.308,0,0,1,.048,0,3.513,3.513,0,0,1,1.192-1.412c.174-.143.354-.291.517-.448.223-.216.447-.44.663-.656a16.02,16.02,0,0,1,2.274-2.006,7.182,7.182,0,0,0,.808-.677,7.829,7.829,0,0,1,.764-.648c.328-.232.656-.474.973-.707a22.934,22.934,0,0,1,2.785-1.848,8.08,8.08,0,0,0,.783-.5,7.775,7.775,0,0,1,.814-.513l.054-.028c1.135-.588,2.308-1.2,3.5-1.693.046-.019.092-.04.136-.061a1.086,1.086,0,0,1,.453-.134.6.6,0,0,1,.116.011.3.3,0,0,0,.057.006c.136,0,.227-.1.324-.208a.727.727,0,0,1,.264-.213,1.7,1.7,0,0,1,.39-.082,1.331,1.331,0,0,0,.549-.157,1.267,1.267,0,0,1,.314-.113,1.442,1.442,0,0,0,.359-.131A3.306,3.306,0,0,1,71.079,1.8a3.167,3.167,0,0,0,1.04-.37.926.926,0,0,1,.516-.11h.156c.052,0,.094,0,.131,0a5.074,5.074,0,0,0,1.115-.254A4.357,4.357,0,0,1,75.3.808c.058,0,.115,0,.171.007s.121.008.181.008a2.576,2.576,0,0,0,1.166-.3l.026-.013a.689.689,0,0,1,.278-.1.184.184,0,0,1,.081.018.833.833,0,0,0,.372.082A2.167,2.167,0,0,0,78,.453,2.6,2.6,0,0,1,78.35.4,3.136,3.136,0,0,0,78.855.31a2.72,2.72,0,0,1,.614-.094c.031,0,.062,0,.092,0,.089.006.181.015.27.024.165.016.336.033.5.033a1.456,1.456,0,0,0,.5-.076A3.33,3.33,0,0,1,81.994.029c.14,0,.283,0,.42.008s.283.008.424.008H82.9A2.264,2.264,0,0,0,83.16.023,2.236,2.236,0,0,1,83.434,0a.662.662,0,0,1,.518.216.1.1,0,0,0,.069.035c.051,0,.1-.051.155-.105l.01-.01a.3.3,0,0,1,.187-.114.209.209,0,0,1,.155.1.288.288,0,0,0,.229.124.594.594,0,0,0,.294-.106.145.145,0,0,1,.076-.021.434.434,0,0,1,.19.07.443.443,0,0,0,.194.073.151.151,0,0,0,.105-.043A.767.767,0,0,1,86.035,0a.1.1,0,0,1,.093.046.173.173,0,0,0,.155.112.392.392,0,0,0,.124-.028A.371.371,0,0,1,86.524.1c.05,0,.086.028.113.088A.081.081,0,0,0,86.7.224h.006a2.023,2.023,0,0,1,.273-.018,4.5,4.5,0,0,1,.893.12h.007a4.564,4.564,0,0,0,.9.119c.057,0,.114,0,.168-.006s.1-.006.156-.006a3.462,3.462,0,0,1,1.2.254,5.941,5.941,0,0,0,1.086.257l.013,0,.155.027a6.433,6.433,0,0,1,1.032.3,6.177,6.177,0,0,0,1.058.306c.069.011.121.089.171.165s.11.168.19.168c.056,0,.118-.041.19-.125a.316.316,0,0,0,.313.171l.073,0,.075,0a.414.414,0,0,1,.152.024.857.857,0,0,1,.281.23c.046.049.093.1.147.148a1.016,1.016,0,0,1,.108-.006,2.237,2.237,0,0,1,.912.281l.164.076A18.822,18.822,0,0,1,98.7,3.919l.357.222a9.783,9.783,0,0,1,2.51,1.97.334.334,0,0,0,.285.114.331.331,0,0,1,.247.08c.249.242.508.479.758.709a14.1,14.1,0,0,1,2.005,2.118,5.026,5.026,0,0,0,.587.64,5.218,5.218,0,0,1,.591.643c.225.308.466.609.7.9a13.3,13.3,0,0,1,1.383,1.969c.187.347.408.688.621,1.018.182.281.369.57.537.865a20.98,20.98,0,0,1,1.943,4.219q.089.29.179.579c.286.921.581,1.873.8,2.838a3.916,3.916,0,0,1,.072.544,2.806,2.806,0,0,0,.1.631,3.011,3.011,0,0,1,.141,1.091.759.759,0,0,0,.1.356.716.716,0,0,1,.095.438.929.929,0,0,0,.13.81.693.693,0,0,1,.038.434c-.007.076-.014.153-.013.222,0,.1,0,.194.008.289a3.084,3.084,0,0,1-.022.676.472.472,0,0,0,.069.285c.068.143.132.278-.043.424a.7.7,0,0,1,.161.634,1.867,1.867,0,0,0-.007.26c.013.2.01.406.007.6,0,.091,0,.179,0,.267v.968c0,.09-.006.184-.013.276a1.667,1.667,0,0,0,.027.59,2.853,2.853,0,0,1,.089.848,3.665,3.665,0,0,0,.043.666,6.027,6.027,0,0,1,.035,1.4v.011c-.006.11-.011.22-.016.329a2.5,2.5,0,0,0,.1.679,2.246,2.246,0,0,1,.091.792,4.274,4.274,0,0,0,.015,1.539,3.013,3.013,0,0,1,.078.76,2.259,2.259,0,0,0,.1.8,2.124,2.124,0,0,1,.1.9,2.323,2.323,0,0,0,.042.687,11.948,11.948,0,0,1,.281,1.74,12.641,12.641,0,0,0,.247,1.6c.14.571.255,1.158.366,1.725.155.79.315,1.607.544,2.393.127.435.262.875.393,1.3s.273.889.4,1.333a15.114,15.114,0,0,0,.911,2.219l.136.288a21.86,21.86,0,0,0,1.677,2.9c.328.488.693.951,1.047,1.4.318.4.646.818.945,1.249.133.192.282.372.425.547a7.124,7.124,0,0,1,.491.644,4.356,4.356,0,0,0,.534.631,4.412,4.412,0,0,1,.529.622,15.467,15.467,0,0,0,1.032,1.348,11.09,11.09,0,0,1,1.392,1.964,15.547,15.547,0,0,1,1.837,2.627c.33.549.672,1.117,1.045,1.643a10.2,10.2,0,0,1,.831,1.523c.126.265.256.539.393.8.625,1.184,1.158,2.445,1.675,3.665l.138.326a33.575,33.575,0,0,1,1.328,3.831c.113.392.222.793.326,1.181.146.541.3,1.1.464,1.644a1.671,1.671,0,0,1,.051.455,1.013,1.013,0,0,0,.185.693,5.117,5.117,0,0,0,.173,1.285,4.842,4.842,0,0,1,.169,1.362,2.815,2.815,0,0,1,.169,1.476c0,.063-.008.125-.011.187a1.462,1.462,0,0,0,.1.544,1.3,1.3,0,0,1,.094.638,2.693,2.693,0,0,0,.009,1.246,4.011,4.011,0,0,1,.147,1.477c0,.159-.009.324-.006.486.023,1.553.022,3.085,0,4.552,0,.143.008.291.019.433a2.017,2.017,0,0,1-.115,1.067,1.28,1.28,0,0,0-.071.647,1.206,1.206,0,0,1-.106.724c-.048.08,0,.146.044.217a.313.313,0,0,1,.075.257,1.76,1.76,0,0,0-.019.519,1.309,1.309,0,0,1-.115.778.888.888,0,0,0-.062.517.893.893,0,0,1-.124.655c-.071.093-.013.2.048.316a.442.442,0,0,1,.083.3.3.3,0,0,1-.159.178,3.492,3.492,0,0,1-.1,1.15c-.027.136-.055.276-.076.415a2.352,2.352,0,0,0-.006.482,1.476,1.476,0,0,1-.113.819,1.024,1.024,0,0,0-.064.547.887.887,0,0,1-.158.7,2.591,2.591,0,0,1-.079,1.054,3.448,3.448,0,0,0-.108.8,5.9,5.9,0,0,1-.2,1.393l-.011.051c-.161.723-.308,1.466-.437,2.21-.049.278-.12.537-.19.788a.482.482,0,0,1-.08.15.407.407,0,0,0-.1.254,10.163,10.163,0,0,1-.556,2.941c-.05.169-.1.337-.147.5s-.1.355-.142.528a8.692,8.692,0,0,1-.49,1.5,1.225,1.225,0,0,0-.072.274.978.978,0,0,1-.132.4,3.65,3.65,0,0,0-.537,1.313c-.035.131-.074.279-.116.417a3.635,3.635,0,0,1-.38.888.3.3,0,0,1-.056.06c-.03.026-.058.051-.058.078a3.667,3.667,0,0,1-.5,1.6c-.1.207-.209.421-.3.64-.131.332-.29.657-.443.971a11.839,11.839,0,0,0-.5,1.107,23.421,23.421,0,0,1-1.034,2.295c-.3.6-.6,1.217-.861,1.851a7.326,7.326,0,0,1-.465.9l0,0c-.062.107-.12.207-.171.3a.367.367,0,0,0,.056.35.326.326,0,0,1,.068.249c-.04.214-.221.306-.5.386a1.828,1.828,0,0,1-.41,1.324c-.077.122-.157.248-.224.375-.646,1.228-1.355,2.458-2.11,3.657l-.208.332a19.972,19.972,0,0,1-1.335,1.956c-1.744,2.166-3.61,4.324-5.7,6.6l-.157.171c-.685.746-1.393,1.516-2.122,2.23l-.162.158c-.6.591-1.23,1.2-1.872,1.754-1.607,1.377-3.267,2.8-5,4.062-1.279.934-2.624,1.795-3.925,2.627l-.125.08c-.847.543-1.749,1.064-2.679,1.549-1.478.77-2.964,1.5-4.417,2.165a19.285,19.285,0,0,1-1.908.719,15.469,15.469,0,0,0-2.352.939,3.851,3.851,0,0,0-1.3.315,3.832,3.832,0,0,1-1.308.314h-.063a1.746,1.746,0,0,1-.927.292c-.13.015-.263.03-.39.058s-.264.07-.393.109a2.631,2.631,0,0,1-.769.155,1.265,1.265,0,0,1-.214-.018.254.254,0,0,0-.044,0,.613.613,0,0,0-.269.093l-.011.006a.688.688,0,0,1-.308.1.37.37,0,0,1-.065-.006,1.341,1.341,0,0,0-.244-.026.606.606,0,0,0-.435.162c-.048-.071-.1-.105-.146-.105a.3.3,0,0,0-.165.086l-.007.006a.318.318,0,0,1-.188.093.165.165,0,0,1-.06-.012,1.108,1.108,0,0,0-.4-.074.872.872,0,0,0-.357.07,1.813,1.813,0,0,1-.76.125h-.238a1.684,1.684,0,0,0-.633.091,1.741,1.741,0,0,1-.668.106l-.172,0h-.007l-.154,0a1.657,1.657,0,0,0-.556.074,1.214,1.214,0,0,1-.407.066,3.058,3.058,0,0,1-.532-.063,3.007,3.007,0,0,0-.526-.062,1.216,1.216,0,0,0-.277.03h-.007c-.034,0-.078-.052-.12-.1a.876.876,0,0,0-.064-.071c-.072.034-.082.1-.092.179a.492.492,0,0,1-.048.176c-.058-.037-.116-.079-.172-.121a1.277,1.277,0,0,0-.41-.233,1.2,1.2,0,0,0-.3-.032c-.078,0-.156,0-.239.008s-.178.009-.271.009c-.141.194-.3.416-.441.61ZM113.2,149.386c-.081,0-.132.056-.186.124a7.474,7.474,0,0,1-1.213,1.138c-.572.457-1.123.963-1.656,1.452-.4.37-.819.753-1.242,1.111-.179.152-.358.315-.531.472a10.742,10.742,0,0,1-1.036.866c-.591.413-1.179.855-1.747,1.283-.611.46-1.243.936-1.882,1.377-1.025.708-2.092,1.369-3.124,2.009-.635.394-1.292.8-1.933,1.215a3.532,3.532,0,0,1-.624.3,3.4,3.4,0,0,0-.612.292,14.355,14.355,0,0,1-2.643,1.413c-.3.119-.6.27-.889.416a7.759,7.759,0,0,1-1.167.515,4.224,4.224,0,0,0-1.356.651.388.388,0,0,0,.243.091.511.511,0,0,0,.235-.067,16.121,16.121,0,0,1,1.5-.651c.188-.074.379-.149.566-.226,1.318-.541,2.577-1.179,3.636-1.733a60.864,60.864,0,0,0,5.965-3.533c1-.677,1.754-1.213,2.438-1.74.438-.337.871-.7,1.29-1.051.4-.331.8-.672,1.211-.99.487-.379.95-.808,1.4-1.224.3-.278.609-.565.923-.835.271-.233.526-.5.773-.752a8.1,8.1,0,0,1,1.135-1.035,1.426,1.426,0,0,0,.28-.3c.028-.036.056-.072.084-.107s.075-.084.113-.124a.894.894,0,0,0,.215-.3A.321.321,0,0,0,113.2,149.386Zm-48.269,9.864h0a.239.239,0,0,1,.13.213c.014.079.027.154.115.184.161,0,.33.014.493.027s.339.028.5.028a1.648,1.648,0,0,0,.6-.093,2.591,2.591,0,0,1,.959-.139h.26c.1,0,.218,0,.34-.009.186-.013.385-.018.627-.018.162,0,.326,0,.485.005h.01c.153,0,.327.005.5.005h.235c.075,0,.135,0,.19-.006a.216.216,0,0,0,.1-.048c.015-.011.03-.021.044-.03,0-.04,0-.08.008-.12a.53.53,0,0,0-.041-.336,1.242,1.242,0,0,1-.426.143c-.117,0-.191-.075-.353-.239l-.051-.052a.221.221,0,0,1-.045-.285.208.208,0,0,0,.025-.132c-.056-.212-.205-.232-.349-.252a.41.41,0,0,1-.259-.1c-.068-.052-.054-.128-.04-.209.018-.1.036-.208-.121-.259a.976.976,0,0,0-.04.351c0,.225,0,.457-.272.568a1,1,0,0,0-.376-.157c-.125,0-.2.13-.377.445-.007.116.067.125.145.135s.176.021.173.173a.313.313,0,0,0-.049,0,.7.7,0,0,0-.128.015.716.716,0,0,1-.123.015c-.087,0-.181-.035-.215-.295-.013-.1-.187-.17-.327-.228a1.18,1.18,0,0,1-.126-.056h-.021a.2.2,0,0,0-.152.073l-.015.016c-.029.031-.054.057-.087.057a.1.1,0,0,1-.059-.023.806.806,0,0,1-.261-.421,1.44,1.44,0,0,0-.093-.22.831.831,0,0,1,.142-.168.432.432,0,0,0,.154-.238.24.24,0,0,0-.138-.052.3.3,0,0,0-.188.1l0,0a.282.282,0,0,1-.175.1.161.161,0,0,1-.072-.018l-.235-.25-.035-.037.089.418.046.215c-.233.013-.273.192-.315.382s-.082.371-.294.437c-.1.007-.2.008-.287.008H64.96a2.486,2.486,0,0,0-1.074.174c-.114.052-.171.1-.187.159s.016.136.079.24h.064c.067,0,.135,0,.2,0s.136,0,.2,0a.961.961,0,0,0,.686-.211Zm46.394-23.15a3.653,3.653,0,0,0-1.211.96,5.462,5.462,0,0,1-.748.7,21.02,21.02,0,0,0-2.007,1.714c-.468.435-.927.9-1.371,1.341l0,0c-.189.189-.384.385-.577.576a.489.489,0,0,0,.23.07.263.263,0,0,0,.208-.1,2.087,2.087,0,0,1,.717-.484,1.663,1.663,0,0,0,.881-.737,1.055,1.055,0,0,0,.755-.476,2.926,2.926,0,0,1,.253-.264,1.124,1.124,0,0,1,.68-.313l.042,0a1.638,1.638,0,0,1,.726-.8,1.153,1.153,0,0,0,.3-.273.943.943,0,0,1,.445-.336c-.1-.248-.145-.383-.105-.481.05-.123.231-.191.6-.306a.223.223,0,0,0-.061-.107.286.286,0,0,1-.074-.285l.122-.158.007-.008.185-.24h0Zm-6.685-2.944a2.29,2.29,0,0,0-.878.7,4.777,4.777,0,0,1-.366.377c-.165.146-.335.289-.5.426-.307.258-.625.524-.917.819-.515.52-.935.929-1.324,1.286-.179.164-.368.321-.551.473a7.98,7.98,0,0,0-.981.913c-.047.055-.093.117-.137.178a.973.973,0,0,1-.351.348,1.328,1.328,0,0,0-.49.4c-.032.036-.062.07-.094.1-.135.142-.264.291-.389.435l0,.006-.15.172a.278.278,0,0,0,.2.094.582.582,0,0,0,.253-.086l.007,0a.543.543,0,0,1,.234-.082c.089,0,.162.054.23.169a2.7,2.7,0,0,1,.828-.59c.108-.058.221-.118.329-.183.257-.156.506-.34.747-.519.2-.147.4-.3.612-.434a.421.421,0,0,0,.134-.21c.046-.116.09-.225.221-.225a.3.3,0,0,1,.069.009,6.443,6.443,0,0,1,1.938-2.133l.19.146.032.025.043.033.025-.027.219-.236-.079-.1-.084-.105a.159.159,0,0,1,.161-.1c.023,0,.048,0,.072,0s.053.005.078.005a.171.171,0,0,0,.18-.133l-.061-.026-.006,0-.233-.1c.028-.593.028-.593.5-.71a.163.163,0,0,0,.15-.179.246.246,0,0,0-.1-.225.474.474,0,0,1-.069-.081.581.581,0,0,1,.167-.195C104.628,133.486,104.754,133.375,104.641,133.155Zm-.308-1.8h0a.2.2,0,0,0-.119.05l-.015.016c-.015.014-.032.031-.032.048,0,.2,0,.41,0,.628v.176c-1.291.715-4.146,3.234-4.541,4.589a2.618,2.618,0,0,1,.279-.166.927.927,0,0,0,.577-.642.6.6,0,0,1,.207-.273.941.941,0,0,0,.191-.214.286.286,0,0,1,.3-.138.312.312,0,0,0,.3-.12,1.5,1.5,0,0,1,.288-.285,1.026,1.026,0,0,0,.332-.376.759.759,0,0,1,.381-.385.846.846,0,0,0,.3-.24l.061-.088,0,0a1.555,1.555,0,0,1,.541-.57.675.675,0,0,0,.273-.284c.088-.137.172-.266.332-.266h.049c.149,0,.209-.128.262-.242l0-.009c.057-.119.11-.232.24-.232a.264.264,0,0,1,.05.005,2.263,2.263,0,0,1,.481-.435,2.045,2.045,0,0,0,.537-.512c.092-.143.147-.256.005-.418a1.453,1.453,0,0,0-.7.417c-.075.067-.146.129-.219.185a.39.39,0,0,1-.193-.118.274.274,0,0,0-.17-.1ZM75.45,116.43c-.03.007-.058.011-.083.014-.112.017-.185.028-.239.214-.14.487-.295.978-.444,1.453-.173.548-.351,1.112-.507,1.675-.026.095-.059.19-.091.283a1.75,1.75,0,0,0-.142.866,6.4,6.4,0,0,0-.548,1.951c-.03.179-.062.363-.1.542-.117.6-.263,1.2-.4,1.787v.006c-.059.246-.121.5-.179.75-.126.541-.247,1.094-.365,1.628-.285,1.3-.579,2.64-.969,3.926a1.136,1.136,0,0,1-.071.568.922.922,0,0,0,.015.8,3.162,3.162,0,0,1,.308-1.1,4.378,4.378,0,0,0,.263-.757c.1-.451.215-.9.329-1.34.085-.327.174-.664.252-1,.044-.188.091-.377.137-.561v0c.116-.468.237-.953.317-1.445a10.918,10.918,0,0,1,.286-1.186c.082-.291.166-.591.231-.891.035-.165.069-.331.1-.5.114-.557.233-1.133.4-1.68.024-.079.049-.157.074-.235l0-.008a7.659,7.659,0,0,0,.26-.953v0a6.883,6.883,0,0,1,.347-1.376,1.92,1.92,0,0,0,.106-.511,1.085,1.085,0,0,1,.35-.83c.1-.076.062-.277.016-.443a.608.608,0,0,0-.073-.139c-.022-.034-.035-.056-.031-.06a1.392,1.392,0,0,0,.3-.819A2.326,2.326,0,0,1,75.45,116.43Zm-64.045-2.665h0a32.268,32.268,0,0,0,1.773,3.765c.663,1.243,1.273,2.347,1.866,3.376.226.394.424.811.615,1.215l.008.017q.079.168.16.335a.332.332,0,0,0,.106.112.456.456,0,0,1,.036.029l.2-.18.105-.1c-.031-.069-.058-.141-.084-.21a1.26,1.26,0,0,0-.222-.427.294.294,0,0,0-.09-.059.261.261,0,0,1-.166-.2c-.187-.772-.4-1.647-.688-2.479-.042-.122-.077-.25-.11-.374a2.288,2.288,0,0,0-.36-.857c-.595-.754-1.186-1.533-1.758-2.288l0,0-.472-.621a.594.594,0,0,0-.068-.072.289.289,0,0,1-.12-.228.433.433,0,0,0-.2-.338,1.094,1.094,0,0,1-.1-.1c-.021-.024-.04-.051-.061-.08a.45.45,0,0,0-.366-.238Zm83.265-17.1c-1.432,2.724-2.741,5.559-4.007,8.3l-.005.011c-.383.83-.779,1.687-1.172,2.528a.5.5,0,0,0-.014.244c0,.041.008.082.008.121a32.362,32.362,0,0,0,2.56-4.7c.528-1.138,1.048-2.3,1.551-3.432.361-.81.734-1.647,1.107-2.468a.561.561,0,0,0-.028-.6ZM125.609,74.26a.179.179,0,0,0-.107.049c.012.055.019.109.027.166a1.4,1.4,0,0,0,.1.405,17.3,17.3,0,0,1,.619,1.747c.094.3.192.609.3.91.291.841.552,1.759.822,2.891.082.345.175.7.265,1.037l0,.008c.045.172.091.343.134.513s.076.323.111.5a4.865,4.865,0,0,0,.522,1.552,8.416,8.416,0,0,0-.135-1.584c-.076-.462-.187-.917-.295-1.357-.08-.328-.163-.668-.231-1.006A17.722,17.722,0,0,0,127,77.618c-.115-.322-.233-.654-.341-.984l-.052-.161-.005-.016a5.364,5.364,0,0,0-.384-.968,5.526,5.526,0,0,1-.5-1.116C125.694,74.3,125.657,74.26,125.609,74.26ZM27.271,57.341c-.09.1-.18.2-.267.294a7.007,7.007,0,0,0-.55.646,3.211,3.211,0,0,1-.42.45,3.668,3.668,0,0,0-.381.4c-.14.178-.266.373-.387.562a5.217,5.217,0,0,1-.549.751,19.315,19.315,0,0,0-1.666,2.169l0,0-.27.387a31.608,31.608,0,0,0-2.063,3.569c-.147.282-.3.572-.449.856-.127.239-.232.5-.334.749-.046.113-.093.229-.142.342,1.024-1.431,2-2.933,2.951-4.385,1.437-2.2,2.924-4.482,4.586-6.544.012-.015,0-.055-.019-.116C27.3,57.436,27.283,57.391,27.271,57.341Zm42.535.237h0a.677.677,0,0,0-.523.347c-.4.549-.771,1.137-1.131,1.7l-.022.034-.16.252c-.117.185-.229.379-.337.568a9.158,9.158,0,0,1-.533.857,21.356,21.356,0,0,0-1.391,2.283q-.143.258-.286.514l-.35.624-.013.024c-.514.917-1.044,1.862-1.576,2.784a.674.674,0,0,0-.084.6c.218-.04.269-.2.323-.365a.661.661,0,0,1,.149-.29,3.512,3.512,0,0,0,.529-.7c.479-.78,1.014-1.535,1.532-2.265q.21-.3.419-.593.17-.242.342-.484c.362-.51.737-1.037,1.068-1.572.182-.294.382-.58.576-.857a13.379,13.379,0,0,0,.778-1.2,5.873,5.873,0,0,1,.477-.7,3.469,3.469,0,0,0,.72-1.325.853.853,0,0,0-.509-.231Zm-63.728,7c.033,0,.066.033.1.1-.054.147-.1.3-.154.451A6.808,6.808,0,0,1,5.6,66.2a1.182,1.182,0,0,0-.063.908c.055-.107.1-.216.138-.321.11-.28.2-.521.473-.62l-.034-.038c-.11-.121-.2-.225-.053-.435a.5.5,0,0,1,.443-.2l.085-.006a.066.066,0,0,0,.06-.045.09.09,0,0,0-.019-.085l-.17-.068-.012,0-.162-.065c.1-.225.2-.456.293-.679a7.383,7.383,0,0,1,.681-1.373l.18.2.232-.275.019-.023a.812.812,0,0,1-.211-.374,1.306,1.306,0,0,0-.1-.232.2.2,0,0,1,.229-.164c.028,0,.058,0,.087,0s.061,0,.09,0c.1,0,.2-.025.235-.208-.03-.075-.1-.083-.159-.09S7.718,62,7.7,61.885a.906.906,0,0,1,.142-.57,1.717,1.717,0,0,0,.115-.261.241.241,0,0,1,.072-.01.747.747,0,0,1,.078.005h0a.709.709,0,0,0,.084.007.2.2,0,0,0,.17-.082c-.14-.205-.253-.411-.1-.66a4,4,0,0,0,.274-.591,2.252,2.252,0,0,1,.571-.945.482.482,0,0,0,.13-.26.392.392,0,0,1,.168-.28,1.082,1.082,0,0,1,.221-.874c.043-.072.088-.146.126-.221l.277-.548c.455-.9.925-1.831,1.434-2.711.8-1.38,1.623-2.806,2.545-4.121.165-.235.328-.48.486-.716A13.013,13.013,0,0,1,15.977,47.1a.291.291,0,0,0,.1-.206A.2.2,0,0,0,16,46.75c-2.674,2.624-4.838,6.021-7.018,11.015l-.034-.041c-.07-.087-.135-.168-.231-.168a.226.226,0,0,0-.1.026c-.04.1-.079.2-.116.293a4.145,4.145,0,0,1-.3.664.724.724,0,0,0,.026.947l-.317.68-.135.289a1.3,1.3,0,0,1-.146.006c-.1,0-.182,0-.2.042-.044.09-.1.179-.145.266a1.348,1.348,0,0,0-.242,1.177H7c-.215,0-.279.155-.341.305a.555.555,0,0,1-.138.229.424.424,0,0,1-.077.393.43.43,0,0,0-.017.54.434.434,0,0,1,.095.362A.5.5,0,0,1,6.2,64.1l-.083-.094-.056-.063a.457.457,0,0,1-.129.325.36.36,0,0,0-.1.388.089.089,0,0,0,.065.039c.033,0,.063-.032.089-.06S6.047,64.573,6.078,64.573Zm19.708-19.2c-.156,0-.245.117-.331.23a.7.7,0,0,1-.149.16,14.657,14.657,0,0,0-2.353,1.96,37.486,37.486,0,0,0-3.849,4.77c-.129.185-.27.362-.407.533a7.862,7.862,0,0,0-.5.68c-.867,1.369-1.754,2.818-2.711,4.432a3.293,3.293,0,0,0-.468,1.183,3.42,3.42,0,0,0,.97-1.048,6.148,6.148,0,0,1,.4-.534,10.964,10.964,0,0,0,.8-1.1c.076-.114.151-.229.227-.341.179-.264.381-.508.577-.744s.4-.481.575-.743l.059-.088A19.674,19.674,0,0,1,20.2,52.583c.048-.054.1-.107.155-.158a1.16,1.16,0,0,0,.31-.4,2.608,2.608,0,0,1,.673-.931,4.926,4.926,0,0,0,.375-.411c.131-.167.248-.352.361-.53a3.814,3.814,0,0,1,.651-.842.522.522,0,0,1,.13-.079.46.46,0,0,0,.235-.2,6.6,6.6,0,0,1,.8-1.04,6.087,6.087,0,0,0,.879-1.175c.217-.034.309-.214.4-.388a1.034,1.034,0,0,1,.19-.289,5.61,5.61,0,0,0,.434-.476c.065-.077.132-.156.2-.234a.463.463,0,0,0-.2-.055Zm58.906,4.181a.414.414,0,0,1,.226.085.414.414,0,0,0,.224.086.342.342,0,0,0,.126-.026,1.578,1.578,0,0,0,.429-.282,2.4,2.4,0,0,1,.242-.184,1.094,1.094,0,0,0,.455-.914.228.228,0,0,1,.194-.253.307.307,0,0,0,.158-.089,2.005,2.005,0,0,0-.594-1.765,9.117,9.117,0,0,1-.611,1.177,5.5,5.5,0,0,0-.865,2.166h.016ZM45.316,24.35a.669.669,0,0,0-.4.206v.662c-.277.016-.372.236-.473.469a.927.927,0,0,1-.4.527,2.4,2.4,0,0,0-.706.669c-.094.115-.191.235-.291.34a.227.227,0,0,0,.2.136c.09.021.184.042.216.189.065-.065.126-.139.186-.21.181-.217.352-.422.627-.422a.614.614,0,0,1,.133.015v-.458a1.408,1.408,0,0,0,.636-.517c.042-.051.085-.1.129-.152a1.091,1.091,0,0,1,.263-.2.626.626,0,0,0,.392-.543l.046,0c.206,0,.291-.16.382-.33a.7.7,0,0,1,.259-.32,1.752,1.752,0,0,0,.5-.492c.059-.075.119-.151.18-.22a4.17,4.17,0,0,0,.316-.427,3.728,3.728,0,0,1,.313-.421,3.394,3.394,0,0,0,.242-.315,2.121,2.121,0,0,1,.388-.452c.068-.054.143-.1.215-.151a1.1,1.1,0,0,0,.517-.556,1.2,1.2,0,0,1,.707-.73.618.618,0,0,1,.032-.442c.1-.18.338-.228.566-.275l.1-.02-.171-.194c.006-.129.077-.131.152-.132.059,0,.12,0,.148-.07l.061-.15a2.08,2.08,0,0,1,.61-.974,2.455,2.455,0,0,0,.579-.651,4.268,4.268,0,0,1,.3-.393c1.288-1.455,2.469-2.724,3.611-3.881a.928.928,0,0,0,.083-.1c.05-.068.1-.139.162-.154a1.816,1.816,0,0,0,.9-.665,4.239,4.239,0,0,1,.354-.368c.179-.158.349-.339.513-.513a5.273,5.273,0,0,1,.753-.7,9.4,9.4,0,0,0,1.9-1.617.247.247,0,0,1,.111.109c.019.029.034.053.054.053a.035.035,0,0,0,.018-.005c.1-.108.2-.231.294-.349.2-.257.394-.5.621-.557a1.21,1.21,0,0,0,.6-.427,2.438,2.438,0,0,1,.379-.354c-.811.1-.811.1-1.243.574a.257.257,0,0,0-.173-.066.658.658,0,0,0-.233.062.717.717,0,0,1-.252.064.324.324,0,0,1-.2-.074c-.013.063-.022.132-.031.2-.038.278-.076.566-.41.566a.716.716,0,0,1-.093-.007l-.029,0a.192.192,0,0,0-.179.126,1.841,1.841,0,0,1-.8.835,3.816,3.816,0,0,0-.406.3l-.082.072a1.373,1.373,0,0,1-.841.465.666.666,0,0,1-.192-.029,1.785,1.785,0,0,1-.781.982l-.076-.08-.149-.158-.232.58-.065.163a1.614,1.614,0,0,0-.779.325l-.024.016v.384a.937.937,0,0,0-.551.43l-.042.054a.682.682,0,0,1-.2.157.542.542,0,0,0-.3.368.991.991,0,0,1-.334.44c-.064.059-.13.12-.186.183a.585.585,0,0,1-.137.013l-.078,0-.083,0a.527.527,0,0,0-.338.1l.471.208c-.31.012-.41.205-.507.392a.938.938,0,0,1-.157.242c-.239.239-.465.5-.683.757-.094.11-.191.223-.287.332a.245.245,0,0,1,.014.176c-.026.06-.093.081-.164.1-.1.033-.21.067-.2.221a.2.2,0,0,1-.031.142.125.125,0,0,1-.1.038.743.743,0,0,1-.092-.008.827.827,0,0,0-.1-.008.14.14,0,0,0-.157.124l.046.065,0,.006-.785.892-.018.02-.355.4c-.013.02-.025.029-.037.029s-.04-.031-.059-.064l0-.007c-.022-.037-.045-.07-.076-.07s-.044.017-.069.051a.19.19,0,0,0-.056.127.321.321,0,0,0,.112.191.3.3,0,0,1,.111.194.222.222,0,0,1-.087.149.074.074,0,0,1-.023,0c-.038,0-.062-.034-.086-.067s-.048-.066-.086-.066a.114.114,0,0,0-.067.028.4.4,0,0,0-.024.218.319.319,0,0,1-.089.306c-.074-.106-.157-.226-.23-.226a.067.067,0,0,0-.027.006.239.239,0,0,0-.165.265v.024c.005.367-.045.764-.458.931a.444.444,0,0,1-.3.411.653.653,0,0,0-.24.187,2.189,2.189,0,0,1-.268.3,1.677,1.677,0,0,0-.319.392,6.287,6.287,0,0,1-1.038,1.354,10.158,10.158,0,0,0-.74.865.529.529,0,0,0-.337-.152Z" transform="translate(0 0)"/>
    </g>
    <g id="_62" data-name="62" transform="translate(1016.971 432.015) rotate(139)">
      <path id="Fill_25" data-name="Fill 25" class="cls-1" d="M13.174,2.093l-.2.558.3.145c.064.233.419.48.2.8-.194.284.319.584-.073.815a2.207,2.207,0,0,1-.629,1.442c-.251.378-.312.849-.691,1.177a5.147,5.147,0,0,0-.765,1.118l-.7.031.148.473-.333.376.252.775-.4.457.392.14-.544.386.17.2c-.6.222-1.128-.313-1.786-.054-.407.293-.708.892-1.312,1.113-.233.086-.034.513-.433.462-.142-.018-.037.44-.37.351-.124.415-.494.581-.786.842a4.436,4.436,0,0,0-.658.78c-.163.235-.336.462-.508.69a6.412,6.412,0,0,0-.467.619c-.109.189-.1.513-.247.6a.654.654,0,0,0-.376.507l-.434-.258c-.373.182-.746.355-1.117-.1v-.946a3.279,3.279,0,0,1-1.792-1.66c.026-.3-.119-.724.169-1.074a2.212,2.212,0,0,1,.348-2.24A8.932,8.932,0,0,1,2.4,8.394c-.439-.658-.9-1.271-1.271-1.932a3.335,3.335,0,0,1-.556-1.47A2.789,2.789,0,0,1,.712,3.344c.143-.245.006-.6.167-.921a2.981,2.981,0,0,1,.305-.595c.08-.1.077-.268.143-.534.148-.138.521-.324.6-.593.112-.392.614-.243.607-.7l.277.21L3.5.007,3.75.49l-.6,1.088,1.084-.107.255.254-.4.79.774.079c-.067.319-.134.638-.2.953l-.367.328c.081.081.114.124.122.12.118-.065.232-.136.372-.221l.115.3-.775.392.418.14-.654.656.9.71a1.324,1.324,0,0,0,1.149-.4c.807-.7,1.694-1.3,2.489-2a10.692,10.692,0,0,0,2.259-2.38A3.588,3.588,0,0,1,11.265.6h.949l.234.3-.349,1,.825-.227.25.432" transform="translate(70.349 37.368)"/>
      <path id="Fill_27" data-name="Fill 27" class="cls-1" d="M3.753,19.617l-.844.261.189-.405c-.207-.312-.441-.591-.869-.529l-.084-.321H1.4c-.074-.074-.139-.11-.156-.161A3.491,3.491,0,0,0,.9,17.441c-.266-.347-.134-.687-.146-1.023a3.142,3.142,0,0,1,.167-.826A11.963,11.963,0,0,1,2.007,12.8a14.674,14.674,0,0,1,.977-1.577c.35-.491.76-.94,1.156-1.422-.107-.069-.225-.149-.347-.221A15.686,15.686,0,0,1,.614,7.022,3.078,3.078,0,0,1,.026,5.374a3.239,3.239,0,0,1-.009-.719c.242-.462.731-.5,1.2-.69l.509.895.189-.139c.062.061.171.121.2.208A1.922,1.922,0,0,0,3.212,5.969c.946.473,1.9.928,2.918,1.421a3.88,3.88,0,0,1,.82-.829c.318-.178.335-.687.83-.638l-.193-.237.521-.364.272-.6.5-.029-.2-.262c.383-.056.408-.452.649-.665A6.182,6.182,0,0,0,10,2.921l.216.159.146-.345.234.189a3.531,3.531,0,0,1,.858-1.6A4.36,4.36,0,0,1,12.847,0l.311.256a2.464,2.464,0,0,1-1.021,1.227V2.2c.123-.03.249-.024.275-.073a4.948,4.948,0,0,0,.219-.505l1.22-1c.025.337.041.557.057.768l-.345.141c.028.039.062.113.081.109.219-.045.435-.1.7-.168l.26.457-.173.191c.038.261.352.492.109.791l-.2-.179c-.03.056-.088.115-.076.152a2.455,2.455,0,0,0,.164.339,1.833,1.833,0,0,1-.755,1.071c-.321.293-.675.549-1.088.881l.484.279L12.84,5.9l.185.2-.6.1.183.466h-.6l-.3.617.233.251-.589.11.174.456-.536.079.2.54-.612-.238-.293.558c.034.065.048.137.089.159.072.039.169.032.24.071.276.154.34.511.612.664a2.112,2.112,0,0,1,.606.7,1.014,1.014,0,0,1,.274.707c-.007.1.081.2.136.326l-.209.354c-.244.028-.421.354-.865.182a10.1,10.1,0,0,0-2.428-.672c-.047-.006-.086-.08-.162-.157l-.8.9-.039.328-.595.094.485.681-.536-.157-.2.231c.1.289.02.465-.318.657l-.279,1-.348.128.2.2a4.666,4.666,0,0,0-.787.624,3.89,3.89,0,0,0-.414.863l.167.251-.581.6.22.275-.408.466v.526l-.6.573" transform="translate(22.56 38.83)"/>
      <path id="Fill_29" data-name="Fill 29" class="cls-1" d="M13.13,1.16c.417.5.417.5.922.225a2.653,2.653,0,0,0,.044.431.981.981,0,0,0,.153.248l-.161.161.443.208-.591.842c.249.448-.278.527-.353.767-.117.37-.567.45-.58.846-.015.461-.488.518-.694.787-.179.234-.5.386-.537.685L12,6.736l-.732.415-.562.266-.57.672v.177L8.394,9.542l.466.238-.769,1.075,2.016.688-.2.4.9.321v.392l.56.514q.017.318.032.608l.327.327-.829.69c-.2.218-.4.177-.618.032a.444.444,0,0,0-.24-.067,7.18,7.18,0,0,1-2.619-.644c-.625-.228-1.226-.52-1.874-.8-.177.176-.452.31-.488.673l-1.117.265-.481-.487.2-.221-.243-.5-.766.118-.376-.744-.118.118-.678-.688c.086-.625-.314-1.344-.207-2.12A.721.721,0,0,0,1.041,9.2c-.532-.5-.555-1.22-.8-1.834A2.456,2.456,0,0,1,.03,6.554,6.683,6.683,0,0,1,.041,5.205C.163,4.514.294,3.777,1.1,3.5a6.2,6.2,0,0,1,.91-.158V4.752l.814-.524.143.42.136-.1v.829l.373-.189a1.238,1.238,0,0,1,.32,1.2l.4.141-.228.616c.1-.019.156-.013.185-.037.07-.056.118-.155.2-.184.77-.293,1.157-1.111,1.93-1.4.155-.56.745-.679,1.09-1.056a9.107,9.107,0,0,1,1.3-.974c.419-.317.655-.85,1.2-1.018A3.9,3.9,0,0,1,11.383.964c-.022-.443.586-.5.572-.964h.813L13,.228c-.389.194-.531.57-.78.967.538.111.849-.544,1.356-.242l-.442.207" transform="translate(35.352 60.88)"/>
      <path id="Fill_31" data-name="Fill 31" class="cls-1" d="M.021,11.693c-.042-.421.551-.468.27-.86l-.2.177c-.021-.021-.058-.04-.061-.064A1.414,1.414,0,0,1,.3,9.725c.345-.4.687-.794,1.017-1.2a3.546,3.546,0,0,0,.272-.471c-.163-.425-.387-.866-.581-1.3C.8,6.278.807,5.768.58,5.3c-.121-.247.194-.681.12-.984-.083-.339-.283-.627.009-.946A3.262,3.262,0,0,1,1.854,1.3h1.5l.316.3-.71.9.186.4c.085,0,.247.049.3-.009.251-.246.541-.147.8-.176l.269.584-.488.609.819.1v.864c.609.02.676-.718,1.188-.715a5.071,5.071,0,0,1,.878-.884c.353-.326.688-.671,1.021-1.017.306-.32.617-.638.892-.983S9.363.537,9.527.3L10.37,0a1.328,1.328,0,0,1,.261.393c.027.114-.063.266-.125.389a.979.979,0,0,0-.164.514l.815-.344.57,1.111a1.928,1.928,0,0,0,0,.341,2.889,2.889,0,0,0,.123.438l-.162.284.205.221c-.522.836-.992,1.7-1.565,2.512-.481.68-.414.727-.766.92l.159.176-2.139,2.4v.3l1.68,1.07-.211.415c.216.185.361.542.779.411l.24.476-.208.289.649.65-.234.6.191.329c-.032.068-.042.139-.081.165-.089.058-.219.069-.284.142-.388.438-.457.462-.945.3a11.951,11.951,0,0,1-1.887-.658A26.692,26.692,0,0,1,5.011,12.3a8.257,8.257,0,0,0-1.074.975,3.151,3.151,0,0,1-1.454.862l.259-.43-1.077.2-.058-.116.609-.474L1.9,13H1.287l-.281-.708H.259l-.239-.6" transform="translate(46.371 40.818)"/>
      <path id="Fill_33" data-name="Fill 33" class="cls-1" d="M9.5,16.685l-.967.232c-.4-.292-.867-.656-1.355-1a10.39,10.39,0,0,0-1.75-1.212c-.154-.066-.315-.114-.529-.191-.259-.388-.289-1.108-1.048-1.028-.343-.314-.385-.859-.888-.912a3.421,3.421,0,0,0-.484-.8A10.27,10.27,0,0,1,.167,8.44c-.053-.409-.054-.954-.142-1.5A2.069,2.069,0,0,1,1.09,4.861c.206-.132.312-.421.654-.39a2.854,2.854,0,0,0,.805-.183l.374.332c-.254.427-.735.7-.771,1.269.566.189.819-.44,1.388-.512l.308.276-.588.881c.389-.123.666-.125.768-.259.258-.34.676-.477.918-.856a3.145,3.145,0,0,1,.974-.861A19.219,19.219,0,0,0,7.393,3.307,20.656,20.656,0,0,1,9.643,1.57a4.5,4.5,0,0,0,.835-.816c.245-.257.635-.37.712-.753H12.4V.782l-.29.291c.161-.029.321-.052.478-.087s.317-.085.56-.152a1.662,1.662,0,0,0,.412,1.473l-.241.325.554.3-.514.141a1.85,1.85,0,0,1,.142.339,1.716,1.716,0,0,1,.006.357L12.472,5.194l-.418.046.154.213-.181.431c-.793-.038-.8.779-1.29,1.1l.179.235L9.928,8.2c.027.024-.016-.014,0,0l-.454.454-.148-.116V9.02l-.3-.249L9.1,9.3l-.789,1.022-.3-.222-.993,1.161.422.21-.432.547c.021.073.021.14.055.178A14.559,14.559,0,0,1,8.694,14.05a3.269,3.269,0,0,1,.8,2.635" transform="translate(40.803 18.138)"/>
      <path id="Fill_35" data-name="Fill 35" class="cls-1" d="M1.818,15.55l.142-.142a.958.958,0,0,0-.1-.125c-.234-.213-.529-.4-.718-.6s-.393-.36-.581-.547a1.639,1.639,0,0,1-.541-.926A6.481,6.481,0,0,1,.1,11.457,5.1,5.1,0,0,1,1.6,8.919C2.51,8.009,3.421,7.1,4.378,6.139c-.364-.313-.382-.9-.958-1.019L2.7,3.709a2.827,2.827,0,0,1-.181-1.366c0-.33,0-.66,0-.991L3.422.2h1.5L4.275,1.3c.555.4.759-.47,1.247-.2.3.417-.262.613-.442,1.016l.794-.191A1.379,1.379,0,0,1,5.717,3.13l.366.142c.1.112-.112.128-.149.293l.539.825C7.961,2.829,9.858,1.783,11.017,0h.9l-.214.913.71-.25v.7l.307.081a.574.574,0,0,1,.065.152c.011.089-.012.182.005.269a3.064,3.064,0,0,1-.772,2.38C11.494,5,10.88,5.7,10.26,6.484a11.907,11.907,0,0,0,1.775,1.287c.012.082.03.22.053.379.165.207.432.407.508.663.166.562.576,1.086.3,1.812-.068.031-.218.1-.372.17s-.31.121-.484.189c-.239-.243-.778-.166-.705-.638l-1.5-.435-.315-.547h-1c-.025-.107-.045-.189-.068-.289-.368-.283-.678.05-.893.108l-.768.89L6.559,9.9l-.361.51.094.121c-.418.1-.454.525-.638.87l-.385-.237c-.025.155-.049.307-.078.487l-.288.078c-.039.365-.091.81-.632.689-.182.236-.487.455-.466.637.062.548-.4.811-.522,1.239a1.144,1.144,0,0,0,.117.9,3.5,3.5,0,0,1-1.344.653l-.238-.3" transform="translate(60.991 6.239)"/>
      <path id="Fill_37" data-name="Fill 37" class="cls-1" d="M10.088,5.4l-.53.066.258.285c-.224.416-.648.666-.935,1.03l.141.141-.654.513c-.108.284.122.6-.257.78.336.225.643.426.945.634a14.152,14.152,0,0,1,2.739,2.1,2.61,2.61,0,0,1,.876,1.715c0,.122.125.242.224.421l-.846.535a41.514,41.514,0,0,1-5.365-3.37c-.122.07-.389.129-.439.266a3.625,3.625,0,0,1-.968,1.314c-.048.048-.03.16-.043.244l-.525.058.139.475A2.377,2.377,0,0,0,4.1,13.86a3.649,3.649,0,0,1-.646.944v1.959l-.474.03-.116.327H2.247l-.312-.9-.551.242-.109-.336c-.051-.021-.107-.068-.153-.059a.62.62,0,0,1-.69-.456C.241,14.772-.3,13.946.219,13.049a6.468,6.468,0,0,1,.874-2.339c.1-.252.541-.208.422-.644-.049-.179.276-.463.436-.7A6.9,6.9,0,0,1,2.4,8.746c.2-.226.435-.416.629-.644a7.511,7.511,0,0,0,.445-.644A12.629,12.629,0,0,1,.941,4.378,8.69,8.69,0,0,1,.435,1.064L1.361,0c.386.079.82-.16,1.173.242l-.692.933.181.193c.489.1.668-.611,1.179-.446l.231.449-.527.338.285.286c.255-.264.5-.267.8.094-.027.2.129.492-.172.727l.422.2-.4.54.445.158-.463.125c.018.146-.018.347.066.459.345.464.726.9,1.134,1.4.225-.2.4-.352.564-.507A15.3,15.3,0,0,1,8.625,2.515c-.007-.339.348-.315.5-.5.173-.205.365-.394.489-.527h.606c-.275.4-.743.633-.59,1.215l1.241-.74c-.042.267-.074.472-.11.706l.666.337-.189.391.262.055c.009.035.043.095.027.117a4.873,4.873,0,0,0-.653.886c-.175.412-.562.6-.786.94" transform="translate(0 6.205)"/>
      <path id="Fill_39" data-name="Fill 39" class="cls-1" d="M4.321,5.376C5.04,4.494,5.646,3.762,6.24,3.019A16.518,16.518,0,0,0,7.721.777l-.2-.25L7.982,0h.594c.222.222.4.539.655.62.31.1.354.347.48.532a2.13,2.13,0,0,1,.4,2.131q-.308.772-.627,1.542c-.064.154-.111.316-.193.551l-.455.456V6.4L7.862,8.171c.449.3.862.6,1.288.873a5.01,5.01,0,0,1,1.958,2.147,6.63,6.63,0,0,1,.224.733l-.2.438-.543.253c-.424-.146-.8-.256-1.157-.4s-.7-.337-1.05-.508c-.06-.522-.655-.311-.9-.666-.2-.292-.648-.413-1.04-.641a29.012,29.012,0,0,0-3.159,3.887c-.073.106-.05.278-.071.419a.948.948,0,0,1-1.234-.02v-.287L.4,13.448c-.262-.307-.129-.789-.3-1.162-.19-.415-.029-.817-.1-1.123a11.272,11.272,0,0,1,2.313-3.5V7.052A5,5,0,0,1,1,5.389a2.564,2.564,0,0,1-.2-.726A5.925,5.925,0,0,1,.528,3.15,2.227,2.227,0,0,1,2.1,1.049,6.935,6.935,0,0,1,3.961.87c-.353.732-1.2.669-1.695,1.282.854-.038,1.373-.842,2.244-.688l-.1.626.619.219V3.454c-.232.4-.487.809-.695,1.236-.067.137-.011.335-.011.685" transform="translate(22.223 15.43)"/>
      <path id="Fill_41" data-name="Fill 41" class="cls-1" d="M6.806,9.584,5.82,10.821v1.157l-.974.391a2.934,2.934,0,0,1-.711-1.432l-.564.21a4.856,4.856,0,0,1-.522-.768,5.57,5.57,0,0,1-.29-2.532l.45-1.026c-.249-.037-.47,0-.562-.1C2.065,6.136,1.49,5.537.956,4.9A3.263,3.263,0,0,1,.25,3.762,13.221,13.221,0,0,1,0,1.822,6.561,6.561,0,0,1,.846.673,6.139,6.139,0,0,1,2.116,0l.34.368-.946.911.221.221c.4-.294.8-.678,1.459-.425l-.512.7.7-.273.37.558-.68.68.37.076c-.2.344-.089.821-.616,1A6.79,6.79,0,0,0,4.52,5.2L10.422.31h.87l-.4.8c.261.2.468-.024.7-.125a2.387,2.387,0,0,1,.688,2.271l-.854,1.1.181.168-.469.06.181.2h-.336A27.869,27.869,0,0,1,8.56,7.784c1.048.584,2.22,1.018,3.329,1.679.034.167.072.356.116.579l.337-.356c.446.06.437.573.812.761.328.165.519.6.775.922v1.07l-.291.291A7.589,7.589,0,0,1,11.1,11.674l-.107.1c-.591-.146-.944-.781-1.626-.686-.318-.409-.841-.441-1.249-.682S7.3,9.9,6.806,9.584" transform="translate(34.972 0)"/>
      <path id="Fill_43" data-name="Fill 43" class="cls-1" d="M2.929,2.067l.547.309c-.049.294-.1.589-.159.954.151.262.278.662.736.823.205-.286.331-.614.726-.774.277-.113.44-.508.653-.778a5.418,5.418,0,0,0,.742-.862c.155-.3.487-.513.7-.8s.38-.625.567-.94H8.455a.755.755,0,0,1-.194.861L8.98.9c.092.42.174.8.256,1.173l-.372.145a1.131,1.131,0,0,0,.04.242A.941.941,0,0,1,8.632,3.77a.708.708,0,0,0-.2.7c.129.3-.258.187-.075.469l-.36-.3v.5l-.551.105v.493L6.913,6.3l.845.828v.679l.606.607-.179.315.36.732L8,10.6H7.246L4.676,9.132,4.306,9.7l-.483-.236v.839L3,10l.267.364-.617.579c-.056-.336-.09-.546-.128-.777l.359-.124.047-.25L2.6,9.681c.039-.159.078-.32.145-.592l-.27.247L1.347,9.124l-.225-.433c.068-.264.145-.563.224-.869l.624.1L2,7.827l-.673-.338.366-.756A16.418,16.418,0,0,1,.085,3.68,5.189,5.189,0,0,1,.234,1.44,1.9,1.9,0,0,1,1.317.164c.074-.042.145-.09.264-.164h.9l.358.359L2.373.82v.555l.608-.157.365.341-.417.508" transform="translate(65.102 21.92)"/>
      <path id="Fill_45" data-name="Fill 45" class="cls-1" d="M6.8.1l.307.307L5.458,1.817l.037.095A.968.968,0,0,0,5.839,1.8c.159-.133.284-.305.5-.348L7.486.809c.327.264.088.473-.052.793l.5-.19.235.235c0,.36,0,.72,0,1.085l-.326.318c.017.042.021.1.052.122.2.154.41.309.626.446.232.147.558.189.567.565,0,.043.074.092.123.126a3.4,3.4,0,0,1,.554.391,3.744,3.744,0,0,1,.389.643c0,.152,0,.393,0,.633L9.732,6.4,6.348,5.189l-.787.419-.034-.055-.766.766-.024.388L3.369,8.025c-.2.622-.1,1.262-.928,1.393-.172-.274-.788-.318-.647-.958l-.609-.177-.217.145L.239,7.656,0,5.617,2.269,3.163a9.312,9.312,0,0,1-.892-.569A10.079,10.079,0,0,1,.6,1.83L.825,1.1.443.969V.36L.631.172,1.494,0,4.306,1.577C5.256,1.216,5.872.383,6.8.1" transform="translate(7.014 33.147)"/>
    </g>
    <path id="support-line" class="cls-2" d="M35,0A34.989,34.989,0,1,1,10.248,10.248,34.934,34.934,0,0,1,35,0Zm0,19.3a15.452,15.452,0,0,1,4.853.765L52.192,7.859a32.124,32.124,0,0,0-33.581-.485L30.949,19.843a15.3,15.3,0,0,1,4.069-.523Zm7.523,1.923a15.753,15.753,0,0,1,3.565,2.669,15.49,15.49,0,0,1,2.931,4.069L60.984,16.128A32.2,32.2,0,0,0,57.7,12.283a31.665,31.665,0,0,0-3.267-2.856L42.5,21.224Zm7.579,9.5a15.621,15.621,0,0,1-.205,9.221l12.189,12.32a32.173,32.173,0,0,0,.429-33.824ZM48.739,42.579a15.762,15.762,0,0,1-6.795,6.477L53.8,61.021a32.464,32.464,0,0,0,6.72-6.533ZM39.2,50.12a15.95,15.95,0,0,1-9.352-.3L17.565,61.973a32.139,32.139,0,0,0,33.917.579L39.181,50.12ZM27.253,48.645a15.333,15.333,0,0,1-3.341-2.539,15.621,15.621,0,0,1-3.061-4.312l-12,11.872a32.472,32.472,0,0,0,3.435,4.069,30.036,30.036,0,0,0,3.061,2.688l11.891-11.76Zm-7.411-9.651a15.58,15.58,0,0,1-.5-3.976,15.826,15.826,0,0,1,.84-5.077L8.008,17.64a32.123,32.123,0,0,0-.635,33.693L19.843,38.976Zm1.512-11.667a15.826,15.826,0,0,1,2.576-3.4,15.619,15.619,0,0,1,4.256-3.024L16.333,8.923a34.793,34.793,0,0,0-4.013,3.4,33.769,33.769,0,0,0-2.744,3.117L21.355,27.347ZM44.2,25.835a12.979,12.979,0,1,0,3.808,9.184A12.951,12.951,0,0,0,44.2,25.835Z" transform="translate(925 305)"/>
  </g>
</svg>
