<svg xmlns="http://www.w3.org/2000/svg" width="19.968" height="26" viewBox="0 0 19.968 26">
  <defs>
    <style>
      .cls-1 {
        fill: #4d4d4d;
      }
    </style>
  </defs>
  <path id="lock_closed_4D4D4D" class="cls-1" d="M1.849,9.676h.609V7.827a7.969,7.969,0,0,1,2.2-5.517,7.3,7.3,0,0,1,10.659,0,7.969,7.969,0,0,1,2.2,5.517V9.676h.609a1.867,1.867,0,0,1,1.3.538,1.834,1.834,0,0,1,.538,1.3V24.158a1.867,1.867,0,0,1-.538,1.3,1.834,1.834,0,0,1-1.3.538H1.842a1.867,1.867,0,0,1-1.3-.538A1.834,1.834,0,0,1,0,24.158V11.517a1.867,1.867,0,0,1,.538-1.3,1.834,1.834,0,0,1,1.3-.538Zm7.468,8.8L8.427,20.8h3.121L11.1,19.527l-.376-1.08a1.614,1.614,0,1,0-1.4.031Zm-5.556-8.8H16.223V7.827a6.646,6.646,0,0,0-1.842-4.619,6,6,0,0,0-8.786,0A6.68,6.68,0,0,0,3.753,7.827V9.676Zm14.373,1.3H1.849a.524.524,0,0,0-.382.164.537.537,0,0,0-.164.382V24.158a.524.524,0,0,0,.164.382.537.537,0,0,0,.382.164H18.134a.524.524,0,0,0,.382-.164.537.537,0,0,0,.164-.382V11.517a.524.524,0,0,0-.164-.382A.537.537,0,0,0,18.134,10.971Z"/>
</svg>
