<svg xmlns="http://www.w3.org/2000/svg" width="25.27" height="26" viewBox="0 0 25.27 26">
  <path id="notification_4D4D4D" d="M16.372,24.918a3.828,3.828,0,0,1-2.42,2.861,3.994,3.994,0,0,1-2.618,0,3.525,3.525,0,0,1-1.14-.669,3.682,3.682,0,0,1-1.287-2.229.413.413,0,0,1,.324-.471L9.3,24.4H16a.408.408,0,0,1,.4.4.568.568,0,0,1-.015.11Zm-1.6-21.447a9.683,9.683,0,0,1,.956.309,8.662,8.662,0,0,1,1.309.647.32.32,0,0,0,.051.029A8.546,8.546,0,0,1,19.211,6.3a9.317,9.317,0,0,1,.816,1.177,8.513,8.513,0,0,1,.618,1.309,8.057,8.057,0,0,1,.4,1.427,8.515,8.515,0,0,1,.132,1.508v1.633c0,.522.007,1.03.007,1.53v.007a11.25,11.25,0,0,0,.331,2.655,6.482,6.482,0,0,0,.427,1.184,7.622,7.622,0,0,0,.669,1.147,6.846,6.846,0,0,0,.971,1.089,11.23,11.23,0,0,0,1.4,1.081.671.671,0,0,1,.184.919.659.659,0,0,1-.552.294H.662A.659.659,0,0,1,0,22.6a.649.649,0,0,1,.324-.566,10.784,10.784,0,0,0,1.383-1.081,6.824,6.824,0,0,0,.964-1.089c.007-.007.015-.022.022-.029a7.786,7.786,0,0,0,.64-1.118,7.431,7.431,0,0,0,.434-1.192c0-.007.007-.015.007-.022a9.3,9.3,0,0,0,.235-1.258,11.79,11.79,0,0,0,.081-1.368V11.738a8.639,8.639,0,0,1,.132-1.508,7.641,7.641,0,0,1,.4-1.434,9.384,9.384,0,0,1,.625-1.317A8.735,8.735,0,0,1,6.068,6.3V6.288A8.329,8.329,0,0,1,7.083,5.266,8.54,8.54,0,0,1,8.26,4.42a7.828,7.828,0,0,1,1.324-.64,8.4,8.4,0,0,1,.978-.3,2.04,2.04,0,0,1,.588-.971A2.207,2.207,0,0,1,12.665,2a2.221,2.221,0,0,1,1.5.515,2,2,0,0,1,.588.964Zm.471,1.545a6.818,6.818,0,0,0-1.125-.338.664.664,0,0,1-.574-.581.963.963,0,0,0-.25-.61.929.929,0,0,0-.633-.177.921.921,0,0,0-.625.169.928.928,0,0,0-.243.618.655.655,0,0,1-.537.574,7.434,7.434,0,0,0-1.2.338,7.019,7.019,0,0,0-1.111.537A7.12,7.12,0,0,0,6.392,8.134a7.927,7.927,0,0,0-.537,1.125,6.491,6.491,0,0,0-.338,1.2,7.124,7.124,0,0,0-.11,1.272v3.141a11.624,11.624,0,0,1-.1,1.53,10.6,10.6,0,0,1-.272,1.427c0,.007-.007.022-.007.029a8.578,8.578,0,0,1-.515,1.412,8.271,8.271,0,0,1-.75,1.3.154.154,0,0,1-.029.044,8.024,8.024,0,0,1-1.155,1.3l-.015.015H22.653a8.011,8.011,0,0,1-1.147-1.294,8.667,8.667,0,0,1-1.294-2.765,11.948,11.948,0,0,1-.272-1.464,13.925,13.925,0,0,1-.1-1.508c-.007-.493-.007-1.008-.007-1.537-.007-.993-.007-1.53-.007-1.633a7.246,7.246,0,0,0-.11-1.272,6.488,6.488,0,0,0-.331-1.192,7.091,7.091,0,0,0-.53-1.118,7.579,7.579,0,0,0-.691-1,7.25,7.25,0,0,0-.853-.861,7.806,7.806,0,0,0-.949-.691l-.044-.022a7.431,7.431,0,0,0-1.111-.552Z" transform="translate(0 -2)" fill="#4d4d4d"/>
</svg>
