<svg id="Layer_1" data-name="Layer 1" xmlns="http://www.w3.org/2000/svg" viewBox="0 0 90 60.93"><title>root</title><path d="M78.43,37s1.57-.87,1.67-1a15.15,15.15,0,0,1,1.57-.75,13.78,13.78,0,0,1,4.33-1,9,9,0,0,1,3.75.53,22.14,22.14,0,0,1,2.76,1.37A16.76,16.76,0,0,0,95,37.31a16.16,16.16,0,0,1-2.23-1.55,22.43,22.43,0,0,0-2.61-1.85A10.18,10.18,0,0,0,86,32.64a14.91,14.91,0,0,0-4.32.27c.28-.77.52-1.58.74-2.35a10.55,10.55,0,0,1,2.07-4.25,2.4,2.4,0,0,1,1.28-.81,1.09,1.09,0,0,1,.44,0h.15a1.27,1.27,0,0,0-.6-.18,2.63,2.63,0,0,0-1.59.58,8.06,8.06,0,0,0-1.7,1.7A18.48,18.48,0,0,0,81.08,30c-.44.8-.85,1.59-1.28,2.26a9.39,9.39,0,0,1-1.19,1.55c-1,.35-2,.74-2.93,1.16-1.76.76-3.45,1.55-5.19,2.16a15.72,15.72,0,0,1-2.51.66l-.57.07H65.55a17.4,17.4,0,0,1-1.94-.19l-.51-.56a11.36,11.36,0,0,0-.16-1.29c-.43-2.46-1.16-4.32-1.53-5.89a44.57,44.57,0,0,1-.93-4.57A40.55,40.55,0,0,1,60,19.54H46.36a5.16,5.16,0,0,1-.1.88c-.33,1.31-.71,2.72-1,4.54s-.44,3.43-.68,5a16.07,16.07,0,0,1-.45,2.17,2.91,2.91,0,0,1-.59,1.21l-.1.11a7,7,0,0,1-2.77,1.31,16.77,16.77,0,0,1-2.52.5c-.41.05-.82.07-1.23.08h-1.3a22.15,22.15,0,0,1-5.21-1.55c-.68-.27-1.39-.53-2.11-.79l-.2-1.73L28,30.18l-.07-.55c0-.2-.06-.41-.1-.61a4.34,4.34,0,0,0-.16-.62,3,3,0,0,0-.28-.64,3.51,3.51,0,0,0-.4-.53,2.79,2.79,0,0,0-.49-.42A8.38,8.38,0,0,0,24.22,26h-.08l-.16.07a.49.49,0,0,1,.17,0h.15a6.06,6.06,0,0,1,1.58,1.36,2,2,0,0,1,.23.4,2.25,2.25,0,0,1,.13.42,2.67,2.67,0,0,1,0,.4,3.53,3.53,0,0,1,0,.46,3.85,3.85,0,0,1-.08.47l-.16.53-.22,1.08-.18.91c-.39-.09-.77-.18-1.16-.24a10.47,10.47,0,0,0-6.15.7c-.32.15-.87.37-.87.37l-1.31-.09c-.42,0-.84-.1-1.25-.18q-.33-.07-.66-.18h-.09l-.18-.09-.37-.18-.73-.37-.32-.16-.34-.19L11,30.8l-1.19-.68.89,1,.91,1.07.25.3.31.32.57.6.31.3.14.15.07.07h.06a7.44,7.44,0,0,0,.73.52,6.08,6.08,0,0,0,.6.34l-.6.56a10.31,10.31,0,0,1-3.52,1.72,20.16,20.16,0,0,1-3.09.53,3.14,3.14,0,0,1-1.92-.38,1.67,1.67,0,0,1-.39-.36L5,36.72a1.91,1.91,0,0,0,.43.59,3.38,3.38,0,0,0,2,.73,22.17,22.17,0,0,0,3.26,0,11.66,11.66,0,0,0,4.15-1.28c.58-.28,3.5-1.73,4.3-2a7.67,7.67,0,0,1,4.62.22,25.13,25.13,0,0,1,4.91,2.41A27.82,27.82,0,0,0,34.15,40a10.61,10.61,0,0,0-1.46,1.22A8.37,8.37,0,0,0,32,42a7.23,7.23,0,0,0-.6.85,12.73,12.73,0,0,0-.85,1.64l-.32.78-.14.38v.2h0l-.65.24c-1,.36-2.13.8-3.36,1.29l-.6.08c-3.59.45-7.22.67-7.22.67s2,.3,4.57.58c-1,.41-1.94.84-2.83,1.26a13.22,13.22,0,0,0-2.75,1.53A3.77,3.77,0,0,0,16,53.32a2.14,2.14,0,0,0-.11.83,2.31,2.31,0,0,1,.16-.78,3.48,3.48,0,0,1,1.44-1.48,12.79,12.79,0,0,1,2.82-1c1.08-.31,2.23-.61,3.39-.9s2.52-.59,3.69-.85l1.59.1-.84,2.58-.46,1.44-.38,1.33c-.16.55-.35,1.06-.54,1.56a3.34,3.34,0,0,1-.32.33,2.86,2.86,0,0,1-1.16.63,7.15,7.15,0,0,1-1.45.28,3,3,0,0,1-1.26-.18,6.87,6.87,0,0,1-.88-.38l-.33-.17.28.24a7.73,7.73,0,0,0,.79.59,3.5,3.5,0,0,0,1.35.53,7.7,7.7,0,0,0,1.66.08.86.86,0,0,0,.38-.06,6.91,6.91,0,0,1-2.3,2.23,12.68,12.68,0,0,1-3.77,1.44,26.37,26.37,0,0,1-3.19.47c-1.8.15-2.84.18-2.84.18s1,.13,2.85.25a26.27,26.27,0,0,0,3.32,0,13.93,13.93,0,0,0,4.32-.94,9.08,9.08,0,0,0,4.23-3.54,19.44,19.44,0,0,0,1.43-2.56l.61-1.32L31,53l2.69-5.36.09-.17h0v0l.22-.36.36-.6a8,8,0,0,1,.73-1,3.06,3.06,0,0,1,.36-.36,4.23,4.23,0,0,1,.41-.33,6.49,6.49,0,0,1,1-.55c.72-.35,1.61-.66,2.63-1l.78-.32.8-.36c.52-.24,1-.5,1.51-.76,1-.52,1.89-1,2.76-1.55l1.32-.77a13.51,13.51,0,0,0,1.25-.89c-.35.64-.73,1.3-1.13,2-.53.93-1.08,1.91-1.58,3-.12.25-.27.58-.36.8l-.33.84c-.21.55-.39,1.1-.55,1.65-.65,2.22-1.06,4.22-1.49,6.36a21.7,21.7,0,0,0-.38,6.58,5.65,5.65,0,0,0,.11.7l-.32,1.07a16.58,16.58,0,0,1-1.45,3.73,7.23,7.23,0,0,1-.6.85,6,6,0,0,1-.72.7,4.76,4.76,0,0,1-.81.5,4.9,4.9,0,0,1-.84.29,10.44,10.44,0,0,1-1.36.23l-.53.05.53.1a9.6,9.6,0,0,0,1.42.11,5.55,5.55,0,0,0,1-.09,5.29,5.29,0,0,0,1.09-.34,6.5,6.5,0,0,0,1-.68,8.81,8.81,0,0,0,1-.83,12.73,12.73,0,0,0,1.53-1.9c.14.44.29.87.44,1.29.62,1.74,1.26,3.3,1.75,4.78a22.82,22.82,0,0,1,1,4.07,13.51,13.51,0,0,1,.07,3.24A10.86,10.86,0,0,1,46,79.76l-.27.71.37-.66a11,11,0,0,0,.77-2,14.15,14.15,0,0,0,.43-3.37A24.47,24.47,0,0,0,46.87,70c-.27-1.58-.68-3.27-1-5a23.23,23.23,0,0,1-.56-5.32,17.75,17.75,0,0,1,1.16-5.43l.27-.75c.43.39.88.81,1.33,1.29A12.51,12.51,0,0,1,49,55.88a14.43,14.43,0,0,1,.85,1.2,9.43,9.43,0,0,1,1.57,5.2A3.69,3.69,0,0,1,51,64.06a1.41,1.41,0,0,1-.47.53l.17-.09a2,2,0,0,0,.41-.36,4.1,4.1,0,0,0,.75-1.8,10.48,10.48,0,0,0-.69-5.93c-.21-.51-.44-1-.7-1.5a9.76,9.76,0,0,0-.8-1.39A27.62,27.62,0,0,0,48,51.25l-.31-.38c.31-.77.63-1.53,1-2.24a22.42,22.42,0,0,1,3.08-4.74c.73-.94,1.52-1.91,2.29-3l.31.4a37,37,0,0,1,2.75,4.92,9.81,9.81,0,0,0,.73,2l.06.13.07.16h0l.1.17.22.35.35.52a6.78,6.78,0,0,1-.12,2.11,5.33,5.33,0,0,1-.75,1.79,5.39,5.39,0,0,1-.47.6,5.58,5.58,0,0,0,.6-.49A5.76,5.76,0,0,0,59.15,52a6.94,6.94,0,0,0,.46-1.25,12.09,12.09,0,0,0,2.45,1.88,30,30,0,0,0,3,1.51A11,11,0,0,1,68,56.36c.15.57.43,1.31.61,2a3.74,3.74,0,0,1,.11,1,2.07,2.07,0,0,1-.12.49,1.92,1.92,0,0,1-.29.5,14.21,14.21,0,0,1-1.11,1.21c-.41.42-.84.84-1.28,1.25-.88.82-1.79,1.61-2.68,2.32s-1.75,1.3-2.49,1.91A3,3,0,0,0,59.58,69a1.67,1.67,0,0,0,0,.63,1.72,1.72,0,0,0,.07.21.74.74,0,0,1,0-.21,1.52,1.52,0,0,1,0-.6A2.68,2.68,0,0,1,61,67.53c.75-.45,1.75-.92,2.75-1.5s2.06-1.23,3.09-1.93c.51-.35,1-.71,1.52-1.08a16.5,16.5,0,0,0,1.47-1.18,4.46,4.46,0,0,0,.7-.86A4.06,4.06,0,0,0,71,60a5.62,5.62,0,0,0,.15-1A20.91,20.91,0,0,0,72,61.12a19.75,19.75,0,0,1,1.35,4.24c-.22,1.49-.64,2.89-.92,4.16A14.66,14.66,0,0,0,72,72.88a8.67,8.67,0,0,0,.11,1.25,1.38,1.38,0,0,0,.4.86.54.54,0,0,0,.53.19.44.44,0,0,0,.15-.12.51.51,0,0,1-.16.09.47.47,0,0,1-.44-.24,2.94,2.94,0,0,1-.16-2,14.11,14.11,0,0,1,.9-3.12c.44-1.17,1.06-2.45,1.54-4a20.53,20.53,0,0,0,1.37,1.57c.47.49,1,1,1.46,1.4s1,.85,1.5,1.21a3.87,3.87,0,0,1,1.08,1.2,7,7,0,0,1,.6,1.4,6.17,6.17,0,0,1,.29,2.3,4.46,4.46,0,0,1-.14.89,4.39,4.39,0,0,0,.27-.87,6.56,6.56,0,0,0,0-2.42,7.45,7.45,0,0,0-.44-1.6,4.79,4.79,0,0,0-1.07-1.59c-.45-.46-.86-.89-1.28-1.37s-.8-1-1.17-1.5a20.55,20.55,0,0,1-2-3.5,9.6,9.6,0,0,0-.27-2.72,13.27,13.27,0,0,0-3-5.54A13.61,13.61,0,0,0,71,53.44a16.88,16.88,0,0,0-1.29-1.09c-.9-.69-1.81-1.27-2.67-1.83a12.77,12.77,0,0,1-4-3.43c-.11-.16-.1-.23-.17-.33l-.15-.35-.08-.18h0l0,.1V46.2a4.85,4.85,0,0,1-.16-1,8.28,8.28,0,0,1,0-1.22l.35.18a9.17,9.17,0,0,0,.91.38l.52.18.4.11a12.17,12.17,0,0,0,2,.38,15.74,15.74,0,0,0,3.63-.05c1.16-.14,2.13-.36,3-.46a12.35,12.35,0,0,1,5.11.69l.45.16-.08.12.14.07c.14.08.06,0,.18.08a1.84,1.84,0,0,1,.64.69,3.56,3.56,0,0,1,.29.7,3.2,3.2,0,0,1,.1.42v.49a9.29,9.29,0,0,1-.25,2.29c-.17.82-.39,1.67-.52,2.5a8,8,0,0,0-.06,2.29,4.31,4.31,0,0,0,.5,1.53,2.9,2.9,0,0,0,.35.49,2.58,2.58,0,0,1-.23-.54,4.11,4.11,0,0,1-.15-1.48,6.94,6.94,0,0,1,.52-2c.28-.72.67-1.47,1-2.27a10.68,10.68,0,0,0,.87-2.59,1,1,0,0,1,0-.37c0-.12,0-.16,0-.33v-.31l.59.41a9.27,9.27,0,0,1,2.81,3.49,26.93,26.93,0,0,1,1.15,3.94,8.68,8.68,0,0,0,1.33,3.09,1.88,1.88,0,0,0,1.08.71,1.29,1.29,0,0,0,.92-.17.81.81,0,0,0,.43-.6.81.81,0,0,1-.49.5,1.13,1.13,0,0,1-.81,0,1.55,1.55,0,0,1-.71-.7,8.21,8.21,0,0,1-.77-3,27,27,0,0,0-.58-4.29A11.1,11.1,0,0,0,84.49,46a17.42,17.42,0,0,0-4.88-3.55,16,16,0,0,0-6.44-1.84H72.5c1.68-.94,3.22-2,4.66-2.88Z" transform="translate(-5 -19.54)"/></svg>