<svg xmlns="http://www.w3.org/2000/svg" width="25.09" height="24.313" viewBox="0 0 25.09 24.313">
  <defs>
    <style>
      .cls-1 {
        fill: #4d4d4d;
      }
    </style>
  </defs>
  <path id="share-lines" class="cls-1" d="M6.7,7.509a4.736,4.736,0,0,1,3.335,1.362,4.784,4.784,0,0,1,.529.619L18.012,6.44a4.525,4.525,0,0,1-.364-1.792,4.6,4.6,0,0,1,1.383-3.285,4.763,4.763,0,0,1,6.669,0,4.594,4.594,0,0,1,0,6.57,4.763,4.763,0,0,1-6.669,0,4.587,4.587,0,0,1-.41-.463l-7.49,3.07a4.528,4.528,0,0,1,.3,1.617,4.757,4.757,0,0,1-.112,1.023L18.8,16.634q.109-.127.238-.254a4.763,4.763,0,0,1,6.669,0,4.594,4.594,0,0,1,0,6.57,4.763,4.763,0,0,1-6.669,0,4.6,4.6,0,0,1-1.383-3.285,4.506,4.506,0,0,1,.483-2.04l-7.225-3.337a4.514,4.514,0,0,1-.86,1.154,4.763,4.763,0,0,1-6.669,0,4.594,4.594,0,0,1,0-6.57A4.736,4.736,0,0,1,6.718,7.509ZM24.847,2.2a3.552,3.552,0,0,0-4.976,0,3.426,3.426,0,0,0,0,4.9,3.552,3.552,0,0,0,4.976,0,3.426,3.426,0,0,0,0-4.9Zm0,15.011a3.552,3.552,0,0,0-4.976,0,3.426,3.426,0,0,0,0,4.9,3.552,3.552,0,0,0,4.976,0,3.426,3.426,0,0,0,0-4.9ZM9.192,9.7a3.552,3.552,0,0,0-4.976,0,3.426,3.426,0,0,0,0,4.9,3.552,3.552,0,0,0,4.976,0,3.426,3.426,0,0,0,0-4.9Z" transform="translate(-2)"/>
</svg>
