<?xml version="1.0" encoding="utf-8"?><svg version="1.1" id="Layer_1" xmlns="http://www.w3.org/2000/svg" xmlns:xlink="http://www.w3.org/1999/xlink" x="0px" y="0px" width="118.307px" height="122.88px" viewBox="0 0 118.307 122.88" enable-background="new 0 0 118.307 122.88" xml:space="preserve"><g><path d="M10.03,35.673c2.245-10.496,7.201-19.176,14.246-25.362C32.504,3.086,43.498-0.674,56.271,0.1 c1.916,0.113,3.377,1.758,3.265,3.674c-0.113,1.916-1.757,3.378-3.673,3.265C44.988,6.379,35.71,9.509,28.848,15.535 c-6.483,5.693-10.883,14.028-12.512,24.258l0.639,0.264l10.389-7.172c1.425-0.986,3.38-0.63,4.367,0.795 c0.986,1.426,0.63,3.381-0.795,4.366l-16.557,11.43c-1.425,0.986-3.38,0.63-4.366-0.795c-0.062-0.089-0.118-0.18-0.169-0.272 L9.84,48.409L0.39,31.146c-0.836-1.52-0.282-3.431,1.238-4.267c1.52-0.836,3.43-0.282,4.266,1.238L10.03,35.673L10.03,35.673z M99.032,23.108l-0.206,0.159l1.016,12.583c0.142,1.728-1.145,3.243-2.872,3.384c-1.727,0.142-3.242-1.145-3.384-2.872 L91.967,16.31c-0.142-1.728,1.144-3.243,2.871-3.384c0.108-0.009,0.215-0.013,0.32-0.011l0.001-0.002l19.675,0.446 c1.734,0.036,3.112,1.471,3.076,3.206c-0.035,1.734-1.471,3.111-3.206,3.075l-9.65-0.219c3.769,4.437,6.799,9.422,9.01,14.762 c2.775,6.698,4.243,13.922,4.243,21.281c0,3.63-0.358,7.25-1.064,10.812c-0.7,3.535-1.755,7.021-3.153,10.409 c-0.729,1.773-2.757,2.62-4.53,1.891c-1.773-0.729-2.619-2.757-1.891-4.529c1.207-2.924,2.125-5.974,2.745-9.104 c0.616-3.104,0.928-6.279,0.928-9.478c0-6.476-1.279-12.804-3.698-18.643C105.583,31.85,102.684,27.207,99.032,23.108 L99.032,23.108z M72.658,109.86c-5.729,1.047-11.558,1.181-17.277,0.427c-7.172-0.943-14.162-3.288-20.552-6.978l-0.01-0.006 l-0.003,0.006c-3.14-1.813-6.097-3.934-8.832-6.328c-2.73-2.392-5.223-5.045-7.437-7.923c-1.172-1.519-0.892-3.699,0.625-4.871 s3.699-0.892,4.871,0.626c1.948,2.533,4.131,4.857,6.512,6.943c2.377,2.082,4.97,3.939,7.743,5.54l-0.003,0.006 c5.588,3.225,11.705,5.274,17.983,6.101c5.35,0.705,10.824,0.517,16.196-0.593l-0.035-0.264l-11.405-5.411 c-1.566-0.741-2.236-2.612-1.495-4.179c0.741-1.567,2.613-2.236,4.18-1.495l18.177,8.624c1.566,0.741,2.235,2.612,1.494,4.18 c-0.046,0.097-0.097,0.191-0.15,0.282l0.002,0.001l-10.225,16.816c-0.898,1.483-2.83,1.959-4.314,1.061 c-1.484-0.897-1.96-2.829-1.062-4.313L72.658,109.86L72.658,109.86z"/></g></svg>