<?xml version="1.0" encoding="utf-8"?>
<!-- Generator: Adobe Illustrator 24.0.1, SVG Export Plug-In . SVG Version: 6.00 Build 0)  -->
<svg version="1.1" id="Layer_1" xmlns="http://www.w3.org/2000/svg" xmlns:xlink="http://www.w3.org/1999/xlink" x="0px" y="0px"
	 viewBox="0 0 16.2 16.2" style="enable-background:new 0 0 16.2 16.2;" xml:space="preserve">
<style type="text/css">
	.st0{fill:#FFFFFF;stroke:#FFFFFF;stroke-width:0.2;}
</style>
<g transform="translate(0.1 0.1)">
	<path class="st0" d="M8,0c4.4,0,8,3.6,8,8c0,4.4-3.6,8-8,8s-8-3.6-8-8c0-2.1,0.8-4.2,2.3-5.7C3.8,0.8,5.9,0,8,0z M7.7,3.7
		c0-0.2,0.2-0.4,0.5-0.4c0.2,0,0.4,0.2,0.4,0.4v4l3,1.8c0.2,0.1,0.3,0.4,0.2,0.6c-0.1,0.2-0.4,0.3-0.6,0.2c0,0,0,0,0,0L7.9,8.4
		C7.8,8.3,7.7,8.2,7.7,8L7.7,3.7z M13,3C10.2,0.2,5.7,0.2,2.9,3s-2.8,7.3,0,10.1s7.3,2.8,10.1,0c1.3-1.3,2.1-3.2,2.1-5
		C15.1,6.1,14.4,4.3,13,3L13,3z"/>
</g>
</svg>
