<svg xmlns="http://www.w3.org/2000/svg" width="10.476" height="10.745" viewBox="0 0 10.476 10.745">
  <path id="zoom-in-line" d="M7.879,7.612a.3.3,0,0,1-.05-.063A4.232,4.232,0,1,1,8.3,7.118a.174.174,0,0,1,.036.033l3.044,3.037a.326.326,0,0,1-.461.461L7.876,7.612ZM3.573,4.552a.325.325,0,1,1,0-.65H4.9V2.579a.325.325,0,1,1,.65,0V3.9H6.868a.325.325,0,1,1,0,.65H5.545V5.875a.325.325,0,0,1-.65,0V4.552ZM7.737,1.711A3.562,3.562,0,1,0,8.778,4.227,3.545,3.545,0,0,0,7.737,1.711Z" transform="translate(-1)"/>
</svg>
