<svg id="incorrect_" data-name="incorrect " xmlns="http://www.w3.org/2000/svg" width="16" height="16" viewBox="0 0 16 16">
  <defs>
    <style>
      .cls-1 {
        fill: #ff5d36;
      }

      .cls-2 {
        fill: #fff;
      }
    </style>
  </defs>
  <path id="Path_39" data-name="Path 39" class="cls-1" d="M7.454,0A7.454,7.454,0,1,1,0,7.454,7.454,7.454,0,0,1,7.454,0Z" transform="translate(0.376 0.376)"/>
  <path id="close-round-line" class="cls-2" d="M8,0A7.994,7.994,0,1,1,2.341,2.341,7.975,7.975,0,0,1,8,0Zm2.438,4.865a.435.435,0,1,1,.615.615L8.534,8l2.519,2.519a.435.435,0,1,1-.615.615L7.918,8.615,5.4,11.135a.435.435,0,0,1-.615-.615L7.3,8,4.784,5.481A.435.435,0,0,1,5.4,4.865L7.918,7.385Zm2.606-1.909A7.127,7.127,0,1,0,15.135,8,7.114,7.114,0,0,0,13.043,2.957Z" transform="translate(0 0)"/>
</svg>
