<svg xmlns="http://www.w3.org/2000/svg" width="22.15" height="22.15" viewBox="0 0 22.15 22.15">
  <path id="computer-mouse-wired" d="M19.7,4.987a7.71,7.71,0,0,1-.6,10.188l-5.982,5.982A7.685,7.685,0,0,1,2.243,10.289L8.224,4.307a7.71,7.71,0,0,1,10.188-.6L20.6,1.516A.908.908,0,1,1,21.884,2.8L19.7,4.987Zm-4.911,3.5a1.466,1.466,0,0,1,0,2.067L13.721,11.62a1.462,1.462,0,0,1-2.067-2.067l1.065-1.065a1.466,1.466,0,0,1,2.067,0Zm4.733,1.253a5.869,5.869,0,0,0-10.01-4.15L3.527,11.573a5.869,5.869,0,0,0,8.3,8.3l5.982-5.982A5.85,5.85,0,0,0,19.519,9.741Z" transform="translate(0 -1.25)"/>
</svg>
