<svg xmlns="http://www.w3.org/2000/svg" width="34" height="26" viewBox="0 0 34 26">
  <defs>
    <style>
      .cls-1, .cls-2, .cls-3, .cls-5 {
        fill: none;
      }

      .cls-1, .cls-3 {
        stroke: #575757;
        stroke-width: 1.5px;
      }

      .cls-3 {
        stroke-linecap: round;
        stroke-dasharray: 2 3;
      }

      .cls-4, .cls-6 {
        stroke: none;
      }

      .cls-6 {
        fill: #575757;
      }
    </style>
  </defs>
  <g id="outcome-connector" transform="translate(-1622.882 -517)">
    <g id="Rectangle_3" data-name="Rectangle 3" class="cls-1" transform="translate(1634.882 517)">
      <rect class="cls-4" width="11" height="8" rx="2"/>
      <rect class="cls-5" x="0.75" y="0.75" width="9.5" height="6.5" rx="1.25"/>
    </g>
    <g id="Rectangle_2" data-name="Rectangle 2" class="cls-2" transform="translate(1622.882 535)">
      <path class="cls-4" d="M2,0h8a2,2,0,0,1,2,2V6a2,2,0,0,1-2,2H2A2,2,0,0,1,0,6V2A2,2,0,0,1,2,0Z"/>
      <path class="cls-6" d="M 2 1.5 C 1.724300384521484 1.5 1.5 1.724299907684326 1.5 2 L 1.5 6 C 1.5 6.275700092315674 1.724300384521484 6.5 2 6.5 L 10 6.5 C 10.27569961547852 6.5 10.5 6.275700092315674 10.5 6 L 10.5 2 C 10.5 1.724299907684326 10.27569961547852 1.5 10 1.5 L 2 1.5 M 2 0 L 10 0 C 11.10457038879395 0 12 0.8954300880432129 12 2 L 12 6 C 12 7.104569911956787 11.10457038879395 8 10 8 L 2 8 C 0.8954296112060547 8 0 7.104569911956787 0 6 L 0 2 C 0 0.8954300880432129 0.8954296112060547 0 2 0 Z"/>
    </g>
    <g id="Rectangle_1" data-name="Rectangle 1" class="cls-1" transform="translate(1645.882 535)">
      <rect class="cls-4" width="11" height="8" rx="2"/>
      <rect class="cls-5" x="0.75" y="0.75" width="9.5" height="6.5" rx="1.25"/>
    </g>
    <path id="Line_2" data-name="Line 2" class="cls-3" d="M10,11,0,0" transform="translate(1640.382 524.5)"/>
    <path id="Line_1" data-name="Line 1" class="cls-3" d="M1,11,11,0" transform="translate(1629.382 524.5)"/>
  </g>
</svg>
