<svg xmlns="http://www.w3.org/2000/svg" width="25.333" height="25.29" viewBox="0 0 25.333 25.29">
  <path id="quick_edit_icon_white" d="M33.725,3.875a4.726,4.726,0,0,0-6.529,0L11.712,19.359a1.152,1.152,0,0,0-.3.535l-1.63,6.527A1.154,1.154,0,0,0,10.9,27.856a1.123,1.123,0,0,0,.28-.035l6.529-1.632a1.142,1.142,0,0,0,.535-.3L33.725,10.4a4.613,4.613,0,0,0,0-6.527ZM16.836,24.028l-4.353,1.088,1.088-4.353L26.381,7.955l3.265,3.265ZM32.093,8.77l-.815.815L28.013,6.32l.815-.815a2.365,2.365,0,0,1,3.265,0,2.308,2.308,0,0,1,0,3.265Z" transform="translate(-9.744 -2.566)" fill="#f2f2f2"/>
</svg>
