<svg xmlns="http://www.w3.org/2000/svg" xmlns:xlink="http://www.w3.org/1999/xlink" width="200" height="201" viewBox="0 0 200 201">
  <defs>
    <style>
      .cls-1 {
        stroke: #f6f6f6;
        fill: url(#linear-gradient);
      }

      .cls-2 {
        fill: #fff;
        stroke: #fff;
        stroke-width: 3px;
      }

      .cls-3 {
        stroke: none;
      }

      .cls-4 {
        fill: none;
      }

      .cls-5 {
        filter: url(#Path_35);
      }
    </style>
    <linearGradient id="linear-gradient" x1="0.85" y1="0.15" x2="0.209" y2="0.892" gradientUnits="objectBoundingBox">
      <stop offset="0" stop-color="#7e27ff"/>
      <stop offset="1" stop-color="#4200a5"/>
    </linearGradient>
    <filter id="Path_35" x="13.839" y="14.815" width="171.834" height="171.834" filterUnits="userSpaceOnUse">
      <feOffset input="SourceAlpha"/>
      <feGaussianBlur stdDeviation="3" result="blur"/>
      <feFlood flood-opacity="0.271"/>
      <feComposite operator="in" in2="blur"/>
      <feComposite in="SourceGraphic"/>
    </filter>
  </defs>
  <g id="Group_20" data-name="Group 20" transform="translate(-1038 -1371)">
    <g id="Ellipse_15" data-name="Ellipse 15" class="cls-1" transform="translate(1038 1371)">
      <ellipse class="cls-3" cx="100" cy="100.5" rx="100" ry="100.5"/>
      <ellipse class="cls-4" cx="100" cy="100.5" rx="99.5" ry="100"/>
    </g>
    <g class="cls-5" transform="matrix(1, 0, 0, 1, 1038, 1371)">
      <path id="Path_35-2" data-name="Path 35" class="cls-2" d="M88.108,35.937A23.066,23.066,0,0,0,71.97,26.605c-7.79-.842-15.631-1.295-23.476-1.368a40.346,40.346,0,0,0-1.555-10.6C44.452,6.254,39.286,1.2,32,.028a2.146,2.146,0,1,0-.684,4.238c5.6.9,9.458,4.769,11.479,11.492a36.218,36.218,0,0,1,1.4,9.478c-7.907.068-15.809.521-23.66,1.369A22.99,22.99,0,0,0,.475,54.117a2.147,2.147,0,0,0,2.1,1.711,2.171,2.171,0,0,0,.438-.045q1.177-.244,2.356-.473A35.416,35.416,0,0,0,3.386,67.379c0,21.62,11.557,34.482,21.253,41.464a64.419,64.419,0,0,0,21.138,10,2.138,2.138,0,0,0,.954,0,64.412,64.412,0,0,0,21.138-10c9.7-6.982,21.253-19.844,21.253-41.464a35.414,35.414,0,0,0-1.982-12.068q1.177.231,2.354.472a2.147,2.147,0,0,0,2.537-1.666A23.009,23.009,0,0,0,88.108,35.937Zm-9.3,54.91a47.383,47.383,0,0,1-13.326,14.427,62.068,62.068,0,0,1-19.226,9.266,62.063,62.063,0,0,1-19.226-9.266A47.384,47.384,0,0,1,13.7,90.847,45.881,45.881,0,0,1,7.679,67.379,29.686,29.686,0,0,1,10.4,54.389a211.622,211.622,0,0,1,71.7,0,29.682,29.682,0,0,1,2.724,12.99A45.879,45.879,0,0,1,78.807,90.847Zm9.335-39.716a216.155,216.155,0,0,0-83.775,0A18.7,18.7,0,0,1,21,30.873a235.513,235.513,0,0,1,50.51,0A18.7,18.7,0,0,1,88.142,51.131Z" transform="translate(109.07 26) rotate(45)"/>
    </g>
  </g>
</svg>
